<svg xmlns="http://www.w3.org/2000/svg" xmlns:xlink="http://www.w3.org/1999/xlink" xmlns:lucid="lucid" width="1521.54" height="790.83"><g transform="translate(-83.55055052984342 -179.11475750900644)" lucid:page-tab-id="0_0"><path d="M1490.05 343.1v5.03m0 5.02v10.03m0 5.02v10.04m0 5v10.05m0 5v10.04m0 5.02v10.03m0 5v10.05m0 5v10.05m0 5.02v10.03m0 5.02v10.03m0 5.02v10.04m0 5v10.05m0 5.03v10.03m0 5.02v10.03m0 5.03v10.04m0 5v10.05m0 5.02v10.03m0 5.02V604m0 5.02v10.04m0 5v10.05m0 5.02v10.03m0 5.02v10.03m0 5.02v10.04m0 5v10.04m0 5.02v10.03m0 5v10.04m0 5.02v10.04m0 5v10.05m0 5.02v10.03m0 5.02v10.03m0 5.02v10.04m0 5.02v10.04m0 5.02v10.03m0 5.03v10.03m0 5.02v10.04m0 5v10.05m0 5.02V890m0 5.02v5.02M1490.05 343.13v-.52M1490.05 900.04v.52M762.4 351.1v5m0 5v10m0 5v10m0 5v10m0 5v9.98m0 5v10m0 5v10m0 5v9.98m0 5v10m0 5v10m0 5v9.98m0 5v10m0 5v10m0 5V551m0 5v10m0 5v10m0 4.98v10m0 5v10m0 5v10m0 4.98v10m0 5v10m0 5v9.98m0 5v10m0 5v10m0 5v9.98m0 5v10m0 5v10m0 5v9.98m0 5v10m0 5v10m0 5v9.98m0 5v10m0 5v10m0 4.98v10m0 5v10m0 5v10m0 4.98v10m0 5v5" stroke="#333" fill="none"/><path d="M762.9 351.13h-1v-.52h1" fill="#333"/><path d="M762.4 905.84v.5M416.2 351.1v5m0 4.98v9.96m0 4.98v9.96m0 4.98v9.96m0 4.98v9.97m0 4.98v9.96m0 5v9.95m0 4.98v9.96m0 4.97v9.97m0 4.98v9.96m0 4.98v9.96m0 4.98v9.96m0 4.98v9.97m0 5v9.95m0 4.98v9.96m0 4.97v9.96m0 5v9.95m0 4.98v9.96m0 4.98v9.96m0 4.98V640m0 5v9.95m0 4.98v9.96m0 4.97v9.96m0 4.98v9.98m0 4.98v9.96m0 4.98v9.96m0 4.98v9.96m0 4.98v9.97m0 4.98v9.96m0 4.97v9.96m0 4.98v9.97m0 4.98v9.97m0 4.98v9.96m0 4.98v9.96m0 4.98v9.96m0 4.98v9.97m0 4.97v9.96m0 4.98v5" stroke="#333" fill="none"/><path d="M416.7 351.13h-1v-.52h1" fill="#333"/><path d="M416.2 903.98v3.5" stroke="#333" fill="none"/><path d="M397.28 420.06c0-4.42 3.6-8 8-8h24c4.42 0 8 3.58 8 8v421.66c0 4.4-3.58 8-8 8h-24c-4.4 0-8-3.6-8-8z" stroke="#f2f2f2" fill="#d2d3d5"/><path d="M372.9 877.95c0-4.42 3.6-8 8-8h70.6c4.4 0 8 3.58 8 8v64c0 4.4-3.6 8-8 8h-70.6c-4.4 0-8-3.6-8-8z" fill="none"/><path d="M381.57 877.95l69.26 64m0-64l-69.26 64" stroke="#666" stroke-width="8" fill="none"/><path d="M742.4 479.73c0-4.42 3.58-8 8-8h24c4.42 0 8 3.58 8 8v308.04c0 4.4-3.58 8-8 8h-24c-4.42 0-8-3.6-8-8z" stroke="#f2f2f2" fill="#d2d3d5"/><path d="M438.28 482.06h151.4c.1 0 .16-.07.16-.16 0-.1.08-.17.17-.17h135.5" stroke="#333" fill="none"/><path d="M438.3 482.56h-.52v-1h.52" fill="#333"/><path d="M740.28 481.73L726 486.36v-9.27z" stroke="#333" fill="#333"/><use xlink:href="#a" transform="matrix(1,0,0,1,512.0087369884604,452.0356755927253) translate(0 17.129180600720513)"/><use xlink:href="#b" transform="matrix(1,0,0,1,512.0087369884604,452.0356755927253) translate(108.12795254204825 17.129180600720513)"/><path d="M783.4 574.5h281.1" stroke="#333" fill="none"/><path d="M783.4 575h-.5v-1h.5" fill="#333"/><path d="M1079.26 574.5l-14.27 4.64v-9.27z" stroke="#333" fill="#333"/><use xlink:href="#a" transform="matrix(1,0,0,1,854.0623406387655,544.8096975751911) translate(0 17.129180600720513)"/><use xlink:href="#b" transform="matrix(1,0,0,1,854.0623406387655,544.8096975751911) translate(108.12795254204825 17.129180600720513)"/><path d="M1080.38 690.42H783.8" stroke="#333" fill="none"/><path d="M1080.88 690.92h-.52v-1h.52" fill="#333"/><path d="M801.1 680.24l-17.22 10.18 17.2 10.18" stroke="#333" fill="none"/><use xlink:href="#c" transform="matrix(1,0,0,1,931.8871073611363,694.423237060176) translate(0 20.935665178658407)"/><use xlink:href="#d" transform="matrix(1,0,0,1,916.6876029700649,657.8746027256418) translate(0.005000000000000782 19.03242288968946)"/><path d="M321.17 207.1c0-4.4 3.58-8 8-8h174.08c4.42 0 8 3.6 8 8v135c0 4.43-3.58 8-8 8H329.17c-4.42 0-8-3.57-8-8z" stroke="#c92d39" fill="#ffbd50"/><use xlink:href="#e" transform="matrix(1,0,0,1,329.1721362635096,207.11475750900644) translate(54.0148309784526 58.93540969963975)"/><use xlink:href="#f" transform="matrix(1,0,0,1,329.1721362635096,207.11475750900644) translate(108.49514150018868 58.93540969963975)"/><use xlink:href="#g" transform="matrix(1,0,0,1,329.1721362635096,207.11475750900644) translate(61.95491990274493 84.62918060072052)"/><path d="M1395 207.1c0-4.4 3.6-8 8-8h174.1c4.4 0 8 3.6 8 8v135c0 4.43-3.6 8-8 8H1403c-4.4 0-8-3.57-8-8z" stroke="#1775e5" fill="#c1e4f7"/><use xlink:href="#h" transform="matrix(1,0,0,1,1403.0147413570194,207.11475750900644) translate(53.033471673202996 58.93540969963975)"/><use xlink:href="#i" transform="matrix(1,0,0,1,1403.0147413570194,207.11475750900644) translate(50.119131918219296 84.62918060072052)"/><path d="M741.4 777.36H438.7" stroke="#333" fill="none"/><path d="M741.9 777.86h-.52v-1h.52" fill="#333"/><path d="M455.98 767.18l-17.2 10.18 17.2 10.18" stroke="#333" fill="none"/><use xlink:href="#j" transform="matrix(1,0,0,1,576.1607096639246,747.6635815403356) translate(0 17.129180600720513)"/><path d="M1101.38 351.1v5.07m0 5.06v10.1m0 5.06v10.1m0 5.06v10.1m0 5.07v10.1m0 5.07V432m0 5.07v10.1m0 5.06v10.12m0 5.05v10.1m0 5.07v10.1m0 5.07v10.1m0 5.07v10.12m0 5.05v10.1m0 5.07v10.1m0 5.07v10.12m0 5.06v10.1m0 5.06v10.12m0 5.05v10.12m0 5.06v10.1m0 5.07v10.1m0 5.07v10.1m0 5.06v10.12m0 5.05v10.1m0 5.07v10.1m0 5.07v10.1m0 5.05v10.12m0 5.05v10.1m0 5.07v10.1m0 5.06v10.1m0 5.07v10.1m0 5.06v10.1m0 5.06v10.1m0 5.07v10.1m0 5.07v10.1m0 5.07v10.1m0 5.06v10.12m0 5.05v5.06" stroke="#333" fill="none"/><path d="M1101.88 351.13h-1v-.52h1" fill="#333"/><path d="M1101.38 897.14v.52" stroke="#333" fill="none"/><path d="M1081.38 564.7c0-4.42 3.58-8 8-8h24c4.42 0 8 3.58 8 8v133.88c0 4.42-3.58 8-8 8h-24c-4.42 0-8-3.58-8-8z" stroke="#f2f2f2" fill="#d2d3d5"/><path d="M1006.34 207.1c0-4.4 3.58-8 8-8h174.07c4.43 0 8 3.6 8 8v135c0 4.43-3.57 8-8 8h-174.06c-4.42 0-8-3.57-8-8z" stroke="#1775e5" fill="#c1e4f7"/><use xlink:href="#k" transform="matrix(1,0,0,1,1014.3393602923303,207.11475750900644) translate(65.49376103379656 58.93540969963975)"/><use xlink:href="#l" transform="matrix(1,0,0,1,1014.3393602923303,207.11475750900644) translate(32.9304749959685 84.62918060072052)"/><path d="M1092 586.1c0-4.4 3.57-8 8-8h24c4.4 0 8 3.6 8 8v91.07c0 4.42-3.6 8-8 8h-24c-4.43 0-8-3.58-8-8z" stroke="#0c7cba" fill="#c1e4f7"/><path d="M1132 608.94c0-4.4 3.57-8 8-8h224c4.4 0 8 3.6 8 8v45.4c0 4.4-3.6 8-8 8h-224c-4.43 0-8-3.6-8-8z" stroke="#000" stroke-opacity="0" fill="#fff" fill-opacity="0"/><use xlink:href="#m" transform="matrix(1,0,0,1,1136.9852632959328,605.9447637491257) translate(0 30.129180600720513)"/><use xlink:href="#n" transform="matrix(1,0,0,1,1136.9852632959328,605.9447637491257) translate(5.947632153027956 30.129180600720513)"/><use xlink:href="#o" transform="matrix(1,0,0,1,1136.9852632959328,605.9447637491257) translate(53.46921305572132 30.129180600720513)"/><use xlink:href="#p" transform="matrix(1,0,0,1,1136.9852632959328,605.9447637491257) translate(89.15500597388905 30.129180600720513)"/><path d="M667.36 207.1c0-4.4 3.58-8 8-8h174.07c4.42 0 8 3.6 8 8v135c0 4.43-3.58 8-8 8H675.36c-4.42 0-8-3.57-8-8z" stroke="#1775e5" fill="#b2d6ef"/><use xlink:href="#q" transform="matrix(1,0,0,1,675.3596163000955,207.11475750900644) translate(54.222998103808585 58.93540969963975)"/><use xlink:href="#l" transform="matrix(1,0,0,1,675.3596163000955,207.11475750900644) translate(32.9304749959685 84.62918060072052)"/><path d="M867.16 699.64c0-4.42 3.6-8 8-8h133.9c4.4 0 8 3.58 8 8v26.82c0 4.42-3.6 8-8 8h-133.9c-4.4 0-8-3.58-8-8z" stroke="#000" stroke-opacity="0" fill="#fff" fill-opacity="0"/><use xlink:href="#r" transform="matrix(1,0,0,1,872.164767911476,696.6385346502066) translate(23.47629960298132 19.35093831175157)"/><use xlink:href="#s" transform="matrix(1,0,0,1,872.164767911476,696.6385346502066) translate(84.80299558086958 19.35093831175157)"/><path d="M526 783.53c0-4.4 3.6-8 8-8h133.9c4.4 0 8 3.6 8 8v26.83c0 4.4-3.6 8-8 8H534c-4.4 0-8-3.6-8-8z" stroke="#000" stroke-opacity="0" fill="#fff" fill-opacity="0"/><use xlink:href="#r" transform="matrix(1,0,0,1,531.0142074237009,780.5337673554565) translate(23.47629960298132 19.35093831175157)"/><use xlink:href="#s" transform="matrix(1,0,0,1,531.0142074237009,780.5337673554565) translate(84.80299558086958 19.35093831175157)"/><path d="M107.56 449.64H380.4M107.57 449.64h-.5" stroke="#333" fill="none"/><path d="M395.16 449.64l-14.26 4.64V445z" stroke="#333" fill="#333"/><use xlink:href="#t" transform="matrix(1,0,0,1,196.27812440035254,419.9472198678327) translate(0.005000000000002558 17.129180600720513)"/><path d="M396.28 826.72H125.93" stroke="#333" fill="none"/><path d="M396.78 827.22h-.5v-1h.5" fill="#333"/><path d="M111.17 826.72l14.26-4.63v9.26z" stroke="#333" fill="#333"/><g><use xlink:href="#u" transform="matrix(1,0,0,1,180.8961842357678,797.0307325159933) translate(0 17.129180600720513)"/></g><path d="M171.3 843.6c0-4.43 3.57-8 8-8h133.87c4.42 0 8 3.57 8 8v39.67c0 4.42-3.58 8-8 8H179.3c-4.43 0-8-3.58-8-8z" stroke="#000" stroke-opacity="0" fill="#fff" fill-opacity="0"/><g><use xlink:href="#v" transform="matrix(1,0,0,1,176.2918060072052,840.5898009972204) translate(0 15.22593831175157)"/><use xlink:href="#w" transform="matrix(1,0,0,1,176.2918060072052,840.5898009972204) translate(54.45387660105595 15.22593831175157)"/><use xlink:href="#x" transform="matrix(1,0,0,1,176.2918060072052,840.5898009972204) translate(0 38.06484577937893)"/><use xlink:href="#y" transform="matrix(1,0,0,1,176.2918060072052,840.5898009972204) translate(34.839907456403765 38.06484577937893)"/></g><path d="M161.34 457.64c0-4.42 3.58-8 8-8h153.8c4.4 0 8 3.58 8 8v39.68c0 4.42-3.6 8-8 8h-153.8c-4.42 0-8-3.58-8-8z" stroke="#000" stroke-opacity="0" fill="#fff" fill-opacity="0"/><g><use xlink:href="#z" transform="matrix(1,0,0,1,166.33889364061895,454.64099076891347) translate(24.224427364937824 26.72593831175157)"/><use xlink:href="#A" transform="matrix(1,0,0,1,166.33889364061895,454.64099076891347) translate(80.89875330312422 26.72593831175157)"/></g><path d="M750.28 500.46c0-4.4 3.58-8 8-8h24c4.42 0 8 3.6 8 8v48.24c0 4.42-3.58 8-8 8h-24c-4.42 0-8-3.58-8-8zM750.28 714.58c0-4.42 3.58-8 8-8h24c4.42 0 8 3.58 8 8v48.23c0 4.43-3.58 8-8 8h-24c-4.42 0-8-3.57-8-8z" stroke="#0c7cba" fill="#c1e4f7"/><path d="M802.5 736.33c0-4.42 3.6-8 8-8h224c4.43 0 8 3.58 8 8v44c0 4.42-3.57 8-8 8h-224c-4.4 0-8-3.58-8-8z" stroke="#000" stroke-opacity="0" fill="#fff" fill-opacity="0"/><g><use xlink:href="#m" transform="matrix(1,0,0,1,807.5088549156462,733.3273641251243) translate(0 29.629180600720513)"/><use xlink:href="#B" transform="matrix(1,0,0,1,807.5088549156462,733.3273641251243) translate(5.947632153027956 29.629180600720513)"/><use xlink:href="#C" transform="matrix(1,0,0,1,807.5088549156462,733.3273641251243) translate(40.384422319059816 29.629180600720513)"/></g><path d="M790.28 490.45c0-4.42 3.58-8 8-8h224c4.42 0 8 3.58 8 8v44c0 4.42-3.58 8-8 8h-224c-4.42 0-8-3.58-8-8z" stroke="#000" stroke-opacity="0" fill="#fff" fill-opacity="0"/><g><use xlink:href="#m" transform="matrix(1,0,0,1,795.281366249796,487.4491359050803) translate(0 29.629180600720513)"/><use xlink:href="#B" transform="matrix(1,0,0,1,795.281366249796,487.4491359050803) translate(5.947632153027956 29.629180600720513)"/><use xlink:href="#D" transform="matrix(1,0,0,1,795.281366249796,487.4491359050803) translate(40.384422319059816 29.629180600720513)"/></g><defs><path fill="#333" d="M24-231v-30h32v30H24zM24 0v-190h32V0H24" id="E"/><path fill="#333" d="M117-194c89-4 53 116 60 194h-32v-121c0-31-8-49-39-48C34-167 62-67 57 0H25l-1-190h30c1 10-1 24 2 32 11-22 29-35 61-36" id="F"/><path fill="#333" d="M108 0H70L1-190h34L89-25l56-165h34" id="G"/><path fill="#333" d="M100-194c62-1 85 37 85 99 1 63-27 99-86 99S16-35 15-95c0-66 28-99 85-99zM99-20c44 1 53-31 53-75 0-43-8-75-51-75s-53 32-53 75 10 74 51 75" id="H"/><path fill="#333" d="M143 0L79-87 56-68V0H24v-261h32v163l83-92h37l-77 82L181 0h-38" id="I"/><path fill="#333" d="M100-194c63 0 86 42 84 106H49c0 40 14 67 53 68 26 1 43-12 49-29l28 8c-11 28-37 45-77 45C44 4 14-33 15-96c1-61 26-98 85-98zm52 81c6-60-76-77-97-28-3 7-6 17-6 28h103" id="J"/><path fill="#333" d="M87 75C49 33 22-17 22-94c0-76 28-126 65-167h31c-38 41-64 92-64 168S80 34 118 75H87" id="K"/><path fill="#333" d="M96-169c-40 0-48 33-48 73s9 75 48 75c24 0 41-14 43-38l32 2c-6 37-31 61-74 61-59 0-76-41-82-99-10-93 101-131 147-64 4 7 5 14 7 22l-32 3c-4-21-16-35-41-35" id="L"/><path fill="#333" d="M59-47c-2 24 18 29 38 22v24C64 9 27 4 27-40v-127H5v-23h24l9-43h21v43h35v23H59v120" id="M"/><path fill="#333" d="M141 0L90-78 38 0H4l68-98-65-92h35l48 74 47-74h35l-64 92 68 98h-35" id="N"/><path fill="#333" d="M68-38c1 34 0 65-14 84H32c9-13 17-26 17-46H33v-38h35" id="O"/><g id="a"><use transform="matrix(0.05947632153027956,0,0,0.05947632153027956,0,0)" xlink:href="#E"/><use transform="matrix(0.05947632153027956,0,0,0.05947632153027956,4.698629400892085,0)" xlink:href="#F"/><use transform="matrix(0.05947632153027956,0,0,0.05947632153027956,16.593893706948,0)" xlink:href="#G"/><use transform="matrix(0.05947632153027956,0,0,0.05947632153027956,27.29963158239832,0)" xlink:href="#H"/><use transform="matrix(0.05947632153027956,0,0,0.05947632153027956,39.194895888454234,0)" xlink:href="#I"/><use transform="matrix(0.05947632153027956,0,0,0.05947632153027956,49.90063376390455,0)" xlink:href="#J"/><use transform="matrix(0.05947632153027956,0,0,0.05947632153027956,61.795898069960465,0)" xlink:href="#K"/><use transform="matrix(0.05947632153027956,0,0,0.05947632153027956,68.87358033206374,0)" xlink:href="#L"/><use transform="matrix(0.05947632153027956,0,0,0.05947632153027956,79.57931820751406,0)" xlink:href="#M"/><use transform="matrix(0.05947632153027956,0,0,0.05947632153027956,85.52695036054202,0)" xlink:href="#N"/><use transform="matrix(0.05947632153027956,0,0,0.05947632153027956,96.23268823599234,0)" xlink:href="#O"/></g><path fill="#333" d="M33-261c38 41 65 92 65 168S71 34 33 75H2C39 34 66-17 66-93S39-220 2-261h31" id="P"/><g id="b"><use transform="matrix(0.05947632153027956,0,0,0.05947632153027956,0,0)" xlink:href="#F"/><use transform="matrix(0.05947632153027956,0,0,0.05947632153027956,11.895264306055912,0)" xlink:href="#J"/><use transform="matrix(0.05947632153027956,0,0,0.05947632153027956,23.790528612111824,0)" xlink:href="#N"/><use transform="matrix(0.05947632153027956,0,0,0.05947632153027956,34.496266487562146,0)" xlink:href="#M"/><use transform="matrix(0.05947632153027956,0,0,0.05947632153027956,40.4438986405901,0)" xlink:href="#P"/></g><g id="d"><use transform="matrix(0.06608480170031063,0,0,0.06608480170031063,0,0)" xlink:href="#L"/><use transform="matrix(0.06608480170031063,0,0,0.06608480170031063,11.895264306055912,0)" xlink:href="#M"/><use transform="matrix(0.06608480170031063,0,0,0.06608480170031063,18.503744476086975,0)" xlink:href="#N"/></g><path fill="#333" d="M190 0L58-211 59 0H30v-248h39L202-35l-2-213h31V0h-41" id="Q"/><path fill="#333" d="M114-163C36-179 61-72 57 0H25l-1-190h30c1 12-1 29 2 39 6-27 23-49 58-41v29" id="R"/><g id="e"><use transform="matrix(0.05947632153027956,0,0,0.05947632153027956,0,0)" xlink:href="#Q"/><use transform="matrix(0.05947632153027956,0,0,0.05947632153027956,15.404367276342407,0)" xlink:href="#E"/><use transform="matrix(0.05947632153027956,0,0,0.05947632153027956,20.102996677234493,0)" xlink:href="#M"/><use transform="matrix(0.05947632153027956,0,0,0.05947632153027956,26.05062883026245,0)" xlink:href="#R"/><use transform="matrix(0.05947632153027956,0,0,0.05947632153027956,33.12831109236572,0)" xlink:href="#E"/><use transform="matrix(0.05947632153027956,0,0,0.05947632153027956,37.82694049325781,0)" xlink:href="#L"/></g><path fill="#333" d="M118-107v75H92v-75H18v-26h74v-75h26v75h74v26h-74" id="S"/><use transform="matrix(0.05947632153027956,0,0,0.05947632153027956,0,0)" xlink:href="#S" id="f"/><path fill="#333" d="M63-220v92h138v28H63V0H30v-248h175v28H63" id="T"/><path fill="#333" d="M141-36C126-15 110 5 73 4 37 3 15-17 15-53c-1-64 63-63 125-63 3-35-9-54-41-54-24 1-41 7-42 31l-33-3c5-37 33-52 76-52 45 0 72 20 72 64v82c-1 20 7 32 28 27v20c-31 9-61-2-59-35zM48-53c0 20 12 33 32 33 41-3 63-29 60-74-43 2-92-5-92 41" id="U"/><path fill="#333" d="M185-189c-5-48-123-54-124 2 14 75 158 14 163 119 3 78-121 87-175 55-17-10-28-26-33-46l33-7c5 56 141 63 141-1 0-78-155-14-162-118-5-82 145-84 179-34 5 7 8 16 11 25" id="V"/><g id="g"><use transform="matrix(0.05947632153027956,0,0,0.05947632153027956,0,0)" xlink:href="#T"/><use transform="matrix(0.05947632153027956,0,0,0.05947632153027956,13.025314415131223,0)" xlink:href="#U"/><use transform="matrix(0.05947632153027956,0,0,0.05947632153027956,24.920578721187134,0)" xlink:href="#U"/><use transform="matrix(0.05947632153027956,0,0,0.05947632153027956,36.81584302724305,0)" xlink:href="#V"/></g><path fill="#333" d="M232-93c-1 65-40 97-104 97C67 4 28-28 28-90v-158h33c8 89-33 224 67 224 102 0 64-133 71-224h33v155" id="W"/><path fill="#333" d="M115-194c55 1 70 41 70 98S169 2 115 4C84 4 66-9 55-30l1 105H24l-1-265h31l2 30c10-21 28-34 59-34zm-8 174c40 0 45-34 45-75s-6-73-45-74c-42 0-51 32-51 76 0 43 10 73 51 73" id="X"/><path fill="#333" d="M85-194c31 0 48 13 60 33l-1-100h32l1 261h-30c-2-10 0-23-3-31C134-8 116 4 85 4 32 4 16-35 15-94c0-66 23-100 70-100zm9 24c-40 0-46 34-46 75 0 40 6 74 45 74 42 0 51-32 51-76 0-42-9-74-50-73" id="Y"/><g id="h"><use transform="matrix(0.05947632153027956,0,0,0.05947632153027956,0,0)" xlink:href="#W"/><use transform="matrix(0.05947632153027956,0,0,0.05947632153027956,15.404367276342407,0)" xlink:href="#X"/><use transform="matrix(0.05947632153027956,0,0,0.05947632153027956,27.29963158239832,0)" xlink:href="#Y"/><use transform="matrix(0.05947632153027956,0,0,0.05947632153027956,39.194895888454234,0)" xlink:href="#U"/><use transform="matrix(0.05947632153027956,0,0,0.05947632153027956,51.09016019451015,0)" xlink:href="#M"/><use transform="matrix(0.05947632153027956,0,0,0.05947632153027956,57.0377923475381,0)" xlink:href="#J"/></g><path fill="#333" d="M197 0v-115H63V0H30v-248h33v105h134v-105h34V0h-34" id="Z"/><path fill="#333" d="M24 0v-261h32V0H24" id="aa"/><g id="i"><use transform="matrix(0.05947632153027956,0,0,0.05947632153027956,0,0)" xlink:href="#Z"/><use transform="matrix(0.05947632153027956,0,0,0.05947632153027956,15.404367276342407,0)" xlink:href="#U"/><use transform="matrix(0.05947632153027956,0,0,0.05947632153027956,27.29963158239832,0)" xlink:href="#F"/><use transform="matrix(0.05947632153027956,0,0,0.05947632153027956,39.194895888454234,0)" xlink:href="#Y"/><use transform="matrix(0.05947632153027956,0,0,0.05947632153027956,51.09016019451015,0)" xlink:href="#aa"/><use transform="matrix(0.05947632153027956,0,0,0.05947632153027956,55.788789595402235,0)" xlink:href="#J"/><use transform="matrix(0.05947632153027956,0,0,0.05947632153027956,67.68405390145814,0)" xlink:href="#R"/></g><g id="j"><use transform="matrix(0.05947632153027956,0,0,0.05947632153027956,0,0)" xlink:href="#L"/><use transform="matrix(0.05947632153027956,0,0,0.05947632153027956,10.705737875450321,0)" xlink:href="#M"/><use transform="matrix(0.05947632153027956,0,0,0.05947632153027956,16.653370028478278,0)" xlink:href="#N"/></g><path fill="#333" d="M205 0l-28-72H64L36 0H1l101-248h38L239 0h-34zm-38-99l-47-123c-12 45-31 82-46 123h93" id="ab"/><path fill="#333" d="M84 4C-5 8 30-112 23-190h32v120c0 31 7 50 39 49 72-2 45-101 50-169h31l1 190h-30c-1-10 1-25-2-33-11 22-28 36-60 37" id="ac"/><path fill="#333" d="M106-169C34-169 62-67 57 0H25v-261h32l-1 103c12-21 28-36 61-36 89 0 53 116 60 194h-32v-121c2-32-8-49-39-48" id="ad"/><g id="k"><use transform="matrix(0.05947632153027956,0,0,0.05947632153027956,0,0)" xlink:href="#ab"/><use transform="matrix(0.05947632153027956,0,0,0.05947632153027956,14.274317167267094,0)" xlink:href="#ac"/><use transform="matrix(0.05947632153027956,0,0,0.05947632153027956,26.169581473323007,0)" xlink:href="#M"/><use transform="matrix(0.05947632153027956,0,0,0.05947632153027956,32.11721362635096,0)" xlink:href="#ad"/></g><path fill="#333" d="M240 0l2-218c-23 76-54 145-80 218h-23L58-218 59 0H30v-248h44l77 211c21-75 51-140 76-211h43V0h-30" id="ae"/><path fill="#333" d="M206 0h-36l-40-164L89 0H53L-1-190h32L70-26l43-164h34l41 164 42-164h31" id="af"/><g id="l"><use transform="matrix(0.05947632153027956,0,0,0.05947632153027956,0,0)" xlink:href="#ae"/><use transform="matrix(0.05947632153027956,0,0,0.05947632153027956,17.783420137553588,0)" xlink:href="#E"/><use transform="matrix(0.05947632153027956,0,0,0.05947632153027956,22.482049538445672,0)" xlink:href="#Y"/><use transform="matrix(0.05947632153027956,0,0,0.05947632153027956,34.377313844501586,0)" xlink:href="#Y"/><use transform="matrix(0.05947632153027956,0,0,0.05947632153027956,46.2725781505575,0)" xlink:href="#aa"/><use transform="matrix(0.05947632153027956,0,0,0.05947632153027956,50.97120755144959,0)" xlink:href="#J"/><use transform="matrix(0.05947632153027956,0,0,0.05947632153027956,62.866471857505495,0)" xlink:href="#af"/><use transform="matrix(0.05947632153027956,0,0,0.05947632153027956,78.27083913384791,0)" xlink:href="#U"/><use transform="matrix(0.05947632153027956,0,0,0.05947632153027956,90.16610343990382,0)" xlink:href="#R"/><use transform="matrix(0.05947632153027956,0,0,0.05947632153027956,97.24378570200709,0)" xlink:href="#J"/></g><path fill="#1775e5" d="M67 3c-93-2-31-127-26-193h32L48-50c-3 39 53 32 70 12 30-34 30-101 43-152h32L157 0h-30c1-10 6-24 4-33-14 20-29 37-64 36" id="ag"/><path fill="#1775e5" d="M55-144c13 50 104 24 104 88C159 21 15 23 1-39l26-10c6 40 102 42 102-4-13-50-104-23-104-87 0-71 143-71 148-8l-29 4c-5-35-85-37-89 0" id="ah"/><path fill="#1775e5" d="M111-194c62-3 86 47 72 106H45c-7 38 6 69 45 68 27-1 43-14 53-32l24 11C152-15 129 4 87 4 38 3 12-23 12-71c0-70 32-119 99-123zm44 81c14-66-71-72-95-28-4 8-8 17-11 28h106" id="ai"/><path fill="#1775e5" d="M66-151c12-25 30-51 66-40l-6 26C45-176 58-65 38 0H6l36-190h30" id="aj"/><g id="n"><use transform="matrix(0.05947632153027956,0,0,0.05947632153027956,0,0)" xlink:href="#ag"/><use transform="matrix(0.05947632153027956,0,0,0.05947632153027956,11.895264306055912,0)" xlink:href="#ah"/><use transform="matrix(0.05947632153027956,0,0,0.05947632153027956,22.60100218150623,0)" xlink:href="#ai"/><use transform="matrix(0.05947632153027956,0,0,0.05947632153027956,34.496266487562146,0)" xlink:href="#aj"/></g><path fill="#1775e5" d="M67-158c22-48 132-52 116 29L158 0h-32l25-140c3-38-53-32-70-12C52-117 51-52 38 0H6l36-190h30" id="ak"/><path fill="#1775e5" d="M30-147c31-64 166-65 159 27C183-49 158 1 86 4 9 8 1-88 30-147zM88-20c53 0 68-48 68-100 0-31-11-51-44-50-52 1-68 46-68 97 0 32 13 53 44 53" id="al"/><path fill="#1775e5" d="M51-54c-9 22 5 41 31 30L79-1C43 14 10-4 19-52l22-115H19l5-23h22l19-43h21l-9 43h35l-4 23H73" id="am"/><g id="o"><use transform="matrix(0.05947632153027956,0,0,0.05947632153027956,0,0)" xlink:href="#ak"/><use transform="matrix(0.05947632153027956,0,0,0.05947632153027956,11.895264306055912,0)" xlink:href="#al"/><use transform="matrix(0.05947632153027956,0,0,0.05947632153027956,23.790528612111824,0)" xlink:href="#am"/></g><path fill="#1775e5" d="M165-48c-4 18 1 34 23 27l-3 20c-29 8-62 0-52-35h-2C116-14 99 4 63 4 30 4 8-16 8-49c0-68 71-67 138-67 10-26 0-56-31-54-26 1-42 9-47 31l-32-5c8-67 160-71 144 15-5 28-9 54-15 81zM42-50c3 52 80 24 89-6 7-12 7-24 11-38-47 1-103-4-100 44" id="an"/><path fill="#1775e5" d="M67-158c15-20 31-36 64-36 94 0 33 127 27 194h-32l25-140c3-38-53-32-70-12C52-117 51-51 37 0H6l51-261h31" id="ao"/><path fill="#1775e5" d="M50-231l6-30h32l-6 30H50zM6 0l37-190h31L37 0H6" id="ap"/><path fill="#1775e5" d="M-8 0l5-24 140-142H31l5-24h145l-5 24L36-24h119l-5 24H-8" id="aq"/><path fill="#1775e5" d="M133-28C103 26-5 8 13-77c13-62 24-115 90-117 29-1 46 15 56 35l19-102h32L160 0h-30zM45-64c-2 27 10 43 35 43 54-1 69-50 69-103 0-29-15-46-42-46-53-1-58 58-62 106" id="ar"/><g id="p"><use transform="matrix(0.05947632153027956,0,0,0.05947632153027956,0,0)" xlink:href="#an"/><use transform="matrix(0.05947632153027956,0,0,0.05947632153027956,11.895264306055912,0)" xlink:href="#ag"/><use transform="matrix(0.05947632153027956,0,0,0.05947632153027956,23.790528612111824,0)" xlink:href="#am"/><use transform="matrix(0.05947632153027956,0,0,0.05947632153027956,29.73816076513978,0)" xlink:href="#ao"/><use transform="matrix(0.05947632153027956,0,0,0.05947632153027956,41.633425071195695,0)" xlink:href="#al"/><use transform="matrix(0.05947632153027956,0,0,0.05947632153027956,53.52868937725161,0)" xlink:href="#aj"/><use transform="matrix(0.05947632153027956,0,0,0.05947632153027956,60.606371639354876,0)" xlink:href="#ap"/><use transform="matrix(0.05947632153027956,0,0,0.05947632153027956,65.30500104024696,0)" xlink:href="#aq"/><use transform="matrix(0.05947632153027956,0,0,0.05947632153027956,76.01073891569729,0)" xlink:href="#ai"/><use transform="matrix(0.05947632153027956,0,0,0.05947632153027956,87.9060032217532,0)" xlink:href="#ar"/></g><path fill="#333" d="M30 0v-248h33v221h125V0H30" id="as"/><path fill="#333" d="M177-190C167-65 218 103 67 71c-23-6-38-20-44-43l32-5c15 47 100 32 89-28v-30C133-14 115 1 83 1 29 1 15-40 15-95c0-56 16-97 71-98 29-1 48 16 59 35 1-10 0-23 2-32h30zM94-22c36 0 50-32 50-73 0-42-14-75-50-75-39 0-46 34-46 75s6 73 46 73" id="at"/><g id="q"><use transform="matrix(0.05947632153027956,0,0,0.05947632153027956,0,0)" xlink:href="#as"/><use transform="matrix(0.05947632153027956,0,0,0.05947632153027956,11.895264306055912,0)" xlink:href="#H"/><use transform="matrix(0.05947632153027956,0,0,0.05947632153027956,23.790528612111824,0)" xlink:href="#at"/><use transform="matrix(0.05947632153027956,0,0,0.05947632153027956,35.685792918167735,0)" xlink:href="#at"/><use transform="matrix(0.05947632153027956,0,0,0.05947632153027956,47.58105722422365,0)" xlink:href="#J"/><use transform="matrix(0.05947632153027956,0,0,0.05947632153027956,59.47632153027956,0)" xlink:href="#R"/></g><path fill="#333" d="M135-143c-3-34-86-38-87 0 15 53 115 12 119 90S17 21 10-45l28-5c4 36 97 45 98 0-10-56-113-15-118-90-4-57 82-63 122-42 12 7 21 19 24 35" id="au"/><path fill="#333" d="M33-154v-36h34v36H33zM33 0v-36h34V0H33" id="av"/><g id="r"><use transform="matrix(0.0528678413602485,0,0,0.0528678413602485,0,0)" xlink:href="#au"/><use transform="matrix(0.0528678413602485,0,0,0.0528678413602485,9.51621144484473,0)" xlink:href="#M"/><use transform="matrix(0.0528678413602485,0,0,0.0528678413602485,14.802995580869581,0)" xlink:href="#U"/><use transform="matrix(0.0528678413602485,0,0,0.0528678413602485,25.376563852919283,0)" xlink:href="#M"/><use transform="matrix(0.0528678413602485,0,0,0.0528678413602485,30.663347988944132,0)" xlink:href="#ac"/><use transform="matrix(0.0528678413602485,0,0,0.0528678413602485,41.23691626099383,0)" xlink:href="#au"/><use transform="matrix(0.0528678413602485,0,0,0.0528678413602485,50.75312770583856,0)" xlink:href="#av"/></g><path fill="#333" d="M155-56V0h-30v-56H8v-25l114-167h33v167h35v25h-35zm-30-156c-27 46-58 90-88 131h88v-131" id="aw"/><path fill="#333" d="M101-251c68 0 85 55 85 127S166 4 100 4C33 4 14-52 14-124c0-73 17-127 87-127zm-1 229c47 0 54-49 54-102s-4-102-53-102c-51 0-55 48-55 102 0 53 5 102 54 102" id="ax"/><path fill="#333" d="M27 0v-27h64v-190l-56 39v-29l58-41h29v221h61V0H27" id="ay"/><g id="s"><use transform="matrix(0.0528678413602485,0,0,0.0528678413602485,0,0)" xlink:href="#aw"/><use transform="matrix(0.0528678413602485,0,0,0.0528678413602485,10.5735682720497,0)" xlink:href="#ax"/><use transform="matrix(0.0528678413602485,0,0,0.0528678413602485,21.1471365440994,0)" xlink:href="#ay"/></g><path fill="#333" d="M233-177c-1 41-23 64-60 70L243 0h-38l-65-103H63V0H30v-248c88 3 205-21 203 71zM63-129c60-2 137 13 137-47 0-61-80-42-137-45v92" id="az"/><path fill="#333" d="M145-31C134-9 116 4 85 4 32 4 16-35 15-94c0-59 17-99 70-100 32-1 48 14 60 33 0-11-1-24 2-32h30l-1 268h-32zM93-21c41 0 51-33 51-76s-8-73-50-73c-40 0-46 35-46 75s5 74 45 74" id="aA"/><g id="t"><use transform="matrix(0.05947632153027956,0,0,0.05947632153027956,0,0)" xlink:href="#az"/><use transform="matrix(0.05947632153027956,0,0,0.05947632153027956,15.404367276342407,0)" xlink:href="#J"/><use transform="matrix(0.05947632153027956,0,0,0.05947632153027956,27.29963158239832,0)" xlink:href="#aA"/><use transform="matrix(0.05947632153027956,0,0,0.05947632153027956,39.194895888454234,0)" xlink:href="#ac"/><use transform="matrix(0.05947632153027956,0,0,0.05947632153027956,51.09016019451015,0)" xlink:href="#J"/><use transform="matrix(0.05947632153027956,0,0,0.05947632153027956,62.985424500566054,0)" xlink:href="#au"/><use transform="matrix(0.05947632153027956,0,0,0.05947632153027956,73.69116237601638,0)" xlink:href="#M"/></g><g id="u"><use transform="matrix(0.05947632153027956,0,0,0.05947632153027956,0,0)" xlink:href="#az"/><use transform="matrix(0.05947632153027956,0,0,0.05947632153027956,15.404367276342407,0)" xlink:href="#J"/><use transform="matrix(0.05947632153027956,0,0,0.05947632153027956,27.29963158239832,0)" xlink:href="#au"/><use transform="matrix(0.05947632153027956,0,0,0.05947632153027956,38.005369457848644,0)" xlink:href="#X"/><use transform="matrix(0.05947632153027956,0,0,0.05947632153027956,49.90063376390456,0)" xlink:href="#H"/><use transform="matrix(0.05947632153027956,0,0,0.05947632153027956,61.79589806996048,0)" xlink:href="#F"/><use transform="matrix(0.05947632153027956,0,0,0.05947632153027956,73.69116237601638,0)" xlink:href="#au"/><use transform="matrix(0.05947632153027956,0,0,0.05947632153027956,84.3969002514667,0)" xlink:href="#J"/></g><path fill="#333" d="M127-220V0H93v-220H8v-28h204v28h-85" id="aB"/><path fill="#333" d="M30-248c87 1 191-15 191 75 0 78-77 80-158 76V0H30v-248zm33 125c57 0 124 11 124-50 0-59-68-47-124-48v98" id="aC"/><g id="v"><use transform="matrix(0.0528678413602485,0,0,0.0528678413602485,0,0)" xlink:href="#Z"/><use transform="matrix(0.0528678413602485,0,0,0.0528678413602485,13.692770912304363,0)" xlink:href="#aB"/><use transform="matrix(0.0528678413602485,0,0,0.0528678413602485,25.270828170198783,0)" xlink:href="#aB"/><use transform="matrix(0.0528678413602485,0,0,0.0528678413602485,36.848885428093205,0)" xlink:href="#aC"/></g><g id="w"><use transform="matrix(0.0528678413602485,0,0,0.0528678413602485,0,0)" xlink:href="#aw"/><use transform="matrix(0.0528678413602485,0,0,0.0528678413602485,10.5735682720497,0)" xlink:href="#ax"/><use transform="matrix(0.0528678413602485,0,0,0.0528678413602485,21.1471365440994,0)" xlink:href="#ay"/></g><g id="x"><use transform="matrix(0.0528678413602485,0,0,0.0528678413602485,0,0)" xlink:href="#Q"/><use transform="matrix(0.0528678413602485,0,0,0.0528678413602485,13.692770912304363,0)" xlink:href="#H"/><use transform="matrix(0.0528678413602485,0,0,0.0528678413602485,24.266339184354063,0)" xlink:href="#M"/></g><path fill="#333" d="M9 0v-24l116-142H16v-24h144v24L44-24h123V0H9" id="aD"/><g id="y"><use transform="matrix(0.0528678413602485,0,0,0.0528678413602485,0,0)" xlink:href="#ab"/><use transform="matrix(0.0528678413602485,0,0,0.0528678413602485,12.688281926459641,0)" xlink:href="#ac"/><use transform="matrix(0.0528678413602485,0,0,0.0528678413602485,23.261850198509343,0)" xlink:href="#M"/><use transform="matrix(0.0528678413602485,0,0,0.0528678413602485,28.548634334534192,0)" xlink:href="#ad"/><use transform="matrix(0.0528678413602485,0,0,0.0528678413602485,39.12220260658389,0)" xlink:href="#H"/><use transform="matrix(0.0528678413602485,0,0,0.0528678413602485,49.69577087863359,0)" xlink:href="#R"/><use transform="matrix(0.0528678413602485,0,0,0.0528678413602485,55.98704400050317,0)" xlink:href="#E"/><use transform="matrix(0.0528678413602485,0,0,0.0528678413602485,60.163603467962794,0)" xlink:href="#aD"/><use transform="matrix(0.0528678413602485,0,0,0.0528678413602485,69.67981491280753,0)" xlink:href="#J"/><use transform="matrix(0.0528678413602485,0,0,0.0528678413602485,80.25338318485723,0)" xlink:href="#Y"/></g><path fill="#333" d="M140-251c81 0 123 46 123 126C263-46 219 4 140 4 59 4 17-45 17-125s42-126 123-126zm0 227c63 0 89-41 89-101s-29-99-89-99c-61 0-89 39-89 99S79-25 140-24" id="aE"/><g id="z"><use transform="matrix(0.0528678413602485,0,0,0.0528678413602485,0,0)" xlink:href="#aC"/><use transform="matrix(0.0528678413602485,0,0,0.0528678413602485,12.688281926459641,0)" xlink:href="#aE"/><use transform="matrix(0.0528678413602485,0,0,0.0528678413602485,27.491277507329222,0)" xlink:href="#V"/><use transform="matrix(0.0528678413602485,0,0,0.0528678413602485,40.17955943378887,0)" xlink:href="#aB"/></g><path fill="#333" d="M0 4l72-265h28L28 4H0" id="aF"/><g id="A"><use transform="matrix(0.0528678413602485,0,0,0.0528678413602485,0,0)" xlink:href="#aF"/><use transform="matrix(0.0528678413602485,0,0,0.0528678413602485,5.28678413602485,0)" xlink:href="#H"/><use transform="matrix(0.0528678413602485,0,0,0.0528678413602485,15.86035240807455,0)" xlink:href="#R"/><use transform="matrix(0.0528678413602485,0,0,0.0528678413602485,22.151625529944123,0)" xlink:href="#Y"/><use transform="matrix(0.0528678413602485,0,0,0.0528678413602485,32.725193801993825,0)" xlink:href="#J"/><use transform="matrix(0.0528678413602485,0,0,0.0528678413602485,43.29876207404352,0)" xlink:href="#R"/><use transform="matrix(0.0528678413602485,0,0,0.0528678413602485,49.590035195913096,0)" xlink:href="#aF"/></g><path fill="#1775e5" d="M6 0l50-261h32L37 0H6" id="aG"/><path fill="#1775e5" d="M103-194c29 0 47 14 56 36 2-11 5-23 8-32h30L160-5C157 61 82 97 21 62 9 55 4 45 1 30l28-7c7 42 83 31 92-3 4-16 9-38 13-55-13 20-29 36-62 36-40 0-60-25-60-64 0-71 23-131 91-131zm4 24c-53 0-58 54-61 104-2 27 10 44 36 44 49 0 65-50 67-102 1-29-15-46-42-46" id="aH"/><g id="B"><use transform="matrix(0.05947632153027956,0,0,0.05947632153027956,0,0)" xlink:href="#aG"/><use transform="matrix(0.05947632153027956,0,0,0.05947632153027956,4.698629400892085,0)" xlink:href="#al"/><use transform="matrix(0.05947632153027956,0,0,0.05947632153027956,16.593893706948,0)" xlink:href="#aH"/></g><path fill="#1775e5" d="M67-162c32-53 139-36 121 50C175-51 163 2 97 4 68 4 52-11 42-31 38 6 28 39 22 75H-9l50-265h29c-1 10 0 20-3 28zm89 36c0-26-10-43-35-43-54 0-67 50-69 103-1 29 14 45 42 46 53 0 62-58 62-106" id="aI"/><g id="C"><use transform="matrix(0.05947632153027956,0,0,0.05947632153027956,0,0)" xlink:href="#aj"/><use transform="matrix(0.05947632153027956,0,0,0.05947632153027956,7.077682262103268,0)" xlink:href="#ai"/><use transform="matrix(0.05947632153027956,0,0,0.05947632153027956,18.97294656815918,0)" xlink:href="#ah"/><use transform="matrix(0.05947632153027956,0,0,0.05947632153027956,29.6786844436095,0)" xlink:href="#aI"/><use transform="matrix(0.05947632153027956,0,0,0.05947632153027956,41.57394874966541,0)" xlink:href="#al"/><use transform="matrix(0.05947632153027956,0,0,0.05947632153027956,53.469213055721326,0)" xlink:href="#ak"/><use transform="matrix(0.05947632153027956,0,0,0.05947632153027956,65.36447736177723,0)" xlink:href="#ah"/><use transform="matrix(0.05947632153027956,0,0,0.05947632153027956,76.07021523722756,0)" xlink:href="#ai"/></g><path fill="#1775e5" d="M133-28C103 26-5 8 13-77c13-62 24-115 90-117 29-1 46 15 56 35 2-12 6-24 8-34h31L144 75h-31zM45-64c-2 27 10 43 35 43 54-1 69-50 69-103 0-29-15-46-42-46-53-1-58 58-62 106" id="aJ"/><g id="D"><use transform="matrix(0.05947632153027956,0,0,0.05947632153027956,0,0)" xlink:href="#aj"/><use transform="matrix(0.05947632153027956,0,0,0.05947632153027956,7.077682262103268,0)" xlink:href="#ai"/><use transform="matrix(0.05947632153027956,0,0,0.05947632153027956,18.97294656815918,0)" xlink:href="#aJ"/><use transform="matrix(0.05947632153027956,0,0,0.05947632153027956,30.86821087421509,0)" xlink:href="#ag"/><use transform="matrix(0.05947632153027956,0,0,0.05947632153027956,42.76347518027101,0)" xlink:href="#ai"/><use transform="matrix(0.05947632153027956,0,0,0.05947632153027956,54.65873948632692,0)" xlink:href="#ah"/><use transform="matrix(0.05947632153027956,0,0,0.05947632153027956,65.36447736177725,0)" xlink:href="#am"/></g></defs></g></svg>