<svg xmlns="http://www.w3.org/2000/svg" xmlns:xlink="http://www.w3.org/1999/xlink" xmlns:lucid="lucid" width="1046" height="726"><g transform="translate(-337 -117)" lucid:page-tab-id="0_0"><path d="M0 0h1870.87v1322.83H0z" fill="#fff"/><g filter="url(#a)"><path d="M360 461c0-.55.45-1 1-1h238c.55 0 1 .45 1 1v98c0 .55-.45 1-1 1H361c-.55 0-1-.45-1-1z" stroke="#000" stroke-opacity="0" stroke-width="3" fill="url(#b)"/><use xlink:href="#c" transform="matrix(1,0,0,1,372,471.99999999999994) translate(48.07407407407408 42.70833333333333)"/></g><g filter="url(#d)"><path d="M760 286c0-3.3 2.7-6 6-6h228c3.3 0 6 2.7 6 6v88c0 3.3-2.7 6-6 6H766c-3.3 0-6-2.7-6-6z" stroke="#000" stroke-opacity="0" stroke-width="3" fill="#fff"/><use xlink:href="#e" transform="matrix(1,0,0,1,772,292) translate(86.51851851851852 42.70833333333333)"/></g><g filter="url(#a)"><path d="M1120 286c0-3.3 2.7-6 6-6h228c3.3 0 6 2.7 6 6v88c0 3.3-2.7 6-6 6h-228c-3.3 0-6-2.7-6-6z" stroke="#000" stroke-opacity="0" stroke-width="3" fill="url(#f)"/><use xlink:href="#g" transform="matrix(1,0,0,1,1132,292) translate(44.37037037037038 42.70833333333333)"/><use xlink:href="#h" transform="matrix(1,0,0,1,1132,292) translate(153.85185185185185 42.70833333333333)"/></g><g filter="url(#a)"><path d="M1120 146c0-3.3 2.7-6 6-6h228c3.3 0 6 2.7 6 6v88c0 3.3-2.7 6-6 6h-228c-3.3 0-6-2.7-6-6z" stroke="#000" stroke-opacity="0" stroke-width="3" fill="url(#i)"/><use xlink:href="#g" transform="matrix(1,0,0,1,1132,152) translate(44.37037037037038 42.70833333333333)"/><use xlink:href="#j" transform="matrix(1,0,0,1,1132,152) translate(153.85185185185185 42.70833333333333)"/></g><g filter="url(#a)"><path d="M1120 466c0-3.3 2.7-6 6-6h228c3.3 0 6 2.7 6 6v88c0 3.3-2.7 6-6 6h-228c-3.3 0-6-2.7-6-6z" stroke="#000" stroke-opacity="0" stroke-width="3" fill="url(#k)"/><use xlink:href="#g" transform="matrix(1,0,0,1,1132,471.99999999999994) translate(43.666666666666686 42.70833333333333)"/><use xlink:href="#l" transform="matrix(1,0,0,1,1132,471.99999999999994) translate(153.14814814814815 42.70833333333333)"/></g><path d="M681 504.13l-.92 3.42-2.53 2.53-3.42.92H601v-2h72.87l2.64-.7 1.8-1.8.7-2.63v-69.2h2zM758.18 331h-72.05l-2.64.7-1.8 1.8-.7 2.63v69.2h-2v-69.46l.92-3.42 2.53-2.53 3.42-.92h72.3z" fill="#5e5e5e"/><path d="M601.03 511H600v-2h1.03zM760 330l-18.67 11.04-1.02-1.72 15.77-9.32-15.76-9.32 1.03-1.72z" fill="#5e5e5e"/><use xlink:href="#m" transform="matrix(1,0,0,1,656.9475308641976,405.3333333333333) translate(0 19.555555555555557)"/><path d="M1001 330h53c3.3 0 6-2.7 6-6V196c0-3.3 2.7-6 6-6h52.18" stroke="#5e5e5e" stroke-width="2" fill="none"/><path d="M1001.03 331H1000v-2h1.03z" fill="#5e5e5e"/><path d="M1100.82 200.18l17.22-10.18-17.22-10.18M1001 330h117.18" stroke="#5e5e5e" stroke-width="2" fill="none"/><path d="M1001.03 331H1000v-2h1.03z" fill="#5e5e5e"/><path d="M1100.82 340.18l17.22-10.18-17.22-10.18" stroke="#5e5e5e" stroke-width="2" fill="none"/><path d="M908.3 511H601v-2h307.3zm209.88 0H998.36v-2h119.82z" fill="#5e5e5e"/><path d="M601.03 511H600v-2h1.03zM1120 510l-18.67 11.04-1.02-1.72 15.77-9.32-15.76-9.32 1.03-1.72z" fill="#5e5e5e"/><use xlink:href="#n" transform="matrix(1,0,0,1,908.3024691358025,496.66666666666663) translate(0 17.77777777777778)"/><g filter="url(#a)"><path d="M1120 726c0-3.3 2.7-6 6-6h228c3.3 0 6 2.7 6 6v88c0 3.3-2.7 6-6 6h-228c-3.3 0-6-2.7-6-6z" stroke="#000" stroke-opacity="0" stroke-width="3" fill="url(#o)"/><use xlink:href="#p" transform="matrix(1,0,0,1,1132,732) translate(85.07407407407408 42.70833333333333)"/></g><path d="M861 763.87l.7 2.64 1.8 1.8 2.63.7h235.37v2H865.87l-3.42-.92-2.53-2.53-.92-3.42v-110.8h2zm-3.45-253.95l2.53 2.53.92 3.42v110.8h-2V516.13l-.7-2.64-1.8-1.8-2.63-.7H601v-2h253.13z" fill="#5e5e5e"/><path d="M601.03 511H600v-2h1.03zM1116.76 770l-14.26 4.64v-9.28z" fill="#5e5e5e"/><path d="M1120 770l-18.5 6v-12zm-16.5 3.26l10.03-3.26-10.03-3.26z" fill="#5e5e5e"/><use xlink:href="#q" transform="matrix(1,0,0,1,813.179012345679,626.6666666666666) translate(0 17.77777777777778)"/><use xlink:href="#r" transform="matrix(1,0,0,1,813.179012345679,626.6666666666666) translate(12.345679012345679 17.77777777777778)"/><defs><linearGradient gradientUnits="userSpaceOnUse" id="b" x1="360" y1="560" x2="600" y2="560"><stop offset="0%" stop-color="#ebb275"/><stop offset="50.42%" stop-color="#ec9639"/><stop offset="100%" stop-color="#ef8d22"/></linearGradient><path fill="#333" d="M30 0v-248h187v28H63v79h144v27H63v87h162V0H30" id="s"/><path fill="#333" d="M117-194c89-4 53 116 60 194h-32v-121c0-31-8-49-39-48C34-167 62-67 57 0H25l-1-190h30c1 10-1 24 2 32 11-22 29-35 61-36" id="t"/><path fill="#333" d="M59-47c-2 24 18 29 38 22v24C64 9 27 4 27-40v-127H5v-23h24l9-43h21v43h35v23H59v120" id="u"/><path fill="#333" d="M114-163C36-179 61-72 57 0H25l-1-190h30c1 12-1 29 2 39 6-27 23-49 58-41v29" id="v"/><path fill="#333" d="M179-190L93 31C79 59 56 82 12 73V49c39 6 53-20 64-50L1-190h34L92-34l54-156h33" id="w"/><path fill="#333" d="M115-194c55 1 70 41 70 98S169 2 115 4C84 4 66-9 55-30l1 105H24l-1-265h31l2 30c10-21 28-34 59-34zm-8 174c40 0 45-34 45-75s-6-73-45-74c-42 0-51 32-51 76 0 43 10 73 51 73" id="x"/><path fill="#333" d="M100-194c62-1 85 37 85 99 1 63-27 99-86 99S16-35 15-95c0-66 28-99 85-99zM99-20c44 1 53-31 53-75 0-43-8-75-51-75s-53 32-53 75 10 74 51 75" id="y"/><path fill="#333" d="M24-231v-30h32v30H24zM24 0v-190h32V0H24" id="z"/><g id="c"><use transform="matrix(0.07407407407407407,0,0,0.07407407407407407,0,0)" xlink:href="#s"/><use transform="matrix(0.07407407407407407,0,0,0.07407407407407407,17.77777777777778,0)" xlink:href="#t"/><use transform="matrix(0.07407407407407407,0,0,0.07407407407407407,32.592592592592595,0)" xlink:href="#u"/><use transform="matrix(0.07407407407407407,0,0,0.07407407407407407,40,0)" xlink:href="#v"/><use transform="matrix(0.07407407407407407,0,0,0.07407407407407407,48.814814814814824,0)" xlink:href="#w"/><use transform="matrix(0.07407407407407407,0,0,0.07407407407407407,62.14814814814815,0)" xlink:href="#x"/><use transform="matrix(0.07407407407407407,0,0,0.07407407407407407,76.96296296296296,0)" xlink:href="#y"/><use transform="matrix(0.07407407407407407,0,0,0.07407407407407407,91.77777777777777,0)" xlink:href="#z"/><use transform="matrix(0.07407407407407407,0,0,0.07407407407407407,97.62962962962962,0)" xlink:href="#t"/><use transform="matrix(0.07407407407407407,0,0,0.07407407407407407,112.44444444444441,0)" xlink:href="#u"/></g><filter id="a" filterUnits="objectBoundingBox" x="-.06" y="-.12" width="1.12" height="1.28"><feOffset result="offOut" in="SourceAlpha" dy="2"/><feGaussianBlur result="blurOut" in="offOut" stdDeviation="7"/><feColorMatrix result="colorOut" in="blurOut" values="0 0 0 0 0 0 0 0 0 0 0 0 0 0 0 0 0 0 0.5019607843137255 0"/><feBlend in="SourceGraphic" in2="colorOut"/></filter><path fill="#333" d="M205 0l-28-72H64L36 0H1l101-248h38L239 0h-34zm-38-99l-47-123c-12 45-31 82-46 123h93" id="A"/><path fill="#333" d="M30-248c87 1 191-15 191 75 0 78-77 80-158 76V0H30v-248zm33 125c57 0 124 11 124-50 0-59-68-47-124-48v98" id="B"/><path fill="#333" d="M33 0v-248h34V0H33" id="C"/><g id="e"><use transform="matrix(0.07407407407407407,0,0,0.07407407407407407,0,0)" xlink:href="#A"/><use transform="matrix(0.07407407407407407,0,0,0.07407407407407407,17.77777777777778,0)" xlink:href="#B"/><use transform="matrix(0.07407407407407407,0,0,0.07407407407407407,35.55555555555556,0)" xlink:href="#C"/></g><filter id="d" filterUnits="objectBoundingBox" x="-.05" y="-.12" width="1.12" height="1.28"><feOffset result="offOut" in="SourceAlpha" dx="2.04" dy="2.2"/><feGaussianBlur result="blurOut" in="offOut" stdDeviation="7"/><feColorMatrix result="colorOut" in="blurOut" values="0 0 0 0 0 0 0 0 0 0 0 0 0 0 0 0 0 0 0.5019607843137255 0"/><feBlend in="SourceGraphic" in2="colorOut"/></filter><linearGradient gradientUnits="userSpaceOnUse" id="f" x1="1120" y1="380" x2="1360" y2="380"><stop offset="0%" stop-color="#ebb275"/><stop offset="50.42%" stop-color="#ec9639"/><stop offset="100%" stop-color="#ef8d22"/></linearGradient><path fill="#333" d="M63-220v92h138v28H63V0H30v-248h175v28H63" id="D"/><path fill="#333" d="M84 4C-5 8 30-112 23-190h32v120c0 31 7 50 39 49 72-2 45-101 50-169h31l1 190h-30c-1-10 1-25-2-33-11 22-28 36-60 37" id="E"/><path fill="#333" d="M96-169c-40 0-48 33-48 73s9 75 48 75c24 0 41-14 43-38l32 2c-6 37-31 61-74 61-59 0-76-41-82-99-10-93 101-131 147-64 4 7 5 14 7 22l-32 3c-4-21-16-35-41-35" id="F"/><g id="g"><use transform="matrix(0.07407407407407407,0,0,0.07407407407407407,0,0)" xlink:href="#D"/><use transform="matrix(0.07407407407407407,0,0,0.07407407407407407,16.22222222222222,0)" xlink:href="#E"/><use transform="matrix(0.07407407407407407,0,0,0.07407407407407407,31.037037037037035,0)" xlink:href="#t"/><use transform="matrix(0.07407407407407407,0,0,0.07407407407407407,45.85185185185185,0)" xlink:href="#F"/><use transform="matrix(0.07407407407407407,0,0,0.07407407407407407,59.185185185185176,0)" xlink:href="#u"/><use transform="matrix(0.07407407407407407,0,0,0.07407407407407407,66.59259259259258,0)" xlink:href="#z"/><use transform="matrix(0.07407407407407407,0,0,0.07407407407407407,72.44444444444443,0)" xlink:href="#y"/><use transform="matrix(0.07407407407407407,0,0,0.07407407407407407,87.25925925925924,0)" xlink:href="#t"/></g><path fill="#333" d="M160-131c35 5 61 23 61 61C221 17 115-2 30 0v-248c76 3 177-17 177 60 0 33-19 50-47 57zm-97-11c50-1 110 9 110-42 0-47-63-36-110-37v79zm0 115c55-2 124 14 124-45 0-56-70-42-124-44v89" id="G"/><use transform="matrix(0.07407407407407407,0,0,0.07407407407407407,0,0)" xlink:href="#G" id="h"/><linearGradient gradientUnits="userSpaceOnUse" id="i" x1="1120" y1="240" x2="1360" y2="240"><stop offset="0%" stop-color="#ebb275"/><stop offset="50.42%" stop-color="#ec9639"/><stop offset="100%" stop-color="#ef8d22"/></linearGradient><use transform="matrix(0.07407407407407407,0,0,0.07407407407407407,0,0)" xlink:href="#A" id="j"/><linearGradient gradientUnits="userSpaceOnUse" id="k" x1="1120" y1="560" x2="1360" y2="560"><stop offset="0%" stop-color="#ebb275"/><stop offset="50.42%" stop-color="#ec9639"/><stop offset="100%" stop-color="#ef8d22"/></linearGradient><path fill="#333" d="M212-179c-10-28-35-45-73-45-59 0-87 40-87 99 0 60 29 101 89 101 43 0 62-24 78-52l27 14C228-24 195 4 139 4 59 4 22-46 18-125c-6-104 99-153 187-111 19 9 31 26 39 46" id="H"/><use transform="matrix(0.07407407407407407,0,0,0.07407407407407407,0,0)" xlink:href="#H" id="l"/><path fill="#333" d="M0 4l72-265h28L28 4H0" id="I"/><path fill="#333" d="M141-36C126-15 110 5 73 4 37 3 15-17 15-53c-1-64 63-63 125-63 3-35-9-54-41-54-24 1-41 7-42 31l-33-3c5-37 33-52 76-52 45 0 72 20 72 64v82c-1 20 7 32 28 27v20c-31 9-61-2-59-35zM48-53c0 20 12 33 32 33 41-3 63-29 60-74-43 2-92-5-92 41" id="J"/><g id="m"><use transform="matrix(0.06790123456790123,0,0,0.06790123456790123,0,0)" xlink:href="#I"/><use transform="matrix(0.06790123456790123,0,0,0.06790123456790123,6.790123456790123,0)" xlink:href="#J"/><use transform="matrix(0.06790123456790123,0,0,0.06790123456790123,20.37037037037037,0)" xlink:href="#x"/><use transform="matrix(0.06790123456790123,0,0,0.06790123456790123,33.95061728395062,0)" xlink:href="#z"/><use transform="matrix(0.06790123456790123,0,0,0.06790123456790123,39.314814814814824,0)" xlink:href="#I"/></g><path fill="#333" d="M101-234c-31-9-42 10-38 44h38v23H63V0H32v-167H5v-23h27c-7-52 17-82 69-68v24" id="K"/><g id="n"><use transform="matrix(0.06172839506172839,0,0,0.06172839506172839,0,0)" xlink:href="#I"/><use transform="matrix(0.06172839506172839,0,0,0.06172839506172839,6.172839506172839,0)" xlink:href="#K"/><use transform="matrix(0.06172839506172839,0,0,0.06172839506172839,12.345679012345679,0)" xlink:href="#E"/><use transform="matrix(0.06172839506172839,0,0,0.06172839506172839,24.691358024691358,0)" xlink:href="#t"/><use transform="matrix(0.06172839506172839,0,0,0.06172839506172839,37.03703703703704,0)" xlink:href="#F"/><use transform="matrix(0.06172839506172839,0,0,0.06172839506172839,48.14814814814815,0)" xlink:href="#u"/><use transform="matrix(0.06172839506172839,0,0,0.06172839506172839,54.320987654320994,0)" xlink:href="#z"/><use transform="matrix(0.06172839506172839,0,0,0.06172839506172839,59.19753086419754,0)" xlink:href="#y"/><use transform="matrix(0.06172839506172839,0,0,0.06172839506172839,71.54320987654322,0)" xlink:href="#t"/><use transform="matrix(0.06172839506172839,0,0,0.06172839506172839,83.8888888888889,0)" xlink:href="#I"/></g><linearGradient gradientUnits="userSpaceOnUse" id="o" x1="1120" y1="820" x2="1360" y2="820"><stop offset="0%" stop-color="#ebb275"/><stop offset="50.42%" stop-color="#ec9639"/><stop offset="100%" stop-color="#ef8d22"/></linearGradient><path fill="#333" d="M185-189c-5-48-123-54-124 2 14 75 158 14 163 119 3 78-121 87-175 55-17-10-28-26-33-46l33-7c5 56 141 63 141-1 0-78-155-14-162-118-5-82 145-84 179-34 5 7 8 16 11 25" id="L"/><path fill="#333" d="M100-194c63 0 86 42 84 106H49c0 40 14 67 53 68 26 1 43-12 49-29l28 8c-11 28-37 45-77 45C44 4 14-33 15-96c1-61 26-98 85-98zm52 81c6-60-76-77-97-28-3 7-6 17-6 28h103" id="M"/><g id="p"><use transform="matrix(0.07407407407407407,0,0,0.07407407407407407,0,0)" xlink:href="#L"/><use transform="matrix(0.07407407407407407,0,0,0.07407407407407407,17.77777777777778,0)" xlink:href="#z"/><use transform="matrix(0.07407407407407407,0,0,0.07407407407407407,23.62962962962963,0)" xlink:href="#u"/><use transform="matrix(0.07407407407407407,0,0,0.07407407407407407,31.037037037037038,0)" xlink:href="#M"/></g><use transform="matrix(0.06172839506172839,0,0,0.06172839506172839,0,0)" xlink:href="#I" id="q"/><path fill="#333" d="M87 75C49 33 22-17 22-94c0-76 28-126 65-167h31c-38 41-64 92-64 168S80 34 118 75H87" id="N"/><path fill="#333" d="M85-194c31 0 48 13 60 33l-1-100h32l1 261h-30c-2-10 0-23-3-31C134-8 116 4 85 4 32 4 16-35 15-94c0-66 23-100 70-100zm9 24c-40 0-46 34-46 75 0 40 6 74 45 74 42 0 51-32 51-76 0-42-9-74-50-73" id="O"/><path fill="#333" d="M24 0v-261h32V0H24" id="P"/><path fill="#333" d="M33-261c38 41 65 92 65 168S71 34 33 75H2C39 34 66-17 66-93S39-220 2-261h31" id="Q"/><g id="r"><use transform="matrix(0.06172839506172839,0,0,0.06172839506172839,0,0)" xlink:href="#N"/><use transform="matrix(0.06172839506172839,0,0,0.06172839506172839,7.345679012345679,0)" xlink:href="#O"/><use transform="matrix(0.06172839506172839,0,0,0.06172839506172839,19.691358024691358,0)" xlink:href="#M"/><use transform="matrix(0.06172839506172839,0,0,0.06172839506172839,32.03703703703704,0)" xlink:href="#K"/><use transform="matrix(0.06172839506172839,0,0,0.06172839506172839,38.20987654320988,0)" xlink:href="#J"/><use transform="matrix(0.06172839506172839,0,0,0.06172839506172839,50.55555555555556,0)" xlink:href="#E"/><use transform="matrix(0.06172839506172839,0,0,0.06172839506172839,62.901234567901234,0)" xlink:href="#P"/><use transform="matrix(0.06172839506172839,0,0,0.06172839506172839,67.77777777777777,0)" xlink:href="#u"/><use transform="matrix(0.06172839506172839,0,0,0.06172839506172839,73.9506172839506,0)" xlink:href="#Q"/></g></defs></g></svg>