<svg xmlns="http://www.w3.org/2000/svg" xmlns:xlink="http://www.w3.org/1999/xlink" xmlns:lucid="lucid" width="1180" height="1013"><g transform="translate(-224 -135)" lucid:page-tab-id="0_0"><g filter="url(#a)"><path d="M372.42 180h144.83v144.83H372.42z" stroke="#000" stroke-opacity="0" stroke-width="3" fill="url(#b)"/><use xlink:href="#c" transform="matrix(1,0,0,1,377.41666666666674,185) translate(28.19661458333335 60.45572916666666)"/><use xlink:href="#d" transform="matrix(1,0,0,1,377.41666666666674,185) translate(96.46484375 60.45572916666666)"/><use xlink:href="#e" transform="matrix(1,0,0,1,377.41666666666674,185) translate(40.28645833333334 88.21614583333331)"/></g><g filter="url(#a)"><path d="M652.42 180h144.83v144.83H652.42z" stroke="#000" stroke-opacity="0" stroke-width="3" fill="url(#f)"/><use xlink:href="#g" transform="matrix(1,0,0,1,657.4166666666667,185) translate(27.018229166666686 60.45572916666666)"/><use xlink:href="#h" transform="matrix(1,0,0,1,657.4166666666667,185) translate(3.3072916666667 88.21614583333331)"/></g><g filter="url(#i)"><path d="M932.33 175h145v145h-145z" stroke="#000" stroke-opacity="0" stroke-width="3" fill="url(#j)"/><use xlink:href="#k" transform="matrix(1,0,0,1,937.3333333333335,179.99999999999991) translate(42.91536458333334 60.73697916666666)"/><use xlink:href="#h" transform="matrix(1,0,0,1,937.3333333333335,179.99999999999991) translate(3.8072916666667 88.49739583333331)"/></g><g filter="url(#l)"><path d="M1215.45 175h138.76v145h-138.75z" stroke="#000" stroke-opacity="0" stroke-width="3" fill="url(#m)"/><use xlink:href="#n" transform="matrix(1,0,0,1,1220.454861111111,179.99999999999991) translate(24.58463541666668 60.73697916666666)"/><use xlink:href="#o" transform="matrix(1,0,0,1,1220.454861111111,179.99999999999991) translate(21.05598958333335 88.49739583333331)"/></g><path d="M419.83 386c0-3.3 2.7-6 6-6h38c3.32 0 6 2.7 6 6v588c0 3.3-2.68 6-6 6h-38c-3.3 0-6-2.7-6-6z" stroke="#000" stroke-opacity="0" stroke-width="3" fill="#f1f1f1"/><path d="M444.83 325.83v4.43m0 8.86V348m0 8.85v8.86m0 8.87V379" stroke="#5e5e5e" stroke-width="2" fill="none"/><path d="M445.83 325.86h-2v-1.03h2M445.83 380h-2v-1.03h2" fill="#5e5e5e"/><path d="M699.83 426c0-3.3 2.7-6 6-6h38c3.32 0 6 2.7 6 6v508c0 3.3-2.68 6-6 6h-38c-3.3 0-6-2.7-6-6zM982.33 506c0-3.3 2.7-6 6-6h38c3.32 0 6 2.7 6 6v378c0 3.3-2.68 6-6 6h-38c-3.3 0-6-2.7-6-6zM1259.83 566c0-3.3 2.7-6 6-6h38c3.32 0 6 2.7 6 6v268c0 3.3-2.68 6-6 6h-38c-3.3 0-6-2.7-6-6z" stroke="#000" stroke-opacity="0" stroke-width="3" fill="#f1f1f1"/><path d="M1284.83 321v3.97m0 7.93v7.93m0 7.94v7.93m0 7.93v7.94m0 7.93v7.93m0 7.94v7.93m0 7.93v7.94m0 7.93v7.93m0 7.94v7.93m0 7.93v7.94m0 7.93v7.93m0 7.94v7.93m0 7.93v7.94m0 7.93v7.93m0 7.94v7.93m0 7.93V559" stroke="#5e5e5e" stroke-width="2" fill="none"/><path d="M1285.83 321.03h-2V320h2M1285.83 560h-2v-1.03h2" fill="#5e5e5e"/><path d="M1004.83 321v4.05m0 8.1v8.08m0 8.1v8.08m0 8.1v8.1m0 8.08v8.1m0 8.08v8.1m0 8.1v8.08m0 8.1v8.08m0 8.1v8.08m0 8.1v8.08m0 8.1v8.08m0 8.1V499" stroke="#5e5e5e" stroke-width="2" fill="none"/><path d="M1005.83 321.03h-2V320h2M1005.83 500h-2v-1.03h2" fill="#5e5e5e"/><path d="M724.83 325.83v3.9m0 7.75v7.76m0 7.77v7.77m0 7.76v7.77m0 7.76v7.77m0 7.76v7.75m0 7.77V419" stroke="#5e5e5e" stroke-width="2" fill="none"/><path d="M725.83 325.86h-2v-1.03h2M725.83 420h-2v-1.03h2" fill="#5e5e5e"/><path d="M261 412.73h157.02M261.03 412.73H260M400.65 422.9l17.22-10.17-17.22-10.18M470.83 449.33H698" stroke="#5e5e5e" stroke-width="2" fill="none"/><path d="M470.86 450.33h-1.03v-2h1.03" fill="#5e5e5e"/><path d="M680.65 459.5l17.22-10.17-17.22-10.18M750.83 535.1h229.7" stroke="#5e5e5e" stroke-width="2" fill="none"/><path d="M750.86 536.1h-1.03v-2h1.03" fill="#5e5e5e"/><path d="M963.15 545.27l17.22-10.18-17.22-10.2" stroke="#5e5e5e" stroke-width="2" fill="none"/><path d="M749.83 522.27c0-3.32 2.7-6 6-6h220.5c3.32 0 6 2.68 6 6v58.14c0 3.33-2.68 6-6 6h-220.5c-3.3 0-6-2.67-6-6z" stroke="#000" stroke-opacity="0" stroke-width="3" fill="#fff" fill-opacity="0"/><use xlink:href="#p" transform="matrix(1,0,0,1,754.8333333333335,521.2673611111111) translate(34.40581597222223 37.80164930555556)"/><use xlink:href="#q" transform="matrix(1,0,0,1,754.8333333333335,521.2673611111111) translate(141.3611111111111 37.80164930555556)"/><path d="M1033.33 616h224.7" stroke="#5e5e5e" stroke-width="2" fill="none"/><path d="M1033.36 617h-1.03v-2h1.03" fill="#5e5e5e"/><path d="M1240.65 626.18l17.22-10.18-17.22-10.18" stroke="#5e5e5e" stroke-width="2" fill="none"/><path d="M1284.83 620h50v160h-50z" stroke="#000" stroke-opacity="0" stroke-width="3" fill="#99d2f2" filter="url(#r)"/><path d="M989.83 540h50v70.15h-50z" stroke="#000" stroke-opacity="0" stroke-width="3" fill="#99d2f2" filter="url(#s)"/><path d="M1284.83 666c0-3.3 2.7-6 6-6h68c3.32 0 6 2.7 6 6v67.4c0 3.3-2.68 6-6 6h-68c-3.3 0-6-2.7-6-6z" stroke="#000" stroke-opacity="0" stroke-width="3" fill="#fff" fill-opacity="0"/><use xlink:href="#t" transform="matrix(1,0,0,1,1289.8333333333335,665) translate(0 19.038628472222225)"/><use xlink:href="#u" transform="matrix(1,0,0,1,1289.8333333333335,665) translate(0 42.17230902777778)"/><use xlink:href="#v" transform="matrix(1,0,0,1,1289.8333333333335,665) translate(0 65.30598958333333)"/><path d="M981.33 820H751.65" stroke="#5e5e5e" stroke-width="2" fill="none"/><path d="M982.33 821h-1.02v-2h1.03" fill="#5e5e5e"/><path d="M769 809.82L751.8 820l17.2 10.18" stroke="#5e5e5e" stroke-width="2" fill="none"/><path d="M989.83 554.13c0-3.3 2.7-6 6-6h68c3.32 0 6 2.7 6 6V596c0 3.33-2.68 6-6 6h-68c-3.3 0-6-2.67-6-6z" stroke="#000" stroke-opacity="0" stroke-width="3" fill="#fff" fill-opacity="0"/><use xlink:href="#w" transform="matrix(1,0,0,1,994.8333333333335,553.1336805555554) translate(0 18.739149305555554)"/><use xlink:href="#x" transform="matrix(1,0,0,1,994.8333333333335,553.1336805555554) translate(0 41.87282986111111)"/><path d="M1258.83 796h-224.68" stroke="#5e5e5e" stroke-width="2" fill="none"/><path d="M1259.83 797h-1.02v-2h1.03" fill="#5e5e5e"/><path d="M1051.5 785.82L1034.3 796l17.2 10.18" stroke="#5e5e5e" stroke-width="2" fill="none"/><path d="M748.5 794c0-3.3 2.7-6 6-6H975c3.3 0 6 2.7 6 6v58.15c0 3.3-2.7 6-6 6H754.5c-3.3 0-6-2.7-6-6z" stroke="#000" stroke-opacity="0" stroke-width="3" fill="#fff" fill-opacity="0"/><use xlink:href="#y" transform="matrix(1,0,0,1,753.5,793) translate(96.63454861111111 18.739149305555554)"/><use xlink:href="#z" transform="matrix(1,0,0,1,753.5,793) translate(60.34440104166668 55.75303819444444)"/><use xlink:href="#A" transform="matrix(1,0,0,1,753.5,793) translate(129.908203125 55.75303819444444)"/><path d="M698.83 902.67H471.65" stroke="#5e5e5e" stroke-width="2" fill="none"/><path d="M699.83 903.67h-1.02v-2h1.03" fill="#5e5e5e"/><path d="M489 892.5l-17.2 10.17 17.2 10.18M418.83 941.33h-157" stroke="#5e5e5e" stroke-width="2" fill="none"/><path d="M419.83 942.33h-1.02v-2h1.03" fill="#5e5e5e"/><path d="M279.18 931.15l-17.22 10.18 17.22 10.18" stroke="#5e5e5e" stroke-width="2" fill="none"/><path d="M227.33 909.88c0-3.3 2.7-6 6-6h228c3.32 0 6 2.7 6 6v58.15c0 3.3-2.68 6-6 6h-228c-3.3 0-6-2.7-6-6z" stroke="#000" stroke-opacity="0" stroke-width="3" fill="#fff" fill-opacity="0"/><use xlink:href="#B" transform="matrix(1,0,0,1,232.33333333333343,908.8802083333334) translate(67.7560763888889 18.739149305555554)"/><use xlink:href="#C" transform="matrix(1,0,0,1,232.33333333333343,908.8802083333334) translate(55.473090277777786 55.75303819444444)"/><use xlink:href="#D" transform="matrix(1,0,0,1,232.33333333333343,908.8802083333334) translate(109.11892361111111 55.75303819444444)"/><use xlink:href="#E" transform="matrix(1,0,0,1,232.33333333333343,908.8802083333334) translate(149.72222222222223 55.75303819444444)"/><path d="M220 386.6c0-3.3 2.7-6 6-6h228c3.3 0 6 2.7 6 6V454c0 3.3-2.7 6-6 6H226c-3.3 0-6-2.7-6-6z" stroke="#000" stroke-opacity="0" stroke-width="3" fill="#fff" fill-opacity="0"/><use xlink:href="#F" transform="matrix(1,0,0,1,225,385.5989583333334) translate(76.11111111111111 18.739149305555554)"/><use xlink:href="#G" transform="matrix(1,0,0,1,225,385.5989583333334) translate(56.52018229166668 55.75303819444444)"/><use xlink:href="#H" transform="matrix(1,0,0,1,225,385.5989583333334) translate(111.86957465277777 55.75303819444444)"/><path d="M467.33 875.85c0-3.3 2.7-6 6-6h220.5c3.32 0 6 2.7 6 6V934c0 3.3-2.68 6-6 6h-220.5c-3.3 0-6-2.7-6-6z" stroke="#000" stroke-opacity="0" stroke-width="3" fill="#fff" fill-opacity="0"/><use xlink:href="#y" transform="matrix(1,0,0,1,472.3333333333334,874.8524305555554) translate(96.63454861111111 18.739149305555554)"/><use xlink:href="#z" transform="matrix(1,0,0,1,472.3333333333334,874.8524305555554) translate(60.34440104166668 55.75303819444444)"/><use xlink:href="#A" transform="matrix(1,0,0,1,472.3333333333334,874.8524305555554) translate(129.908203125 55.75303819444444)"/><path d="M707.17 833.73h50v70.15h-50z" stroke="#000" stroke-opacity="0" stroke-width="3" fill="#99d2f2" filter="url(#s)"/><path d="M1032.33 769.6c0-3.33 2.7-6 6-6h215.5c3.32 0 6 2.67 6 6v58.13c0 3.32-2.68 6-6 6h-215.5c-3.3 0-6-2.68-6-6z" stroke="#000" stroke-opacity="0" stroke-width="3" fill="#fff" fill-opacity="0"/><use xlink:href="#y" transform="matrix(1,0,0,1,1037.3333333333335,768.5850694444446) translate(94.13454861111111 18.739149305555554)"/><use xlink:href="#z" transform="matrix(1,0,0,1,1037.3333333333335,768.5850694444446) translate(57.84440104166668 55.75303819444444)"/><use xlink:href="#A" transform="matrix(1,0,0,1,1037.3333333333335,768.5850694444446) translate(127.408203125 55.75303819444444)"/><path d="M467.33 435.85c0-3.3 2.7-6 6-6h220.5c3.32 0 6 2.7 6 6V494c0 3.3-2.68 6-6 6h-220.5c-3.3 0-6-2.7-6-6z" stroke="#000" stroke-opacity="0" stroke-width="3" fill="#fff" fill-opacity="0"/><use xlink:href="#p" transform="matrix(1,0,0,1,472.33333333333337,434.85243055555554) translate(34.40581597222223 37.80164930555556)"/><use xlink:href="#q" transform="matrix(1,0,0,1,472.33333333333337,434.85243055555554) translate(141.3611111111111 37.80164930555556)"/><path d="M707.17 450.67h50v70.14h-50z" stroke="#000" stroke-opacity="0" stroke-width="3" fill="#99d2f2" filter="url(#s)"/><path d="M1024.83 602.27c0-3.32 2.7-6 6-6h220.5c3.32 0 6 2.68 6 6v58.14c0 3.33-2.68 6-6 6h-220.5c-3.3 0-6-2.67-6-6z" stroke="#000" stroke-opacity="0" stroke-width="3" fill="#fff" fill-opacity="0"/><use xlink:href="#p" transform="matrix(1,0,0,1,1029.8333333333335,601.2673611111111) translate(34.40581597222223 37.80164930555556)"/><use xlink:href="#q" transform="matrix(1,0,0,1,1029.8333333333335,601.2673611111111) translate(141.3611111111111 37.80164930555556)"/><path d="M707.17 466c0-3.3 2.68-6 6-6h59.78c3.32 0 6 2.7 6 6v33.33c0 3.32-2.68 6-6 6h-59.78c-3.32 0-6-2.68-6-6z" stroke="#000" stroke-opacity="0" stroke-width="3" fill="#fff" fill-opacity="0"/><use xlink:href="#I" transform="matrix(1,0,0,1,712.1666666666669,465.00000000000006) translate(0 18.739149305555554)"/><use xlink:href="#J" transform="matrix(1,0,0,1,712.1666666666669,465.00000000000006) translate(0 41.87282986111111)"/><path d="M707.17 846c0-3.3 2.68-6 6-6h75.5c3.3 0 6 2.7 6 6v44.27c0 3.3-2.7 6-6 6h-75.5c-3.32 0-6-2.7-6-6z" stroke="#000" stroke-opacity="0" stroke-width="3" fill="#fff" fill-opacity="0"/><g><use xlink:href="#I" transform="matrix(1,0,0,1,712.1666666666667,845.0000000000001) translate(0 19.10546875)"/><use xlink:href="#K" transform="matrix(1,0,0,1,712.1666666666667,845.0000000000001) translate(0 42.23914930555556)"/></g><g><path d="M412.34 1103.7c-2.24-2.24-2.24-5.87 0-8.12l56.86-56.85c2.24-2.25 5.88-2.25 8.12 0 2.25 2.24 2.25 5.88 0 8.12l-56.85 56.86c-2.25 2.25-5.88 2.25-8.13 0z" stroke="#000" stroke-opacity="0" stroke-width="3" fill="#f9b72a"/></g><g><path d="M412.34 1038.73c2.25-2.25 5.88-2.25 8.13 0l56.85 56.85c2.25 2.25 2.25 5.88 0 8.13-2.24 2.25-5.88 2.25-8.12 0l-56.86-56.85c-2.24-2.24-2.24-5.88 0-8.12z" stroke="#000" stroke-opacity="0" stroke-width="3" fill="#f9b72a"/></g><path d="M444.83 981v3.38m0 6.76v6.75m0 6.75v6.76m0 6.77v6.76m0 6.75v6.76m0 6.76v6.76m0 6.75v3.4" stroke="#5e5e5e" stroke-width="2" fill="none"/><path d="M445.83 981.03h-2V980h2M445.83 1062.1l-2 2v-2.03h2" fill="#5e5e5e"/><path d="M724.83 941v4.2m0 8.44v8.43m0 8.43v8.43m0 8.43v8.43m0 8.4v8.44m0 8.43v8.43m0 8.43v8.43m0 8.43v4.2" stroke="#5e5e5e" stroke-width="2" fill="none"/><path d="M725.83 941.03h-2V940h2" fill="#5e5e5e"/><path d="M724.83 1058.97v1.03M1007.33 891v3.82m0 7.63v7.64m0 7.63v7.63m0 7.64v7.64m0 7.63v7.64m0 7.65v7.63m0 7.64v7.63m0 7.64v7.63m0 7.63v7.64m0 7.64v7.63m0 7.64v7.65m0 7.63v3.82" stroke="#5e5e5e" stroke-width="2" fill="none"/><path d="M1008.33 891.03h-2V890h2" fill="#5e5e5e"/><path d="M1007.33 1058.97v1.03M1284.83 841v3.9m0 7.78v7.78m0 7.8v7.78m0 7.78v7.8m0 7.77v7.78m0 7.78v7.8m0 7.78v7.78m0 7.8v7.77m0 7.78v7.78m0 7.8v7.78m0 7.78v7.8m0 7.77v7.78m0 7.78v7.8m0 7.78v7.78m0 7.8v3.88" stroke="#5e5e5e" stroke-width="2" fill="none"/><path d="M1285.83 841.03h-2V840h2" fill="#5e5e5e"/><path d="M1284.83 1058.97v1.03" stroke="#5e5e5e" stroke-width="2" fill="none"/><defs><linearGradient gradientUnits="userSpaceOnUse" id="b" x1="517.25" y1="324.83" x2="372.42" y2="260.46"><stop offset="0%" stop-color="#f7892e"/><stop offset="73.95%" stop-color="#f9b72a"/></linearGradient><path fill="#333" d="M227-1355L895-225v-1130h132V0H873L204-1135V0H72v-1355h155" id="L"/><path fill="#333" d="M240-1205c-40 0-79-36-79-76s39-76 79-76c41 0 78 35 78 76s-37 76-78 76zM47-957h257V0H174v-827H47v-130" id="M"/><path fill="#333" d="M406 0C279 4 176-105 176-232v-595H26v-130c75 0 120-17 137-51 9-17 13-69 13-155h130v206h241v130H306v595c0 70 49 105 146 105 18 0 78-3 95-3V0H406" id="N"/><path fill="#333" d="M550-827c-191 0-346 159-346 349V0H72v-957h132v174c85-116 198-174 339-174h204v174c-69-29-134-44-197-44" id="O"/><path fill="#333" d="M51-478c0-256 221-509 478-501 201 6 353 126 426 274H803c-71-96-163-144-274-144-189 0-348 180-348 372 0 191 160 369 348 369 100 0 189-44 266-132h155C852-65 712 22 529 22 275 22 51-223 51-478" id="P"/><g id="c"><use transform="matrix(0.013020833333333329,0,0,0.013020833333333329,0,0)" xlink:href="#L"/><use transform="matrix(0.013020833333333329,0,0,0.013020833333333329,15.18229166666666,0)" xlink:href="#M"/><use transform="matrix(0.013020833333333329,0,0,0.013020833333333329,20.390624999999993,0)" xlink:href="#N"/><use transform="matrix(0.013020833333333329,0,0,0.013020833333333329,28.35937499999999,0)" xlink:href="#O"/><use transform="matrix(0.013020833333333329,0,0,0.013020833333333329,39.51822916666665,0)" xlink:href="#M"/><use transform="matrix(0.013020833333333329,0,0,0.013020833333333329,44.72656249999998,0)" xlink:href="#P"/></g><path fill="#333" d="M41-589h282v-299h131v299h278v130H454v292H323v-292H41v-130" id="Q"/><use transform="matrix(0.013020833333333329,0,0,0.013020833333333329,0,0)" xlink:href="#Q" id="d"/><path fill="#333" d="M865-1355v130H204v424h531v134H204V0H74v-1355h791" id="R"/><path fill="#333" d="M497-108c108 0 303-51 303-143v-220c-2 23-338 19-365 38-104 20-200 82-200 182 0 95 87 143 262 143zm28-871c161 0 405 100 405 248v579c0 27 16 41 48 44-1 21-3 64-5 129-72-4-122-33-151-87-82 59-188 88-318 88C233 22 97-70 97-253c0-145 124-253 248-288 70-20 368-9 427-58 17-9 27-25 29-46-1 7-1-13-1-60 0-84-168-147-260-147-166 0-269 58-309 174l-126-27c31-178 203-274 420-274" id="S"/><path fill="#333" d="M892-988c1-180-155-261-350-261-239 0-359 83-359 250 0 109 72 186 218 225 134 36 273 57 404 101 148 49 217 165 217 318 0 218-259 377-488 377C285 22 54-135 53-369h130c6 176 157 261 349 261 178 0 360-88 360-250 0-109-72-188-217-228-134-37-272-59-404-103C123-738 53-851 53-998c0-227 241-381 478-381 258 0 497 146 491 391H892" id="T"/><g id="e"><use transform="matrix(0.013020833333333329,0,0,0.013020833333333329,0,0)" xlink:href="#R"/><use transform="matrix(0.013020833333333329,0,0,0.013020833333333329,12.018229166666663,0)" xlink:href="#S"/><use transform="matrix(0.013020833333333329,0,0,0.013020833333333329,25.898437499999993,0)" xlink:href="#S"/><use transform="matrix(0.013020833333333329,0,0,0.013020833333333329,39.77864583333332,0)" xlink:href="#T"/></g><filter id="a" filterUnits="objectBoundingBox" x="-.14" y="-.09" width="1.28" height="1.28"><feOffset result="offOut" in="SourceAlpha" dy="7"/><feGaussianBlur result="blurOut" in="offOut" stdDeviation="10"/><feColorMatrix result="colorOut" in="blurOut" values="0 0 0 0 0 0 0 0 0 0 0 0 0 0 0 0 0 0 0.5019607843137255 0"/><feBlend in="SourceGraphic" in2="colorOut"/></filter><linearGradient gradientUnits="userSpaceOnUse" id="f" x1="797.25" y1="324.83" x2="652.42" y2="260.46"><stop offset="1.26%" stop-color="#3aa6dd"/><stop offset="73.95%" stop-color="#b2d6ef"/></linearGradient><path fill="#333" d="M204-1355v1225h596V0H74v-1355h130" id="U"/><path fill="#333" d="M881-477c0-189-160-372-351-372-189 0-348 181-348 372s160 369 348 369 351-180 351-369zm-829-1c0-256 220-501 478-501 257 0 481 246 481 502S785 22 530 22C276 22 52-223 52-478" id="V"/><path fill="#333" d="M177-478c0 192 146 370 333 370s324-179 324-370c0-193-136-371-324-371-187 0-333 180-333 371zm332 742c191 3 334-157 330-347v-91C756-43 647 22 510 22 246 22 47-209 47-478c0-259 208-501 463-501 140 0 250 67 329 201v-179h130v888c6 260-201 463-461 463C272 394 95 221 61 14L188-7c30 151 149 268 321 271" id="W"/><path fill="#333" d="M52-478c0-256 228-501 485-501 264 0 489 248 480 516H180c0 180 174 355 357 355 148 0 301-110 347-219l130 23C955-140 749 17 537 22 280 28 52-222 52-478zm815-115c-38-129-172-257-330-256-158 0-295 130-340 256h670" id="X"/><g id="g"><use transform="matrix(0.013020833333333329,0,0,0.013020833333333329,0,0)" xlink:href="#U"/><use transform="matrix(0.013020833333333329,0,0,0.013020833333333329,11.861979166666663,0)" xlink:href="#V"/><use transform="matrix(0.013020833333333329,0,0,0.013020833333333329,26.510416666666657,0)" xlink:href="#W"/><use transform="matrix(0.013020833333333329,0,0,0.013020833333333329,40.833333333333314,0)" xlink:href="#W"/><use transform="matrix(0.013020833333333329,0,0,0.013020833333333329,55.15624999999997,0)" xlink:href="#X"/><use transform="matrix(0.013020833333333329,0,0,0.013020833333333329,69.80468749999997,0)" xlink:href="#O"/></g><path fill="#333" d="M204-1131V0H72v-1355h167l417 834 417-834h172V0h-133v-1131L732-373H584" id="Y"/><path fill="#333" d="M-2-478c0-256 249-501 505-501 147 0 261 65 343 196v-572h132V0H846v-174C761-43 645 22 498 22 243 22-2-223-2-478zm843 0c0-191-151-371-338-371S128-665 128-478s183 370 370 370c188 0 343-180 343-370" id="Z"/><path fill="#333" d="M86-1355h132V0H86v-1355" id="aa"/><path fill="#333" d="M395 0L60-957h137l259 739 167-476-93-263h137l262 744 258-744h138L991 0H866L692-498 516 0H395" id="ab"/><g id="h"><use transform="matrix(0.013020833333333329,0,0,0.013020833333333329,0,0)" xlink:href="#Y"/><use transform="matrix(0.013020833333333329,0,0,0.013020833333333329,18.164062499999993,0)" xlink:href="#M"/><use transform="matrix(0.013020833333333329,0,0,0.013020833333333329,23.372395833333325,0)" xlink:href="#Z"/><use transform="matrix(0.013020833333333329,0,0,0.013020833333333329,37.86458333333332,0)" xlink:href="#Z"/><use transform="matrix(0.013020833333333329,0,0,0.013020833333333329,52.356770833333314,0)" xlink:href="#aa"/><use transform="matrix(0.013020833333333329,0,0,0.013020833333333329,56.97916666666664,0)" xlink:href="#X"/><use transform="matrix(0.013020833333333329,0,0,0.013020833333333329,71.00260416666664,0)" xlink:href="#ab"/><use transform="matrix(0.013020833333333329,0,0,0.013020833333333329,89.7395833333333,0)" xlink:href="#S"/><use transform="matrix(0.013020833333333329,0,0,0.013020833333333329,103.61979166666663,0)" xlink:href="#O"/><use transform="matrix(0.013020833333333329,0,0,0.013020833333333329,113.73697916666663,0)" xlink:href="#X"/></g><linearGradient gradientUnits="userSpaceOnUse" id="j" x1="1077.33" y1="320" x2="932.33" y2="255.56"><stop offset="1.26%" stop-color="#3aa6dd"/><stop offset="73.95%" stop-color="#b2d6ef"/></linearGradient><path fill="#333" d="M695-649l-152-510-156 510h308zM888 0L732-517H348L192 0H57l406-1355h160L1029 0H888" id="ac"/><path fill="#333" d="M483-108c191 0 291-169 291-370v-479h130V0H774v-137C701-31 604 22 483 22 219 22 67-183 67-456v-501h130v501c-4 182 112 348 286 348" id="ad"/><path fill="#333" d="M543-849c-184 0-339 185-339 371V0H74v-1355h130v572c84-131 197-196 339-196 250 0 421 235 421 493V0H834v-478c4-195-107-371-291-371" id="ae"/><g id="k"><use transform="matrix(0.013020833333333329,0,0,0.013020833333333329,0,0)" xlink:href="#ac"/><use transform="matrix(0.013020833333333329,0,0,0.013020833333333329,14.973958333333329,0)" xlink:href="#ad"/><use transform="matrix(0.013020833333333329,0,0,0.013020833333333329,28.515624999999996,0)" xlink:href="#N"/><use transform="matrix(0.013020833333333329,0,0,0.013020833333333329,36.48437499999999,0)" xlink:href="#ae"/></g><filter id="i" filterUnits="objectBoundingBox" x="-.14" y="-.09" width="1.28" height="1.28"><feOffset result="offOut" in="SourceAlpha" dy="7"/><feGaussianBlur result="blurOut" in="offOut" stdDeviation="10"/><feColorMatrix result="colorOut" in="blurOut" values="0 0 0 0 0 0 0 0 0 0 0 0 0 0 0 0 0 0 0.5019607843137255 0"/><feBlend in="SourceGraphic" in2="colorOut"/></filter><linearGradient gradientUnits="userSpaceOnUse" id="m" x1="1354.21" y1="320" x2="1215.45" y2="255.56"><stop offset="1.26%" stop-color="#3aa6dd"/><stop offset="73.95%" stop-color="#b2d6ef"/></linearGradient><path fill="#333" d="M543 22C276 22 65-235 65-506v-849h130v867c-5 202 149 380 348 380s349-180 349-384v-863h130v849c8 271-212 528-479 528" id="af"/><path fill="#333" d="M209-478c0 191 154 370 342 370 187 0 348-181 348-370S737-849 551-849c-188 0-342 180-342 371zm820 0c0 258-224 500-478 500-147 0-262-65-347-196v573H74V-957h130v174c85-131 200-196 347-196 256 0 478 244 478 501" id="ag"/><g id="n"><use transform="matrix(0.013020833333333329,0,0,0.013020833333333329,0,0)" xlink:href="#af"/><use transform="matrix(0.013020833333333329,0,0,0.013020833333333329,14.973958333333329,0)" xlink:href="#ag"/><use transform="matrix(0.013020833333333329,0,0,0.013020833333333329,29.46614583333332,0)" xlink:href="#Z"/><use transform="matrix(0.013020833333333329,0,0,0.013020833333333329,43.958333333333314,0)" xlink:href="#S"/><use transform="matrix(0.013020833333333329,0,0,0.013020833333333329,57.21354166666664,0)" xlink:href="#N"/><use transform="matrix(0.013020833333333329,0,0,0.013020833333333329,65.18229166666664,0)" xlink:href="#X"/></g><path fill="#333" d="M204-1355v708h570v-708h130V0H774v-517H204V0H74v-1355h130" id="ah"/><path fill="#333" d="M545-849c-196 0-341 171-341 371V0H74v-957h130v174c77-131 190-196 341-196 285 0 449 200 449 493V0H862v-478c2-219-106-371-317-371" id="ai"/><g id="o"><use transform="matrix(0.013020833333333329,0,0,0.013020833333333329,0,0)" xlink:href="#ah"/><use transform="matrix(0.013020833333333329,0,0,0.013020833333333329,13.541666666666663,0)" xlink:href="#S"/><use transform="matrix(0.013020833333333329,0,0,0.013020833333333329,27.42187499999999,0)" xlink:href="#ai"/><use transform="matrix(0.013020833333333329,0,0,0.013020833333333329,41.96614583333332,0)" xlink:href="#Z"/><use transform="matrix(0.013020833333333329,0,0,0.013020833333333329,56.458333333333314,0)" xlink:href="#aa"/><use transform="matrix(0.013020833333333329,0,0,0.013020833333333329,61.08072916666664,0)" xlink:href="#X"/><use transform="matrix(0.013020833333333329,0,0,0.013020833333333329,75.72916666666664,0)" xlink:href="#O"/></g><filter id="l" filterUnits="objectBoundingBox" x="-.14" y="-.09" width="1.29" height="1.28"><feOffset result="offOut" in="SourceAlpha" dy="7"/><feGaussianBlur result="blurOut" in="offOut" stdDeviation="10"/><feColorMatrix result="colorOut" in="blurOut" values="0 0 0 0 0 0 0 0 0 0 0 0 0 0 0 0 0 0 0.5019607843137255 0"/><feBlend in="SourceGraphic" in2="colorOut"/></filter><path fill="#333" d="M178-957l334 813 331-813h142L595 0H424L33-957h145" id="aj"/><path fill="#333" d="M204-656l437-331 87 99-330 254L782 0H626L289-554l-85 65V0H72v-1355h132v699" id="ak"/><path fill="#333" d="M132 24c-76-289-76-715 0-1004 58-221 148-346 273-375v109c-131 55-197 311-197 768s66 713 197 768v109C280 370 190 245 132 24" id="al"/><path fill="#333" d="M224-957l269 369 270-369h164L577-475 927 0H760L493-366 227 0H61l352-475L61-957h163" id="am"/><path fill="#333" d="M86-101c0-65 55-113 120-113 56 0 111 53 111 109 0 139-105 285-233 290l-15-58c81-31 123-70 126-115-60-2-109-50-109-113" id="an"/><g id="p"><use transform="matrix(0.010850694444444442,0,0,0.010850694444444442,0,0)" xlink:href="#M"/><use transform="matrix(0.010850694444444442,0,0,0.010850694444444442,4.340277777777777,0)" xlink:href="#ai"/><use transform="matrix(0.010850694444444442,0,0,0.010850694444444442,16.46050347222222,0)" xlink:href="#aj"/><use transform="matrix(0.010850694444444442,0,0,0.010850694444444442,27.49565972222222,0)" xlink:href="#V"/><use transform="matrix(0.010850694444444442,0,0,0.010850694444444442,39.70269097222222,0)" xlink:href="#ak"/><use transform="matrix(0.010850694444444442,0,0,0.010850694444444442,47.99262152777777,0)" xlink:href="#X"/><use transform="matrix(0.010850694444444442,0,0,0.010850694444444442,60.19965277777778,0)" xlink:href="#al"/><use transform="matrix(0.010850694444444442,0,0,0.010850694444444442,65.46223958333333,0)" xlink:href="#P"/><use transform="matrix(0.010850694444444442,0,0,0.010850694444444442,77.2243923611111,0)" xlink:href="#N"/><use transform="matrix(0.010850694444444442,0,0,0.010850694444444442,83.8650173611111,0)" xlink:href="#am"/><use transform="matrix(0.010850694444444442,0,0,0.010850694444444442,95.19314236111109,0)" xlink:href="#an"/></g><path fill="#333" d="M329-978c76 289 76 715 0 1004-58 221-148 346-273 375V292c131-55 197-311 197-768s-66-713-197-768v-109c125 29 215 154 273 375" id="ao"/><g id="q"><use transform="matrix(0.010850694444444442,0,0,0.010850694444444442,0,0)" xlink:href="#ai"/><use transform="matrix(0.010850694444444442,0,0,0.010850694444444442,12.120225694444443,0)" xlink:href="#X"/><use transform="matrix(0.010850694444444442,0,0,0.010850694444444442,24.327256944444443,0)" xlink:href="#am"/><use transform="matrix(0.010850694444444442,0,0,0.010850694444444442,35.65538194444444,0)" xlink:href="#N"/><use transform="matrix(0.010850694444444442,0,0,0.010850694444444442,42.29600694444444,0)" xlink:href="#ao"/></g><filter id="r" filterUnits="objectBoundingBox" x="-.04" y="-.01" width="1.08" height="1.02"><feOffset result="offOut" in="SourceAlpha" dy="1"/><feGaussianBlur result="blurOut" in="offOut" stdDeviation="1"/><feColorMatrix result="colorOut" in="blurOut" values="0 0 0 0 0 0 0 0 0 0 0 0 0 0 0 0 0 0 0.5019607843137255 0"/><feBlend in="SourceGraphic" in2="colorOut"/></filter><filter id="s" filterUnits="objectBoundingBox" x="-.04" y="-.01" width="1.08" height="1.06"><feOffset result="offOut" in="SourceAlpha" dy="1"/><feGaussianBlur result="blurOut" in="offOut" stdDeviation="1"/><feColorMatrix result="colorOut" in="blurOut" values="0 0 0 0 0 0 0 0 0 0 0 0 0 0 0 0 0 0 0.5019607843137255 0"/><feBlend in="SourceGraphic" in2="colorOut"/></filter><path fill="#333" d="M431-1222c-103-2-191 65-188 167v98h188v130H243V0H111v-827H33v-130h78c-7-146 8-241 94-317 61-53 135-81 226-81v133" id="ap"/><path fill="#333" d="M455-849c-173 0-251 180-251 371V0H74v-957h130v106c60-85 144-128 251-128 146 0 245 69 296 208 37-139 135-208 295-208 233 0 349 167 349 501V0h-130v-478c0-247-73-371-219-371-169 0-241 180-241 371V0H675l-1-478c0-247-73-371-219-371" id="aq"/><g id="t"><use transform="matrix(0.010850694444444442,0,0,0.010850694444444442,0,0)" xlink:href="#ag"/><use transform="matrix(0.010850694444444442,0,0,0.010850694444444442,12.076822916666664,0)" xlink:href="#X"/><use transform="matrix(0.010850694444444442,0,0,0.010850694444444442,24.28385416666666,0)" xlink:href="#O"/><use transform="matrix(0.010850694444444442,0,0,0.010850694444444442,33.58289930555555,0)" xlink:href="#ap"/><use transform="matrix(0.010850694444444442,0,0,0.010850694444444442,38.84548611111111,0)" xlink:href="#V"/><use transform="matrix(0.010850694444444442,0,0,0.010850694444444442,51.052517361111114,0)" xlink:href="#O"/><use transform="matrix(0.010850694444444442,0,0,0.010850694444444442,60.351562499999986,0)" xlink:href="#aq"/></g><path fill="#333" d="M922-478c0-187-188-371-375-371S209-669 209-478c0 190 155 370 343 370 187 0 370-183 370-370zm130 0c0 255-245 500-500 500-147 0-263-65-348-196V0H72v-1355h132v572c82-131 196-196 343-196 256 0 505 245 505 501" id="ar"/><path fill="#333" d="M898-260C898-89 674 20 489 20 280 20 75-78 57-254l126-27c2 114 176 171 313 171 113 0 265-50 265-150 0-60-40-102-120-127-21-6-104-22-252-42-166-23-242-71-302-158-134-339 365-481 654-327 94 50 148 120 161 213l-126 27c-25-116-134-174-329-174-116 0-251 47-251 149 0 73 54 127 164 147 83 15 168 18 253 29 83 11 158 46 225 101 40 33 60 87 60 162" id="as"/><g id="u"><use transform="matrix(0.010850694444444442,0,0,0.010850694444444442,0,0)" xlink:href="#ar"/><use transform="matrix(0.010850694444444442,0,0,0.010850694444444442,12.348090277777775,0)" xlink:href="#ad"/><use transform="matrix(0.010850694444444442,0,0,0.010850694444444442,23.63281249999999,0)" xlink:href="#as"/><use transform="matrix(0.010850694444444442,0,0,0.010850694444444442,34.51605902777777,0)" xlink:href="#M"/><use transform="matrix(0.010850694444444442,0,0,0.010850694444444442,38.85633680555555,0)" xlink:href="#ai"/><use transform="matrix(0.010850694444444442,0,0,0.010850694444444442,50.97656249999999,0)" xlink:href="#X"/><use transform="matrix(0.010850694444444442,0,0,0.010850694444444442,63.18359375,0)" xlink:href="#as"/><use transform="matrix(0.010850694444444442,0,0,0.010850694444444442,74.06684027777777,0)" xlink:href="#as"/></g><g id="v"><use transform="matrix(0.010850694444444442,0,0,0.010850694444444442,0,0)" xlink:href="#aa"/><use transform="matrix(0.010850694444444442,0,0,0.010850694444444442,3.8519965277777772,0)" xlink:href="#V"/><use transform="matrix(0.010850694444444442,0,0,0.010850694444444442,16.059027777777775,0)" xlink:href="#W"/><use transform="matrix(0.010850694444444442,0,0,0.010850694444444442,27.99479166666666,0)" xlink:href="#M"/><use transform="matrix(0.010850694444444442,0,0,0.010850694444444442,32.335069444444436,0)" xlink:href="#P"/></g><g id="w"><use transform="matrix(0.010850694444444442,0,0,0.010850694444444442,0,0)" xlink:href="#ad"/><use transform="matrix(0.010850694444444442,0,0,0.010850694444444442,11.28472222222222,0)" xlink:href="#as"/><use transform="matrix(0.010850694444444442,0,0,0.010850694444444442,22.167968749999993,0)" xlink:href="#X"/><use transform="matrix(0.010850694444444442,0,0,0.010850694444444442,34.37499999999999,0)" xlink:href="#O"/></g><path fill="#333" d="M223-130h657V0H68v-167l626-660H69v-130h811v133" id="at"/><g id="x"><use transform="matrix(0.010850694444444442,0,0,0.010850694444444442,0,0)" xlink:href="#S"/><use transform="matrix(0.010850694444444442,0,0,0.010850694444444442,11.566840277777775,0)" xlink:href="#ad"/><use transform="matrix(0.010850694444444442,0,0,0.010850694444444442,22.85156249999999,0)" xlink:href="#N"/><use transform="matrix(0.010850694444444442,0,0,0.010850694444444442,29.492187499999993,0)" xlink:href="#ae"/><use transform="matrix(0.010850694444444442,0,0,0.010850694444444442,40.8962673611111,0)" xlink:href="#V"/><use transform="matrix(0.010850694444444442,0,0,0.010850694444444442,53.1032986111111,0)" xlink:href="#O"/><use transform="matrix(0.010850694444444442,0,0,0.010850694444444442,62.402343749999986,0)" xlink:href="#M"/><use transform="matrix(0.010850694444444442,0,0,0.010850694444444442,66.74262152777776,0)" xlink:href="#at"/><use transform="matrix(0.010850694444444442,0,0,0.010850694444444442,77.5933159722222,0)" xlink:href="#X"/><use transform="matrix(0.010850694444444442,0,0,0.010850694444444442,89.8003472222222,0)" xlink:href="#Z"/></g><g id="y"><use transform="matrix(0.010850694444444442,0,0,0.010850694444444442,0,0)" xlink:href="#P"/><use transform="matrix(0.010850694444444442,0,0,0.010850694444444442,11.762152777777775,0)" xlink:href="#N"/><use transform="matrix(0.010850694444444442,0,0,0.010850694444444442,18.402777777777775,0)" xlink:href="#am"/></g><path fill="#333" d="M201-741c-60 0-109-53-109-112 0-58 51-109 109-109s110 51 110 109c0 59-51 112-110 112zm0 737C141-4 92-53 92-113c0-59 49-112 109-112 59 0 110 53 110 112C311-53 260-4 201-4" id="au"/><g id="z"><use transform="matrix(0.010850694444444442,0,0,0.010850694444444442,0,0)" xlink:href="#as"/><use transform="matrix(0.010850694444444442,0,0,0.010850694444444442,10.883246527777775,0)" xlink:href="#N"/><use transform="matrix(0.010850694444444442,0,0,0.010850694444444442,17.523871527777775,0)" xlink:href="#S"/><use transform="matrix(0.010850694444444442,0,0,0.010850694444444442,28.569878472222218,0)" xlink:href="#N"/><use transform="matrix(0.010850694444444442,0,0,0.010850694444444442,35.210503472222214,0)" xlink:href="#ad"/><use transform="matrix(0.010850694444444442,0,0,0.010850694444444442,46.495225694444436,0)" xlink:href="#as"/><use transform="matrix(0.010850694444444442,0,0,0.010850694444444442,57.378472222222214,0)" xlink:href="#au"/></g><path fill="#333" d="M494-979c203 0 420 127 420 319 0 109-70 192-210 251-53 22-170 52-351 90-101 22-152 85-152 189h701V0H68v-130c0-167 83-269 250-305 133-28 223-50 271-67 129-45 194-97 194-158 0-133-117-186-288-189-126-2-301 76-294 193H69c-7-196 219-323 425-323" id="av"/><path fill="#333" d="M466-979c200 0 408 176 408 373v255C884-154 666 22 466 22 264 22 59-152 59-351v-255c-8-199 205-373 407-373zm-1 871c134 0 279-110 279-241v-255c6-134-142-245-279-245-135 0-276 104-276 235v274c-6 127 146 232 276 232" id="aw"/><g id="A"><use transform="matrix(0.010850694444444442,0,0,0.010850694444444442,0,0)" xlink:href="#av"/><use transform="matrix(0.010850694444444442,0,0,0.010850694444444442,11.28472222222222,0)" xlink:href="#aw"/><use transform="matrix(0.010850694444444442,0,0,0.010850694444444442,22.01605902777777,0)" xlink:href="#aw"/></g><path fill="#333" d="M855-938c0-185-202-291-399-291H204v582h271c185 5 380-116 380-291zm130 0c0 214-192 369-387 402L895 0H743L456-517H204V0H72v-1355h384c256-7 529 172 529 417" id="ax"/><g id="B"><use transform="matrix(0.010850694444444442,0,0,0.010850694444444442,0,0)" xlink:href="#ax"/><use transform="matrix(0.010850694444444442,0,0,0.010850694444444442,11.903211805555554,0)" xlink:href="#X"/><use transform="matrix(0.010850694444444442,0,0,0.010850694444444442,24.11024305555555,0)" xlink:href="#as"/><use transform="matrix(0.010850694444444442,0,0,0.010850694444444442,34.99348958333333,0)" xlink:href="#ag"/><use transform="matrix(0.010850694444444442,0,0,0.010850694444444442,47.07031249999999,0)" xlink:href="#V"/><use transform="matrix(0.010850694444444442,0,0,0.010850694444444442,59.277343749999986,0)" xlink:href="#ai"/><use transform="matrix(0.010850694444444442,0,0,0.010850694444444442,71.39756944444443,0)" xlink:href="#as"/><use transform="matrix(0.010850694444444442,0,0,0.010850694444444442,82.2808159722222,0)" xlink:href="#X"/></g><path fill="#333" d="M558-1225V0H428v-1225H21v-130h954v130H558" id="ay"/><path fill="#333" d="M985-938c0 247-271 428-529 421H204V0H72v-1355h384c256-7 529 172 529 417zm-130 0c0-191-192-287-399-287H204v578h252c200 4 399-104 399-291" id="az"/><g id="C"><use transform="matrix(0.010850694444444442,0,0,0.010850694444444442,0,0)" xlink:href="#ah"/><use transform="matrix(0.010850694444444442,0,0,0.010850694444444442,11.28472222222222,0)" xlink:href="#ay"/><use transform="matrix(0.010850694444444442,0,0,0.010850694444444442,22.78645833333333,0)" xlink:href="#ay"/><use transform="matrix(0.010850694444444442,0,0,0.010850694444444442,34.288194444444436,0)" xlink:href="#az"/></g><g id="D"><use transform="matrix(0.010850694444444442,0,0,0.010850694444444442,0,0)" xlink:href="#av"/><use transform="matrix(0.010850694444444442,0,0,0.010850694444444442,11.28472222222222,0)" xlink:href="#aw"/><use transform="matrix(0.010850694444444442,0,0,0.010850694444444442,22.01605902777777,0)" xlink:href="#aw"/></g><path fill="#333" d="M540-1249c-205 0-353 174-353 382v377c-5 208 148 382 353 382s353-174 353-382v-377c5-208-148-382-353-382zm0-130c272 0 483 251 483 528v345c8 277-211 528-483 528S57-229 57-506v-345c-8-277 211-528 483-528" id="aA"/><path fill="#333" d="M192-725l627-630h187L456-801 1032 0H869L359-702 192-536V0H61v-1355h131v630" id="aB"/><g id="E"><use transform="matrix(0.010850694444444442,0,0,0.010850694444444442,0,0)" xlink:href="#aA"/><use transform="matrix(0.010850694444444442,0,0,0.010850694444444442,12.282986111111109,0)" xlink:href="#aB"/></g><path fill="#333" d="M76-478c0-256 220-501 478-501 147 0 262 65 347 196v-174h130V399H901v-573C816-43 701 22 554 22 300 22 76-220 76-478zm130 0c0 189 161 370 348 370 188 0 342-180 342-370 0-191-154-371-342-371-186 0-348 182-348 371" id="aC"/><g id="F"><use transform="matrix(0.010850694444444442,0,0,0.010850694444444442,0,0)" xlink:href="#ax"/><use transform="matrix(0.010850694444444442,0,0,0.010850694444444442,11.903211805555554,0)" xlink:href="#X"/><use transform="matrix(0.010850694444444442,0,0,0.010850694444444442,24.11024305555555,0)" xlink:href="#aC"/><use transform="matrix(0.010850694444444442,0,0,0.010850694444444442,36.76215277777777,0)" xlink:href="#ad"/><use transform="matrix(0.010850694444444442,0,0,0.010850694444444442,48.04687499999999,0)" xlink:href="#X"/><use transform="matrix(0.010850694444444442,0,0,0.010850694444444442,60.253906249999986,0)" xlink:href="#as"/><use transform="matrix(0.010850694444444442,0,0,0.010850694444444442,71.13715277777777,0)" xlink:href="#N"/></g><g id="G"><use transform="matrix(0.010850694444444442,0,0,0.010850694444444442,0,0)" xlink:href="#az"/><use transform="matrix(0.010850694444444442,0,0,0.010850694444444442,11.501736111111109,0)" xlink:href="#aA"/><use transform="matrix(0.010850694444444442,0,0,0.010850694444444442,23.784722222222218,0)" xlink:href="#T"/><use transform="matrix(0.010850694444444442,0,0,0.010850694444444442,35.991753472222214,0)" xlink:href="#ay"/></g><path fill="#333" d="M554-1355L155 0H14l403-1355h137" id="aD"/><g id="H"><use transform="matrix(0.010850694444444442,0,0,0.010850694444444442,0,0)" xlink:href="#aD"/><use transform="matrix(0.010850694444444442,0,0,0.010850694444444442,6.52126736111111,0)" xlink:href="#V"/><use transform="matrix(0.010850694444444442,0,0,0.010850694444444442,18.728298611111107,0)" xlink:href="#O"/><use transform="matrix(0.010850694444444442,0,0,0.010850694444444442,28.027343749999993,0)" xlink:href="#Z"/><use transform="matrix(0.010850694444444442,0,0,0.010850694444444442,40.10416666666666,0)" xlink:href="#X"/><use transform="matrix(0.010850694444444442,0,0,0.010850694444444442,52.31119791666666,0)" xlink:href="#O"/></g><g id="I"><use transform="matrix(0.010850694444444442,0,0,0.010850694444444442,0,0)" xlink:href="#aa"/><use transform="matrix(0.010850694444444442,0,0,0.010850694444444442,3.8519965277777772,0)" xlink:href="#V"/><use transform="matrix(0.010850694444444442,0,0,0.010850694444444442,16.059027777777775,0)" xlink:href="#W"/></g><g id="J"><use transform="matrix(0.010850694444444442,0,0,0.010850694444444442,0,0)" xlink:href="#O"/><use transform="matrix(0.010850694444444442,0,0,0.010850694444444442,8.430989583333332,0)" xlink:href="#X"/><use transform="matrix(0.010850694444444442,0,0,0.010850694444444442,20.63802083333333,0)" xlink:href="#aC"/><use transform="matrix(0.010850694444444442,0,0,0.010850694444444442,33.28993055555555,0)" xlink:href="#ad"/><use transform="matrix(0.010850694444444442,0,0,0.010850694444444442,44.57465277777777,0)" xlink:href="#X"/><use transform="matrix(0.010850694444444442,0,0,0.010850694444444442,56.781684027777764,0)" xlink:href="#as"/><use transform="matrix(0.010850694444444442,0,0,0.010850694444444442,67.66493055555554,0)" xlink:href="#N"/></g><g id="K"><use transform="matrix(0.010850694444444442,0,0,0.010850694444444442,0,0)" xlink:href="#O"/><use transform="matrix(0.010850694444444442,0,0,0.010850694444444442,8.430989583333332,0)" xlink:href="#X"/><use transform="matrix(0.010850694444444442,0,0,0.010850694444444442,20.63802083333333,0)" xlink:href="#as"/><use transform="matrix(0.010850694444444442,0,0,0.010850694444444442,31.521267361111104,0)" xlink:href="#ag"/><use transform="matrix(0.010850694444444442,0,0,0.010850694444444442,43.59809027777777,0)" xlink:href="#V"/><use transform="matrix(0.010850694444444442,0,0,0.010850694444444442,55.805121527777764,0)" xlink:href="#ai"/><use transform="matrix(0.010850694444444442,0,0,0.010850694444444442,67.92534722222221,0)" xlink:href="#as"/><use transform="matrix(0.010850694444444442,0,0,0.010850694444444442,78.80859374999999,0)" xlink:href="#X"/></g></defs></g></svg>