<svg xmlns="http://www.w3.org/2000/svg" xmlns:xlink="http://www.w3.org/1999/xlink" xmlns:lucid="lucid" width="1523" height="950.29"><g transform="translate(-82.0895545401915 -179.11475750900644)" lucid:page-tab-id="0_0"><path d="M1490.05 343.1v5.06m0 5.05v10.1m0 5.05v10.1m0 5.04v10.1m0 5.03v10.1m0 5.04v10.1m0 5.04V439m0 5.06v10.1m0 5.04v10.1m0 5.04v10.1m0 5.04v10.1m0 5.04v10.1m0 5.04v10.1m0 5.04V545m0 5.04v10.1m0 5.04v10.1m0 5.05v10.1m0 5.04v10.1m0 5.04v10.1m0 5.05v10.1m0 5.04v10.08m0 5.05v10.1m0 5.04v10.1m0 5.04v10.1m0 5.05v10.1m0 5.04v10.1m0 5.04v10.1m0 5.04v10.1m0 5.04v10.1m0 5.04v10.1m0 5.04v10.1m0 5.04v10.1m0 5.04v10.1m0 5.04v10.1m0 5.04v10.1m0 5.05v10.1m0 5.05v10.1m0 5.04v10.08m0 5.05v10.1m0 5.04v10.1m0 5.04v10.1m0 5.05v10.1m0 5.04v10.1m0 5.03v10.1m0 5.05v10.1m0 5.04v10.1m0 5.04v10.1m0 5.04v10.1m0 5.04v5.05M1490.05 343.13v-.52M1490.05 1069.87v.52M762.4 351.1v4.96m0 4.95v9.9m0 4.96v9.9m0 4.95v9.9m0 4.96v9.9m0 4.95v9.9m0 4.96v9.9m0 4.95v9.9m0 4.96v9.9m0 4.95v9.9m0 4.96v9.9m0 4.95v9.9m0 4.96v9.9m0 4.95v9.9m0 4.96v9.9m0 4.94v9.9m0 4.95v9.9m0 4.95v9.9m0 4.95v9.9m0 4.95v9.9m0 4.95v9.9m0 4.95v9.9m0 4.95v9.9m0 4.95v9.9m0 4.95v9.9m0 4.95v9.9m0 4.95v9.9m0 4.95v9.9m0 4.95v9.9m0 4.95v9.9m0 4.94v9.9m0 4.95v9.9m0 4.94v9.9m0 4.95v9.9m0 4.94v9.9m0 4.95v9.9m0 4.94v9.9m0 4.95v9.9m0 4.94v9.9m0 4.95v9.9m0 4.94v9.9m0 4.95v9.9m0 4.94v9.9m0 4.95v9.9m0 4.93v9.9m0 4.95v9.9m0 4.95v9.9m0 4.95v9.9m0 4.95v4.95" stroke="#333" fill="none"/><path d="M762.9 351.13h-1v-.52h1" fill="#333"/><path d="M762.4 1063.87v.5M416.2 351.1v5.07m0 5.05v10.1m0 5.05v10.1m0 5.06v10.1m0 5.06v10.1m0 5.04v10.1m0 5.06v10.1m0 5.05v10.1m0 5.06v10.1m0 5.07v10.1m0 5.05v10.1m0 5.06v10.1m0 5.05v10.1m0 5.06v10.1m0 5.05v10.1m0 5.05v10.1m0 5.06v10.1m0 5.05v10.12m0 5.05v10.1m0 5.06v10.1m0 5.05v10.1m0 5.06v10.1m0 5.05v10.1m0 5.05v10.1m.02 5.06v10.1m0 5.06v10.1m0 5.06v10.1m0 5.05v10.1m0 5.06v10.1m0 5.06v10.1m0 5.04v10.1m0 5.06V826m0 5.05v10.1m0 5.06v10.1m0 5.07v10.1m0 5.05v10.1m0 5.06v10.1m0 5.05v10.1m0 5.06v10.1m0 5.05v10.1m0 5.05v10.1m0 5.06v10.1m0 5.05v10.12m0 5.05v10.1m0 5.06v10.1m0 5.05v10.1m0 5.06v10.1m0 5.05v5.05" stroke="#333" fill="none"/><path d="M416.7 351.13h-1v-.52h1" fill="#333"/><path d="M416.22 1063.43v3.52" stroke="#333" fill="none"/><path d="M397.28 420.06c0-4.42 3.6-8 8-8h24c4.42 0 8 3.58 8 8V912.7c0 4.4-3.58 8-8 8h-24c-4.4 0-8-3.6-8-8z" stroke="#f2f2f2" fill="#d2d3d5"/><path d="M372.92 1037.4c0-4.42 3.58-8 8-8h70.58c4.42 0 8 3.58 8 8v64c0 4.42-3.58 8-8 8h-70.58c-4.42 0-8-3.58-8-8z" fill="none"/><path d="M381.58 1037.4l69.26 64m0-64l-69.26 64" stroke="#666" stroke-width="8" fill="none"/><path d="M742.4 479.73c0-4.42 3.58-8 8-8h24c4.42 0 8 3.58 8 8v390.14c0 4.42-3.58 8-8 8h-24c-4.42 0-8-3.58-8-8z" stroke="#f2f2f2" fill="#d2d3d5"/><path d="M438.28 482.06h151.4c.1 0 .16-.07.16-.16 0-.1.08-.17.17-.17h135.5" stroke="#333" fill="none"/><path d="M438.3 482.56h-.52v-1h.52" fill="#333"/><path d="M740.28 481.73L726 486.36v-9.27z" stroke="#333" fill="#333"/><use xlink:href="#a" transform="matrix(1,0,0,1,512.0087369884604,452.0356755927253) translate(0 17.129180600720513)"/><use xlink:href="#b" transform="matrix(1,0,0,1,512.0087369884604,452.0356755927253) translate(108.12795254204825 17.129180600720513)"/><path d="M783.4 532h281.1" stroke="#333" fill="none"/><path d="M783.4 532.5h-.5v-1h.5" fill="#333"/><path d="M1079.26 532l-14.27 4.64v-9.28z" stroke="#333" fill="#333"/><use xlink:href="#a" transform="matrix(1,0,0,1,854.0623406387655,502.3062290989192) translate(0 17.129180600720513)"/><use xlink:href="#b" transform="matrix(1,0,0,1,854.0623406387655,502.3062290989192) translate(108.12795254204825 17.129180600720513)"/><path d="M1080.38 704.58H783.8" stroke="#333" fill="none"/><path d="M1080.88 705.08h-.52v-1h.52" fill="#333"/><path d="M801.1 694.4l-17.22 10.18 17.2 10.18" stroke="#333" fill="none"/><use xlink:href="#c" transform="matrix(1,0,0,1,931.8871073611363,708.5837629286564) translate(0 20.935665178658407)"/><use xlink:href="#d" transform="matrix(1,0,0,1,916.6876029700649,672.0351285941222) translate(0.005000000000000782 19.03242288968946)"/><path d="M321.17 207.1c0-4.4 3.58-8 8-8h174.08c4.42 0 8 3.6 8 8v135c0 4.43-3.58 8-8 8H329.17c-4.42 0-8-3.57-8-8z" stroke="#c92d39" fill="#ffbd50"/><use xlink:href="#e" transform="matrix(1,0,0,1,329.1721362635096,207.11475750900644) translate(54.0148309784526 58.93540969963975)"/><use xlink:href="#f" transform="matrix(1,0,0,1,329.1721362635096,207.11475750900644) translate(108.49514150018868 58.93540969963975)"/><use xlink:href="#g" transform="matrix(1,0,0,1,329.1721362635096,207.11475750900644) translate(61.95491990274493 84.62918060072052)"/><path d="M1395 207.1c0-4.4 3.6-8 8-8h174.1c4.4 0 8 3.6 8 8v135c0 4.43-3.6 8-8 8H1403c-4.4 0-8-3.57-8-8z" stroke="#1775e5" fill="#c1e4f7"/><use xlink:href="#h" transform="matrix(1,0,0,1,1403.0147413570194,207.11475750900644) translate(53.033471673202996 58.93540969963975)"/><use xlink:href="#i" transform="matrix(1,0,0,1,1403.0147413570194,207.11475750900644) translate(50.119131918219296 84.62918060072052)"/><path d="M741.4 865.22H438.7" stroke="#333" fill="none"/><path d="M741.9 865.72h-.52v-1h.52" fill="#333"/><path d="M455.98 855.04l-17.2 10.18 17.2 10.18" stroke="#333" fill="none"/><use xlink:href="#j" transform="matrix(1,0,0,1,576.1607096639246,835.5230800248048) translate(0 17.129180600720513)"/><path d="M1101.38 351.1v4.97m0 4.97v9.92m0 4.96v9.92m0 4.96v9.92m0 4.96v9.92m0 4.96v9.92m0 4.96v9.92m0 4.96v9.92m0 4.96v9.92m0 4.96V490m0 4.96v9.92m0 4.96v9.92m0 4.96v9.92m0 4.96v9.92m0 4.96v9.92m0 4.96v9.92m0 4.96v9.92m0 4.96v9.92m0 4.97v9.93m0 4.96v9.9m0 4.97v9.92m0 4.95v9.92m0 4.96v9.92m0 4.96v9.93m0 4.96v9.9m0 4.97v9.92m0 4.95v9.92m0 4.96v9.92m0 4.96v9.93m0 4.96v9.9m0 4.97v9.92m0 4.95v9.92m0 4.96v9.92m0 4.96v9.93m0 4.96V862m0 4.96v9.92m0 4.96v9.92m0 4.96v9.92m0 4.96v9.92m0 4.96v9.92m0 4.96v9.92m0 4.96v9.92m0 4.96v9.92m0 4.96v9.92m0 4.96v9.92m0 4.96v9.92m0 4.96v9.92m0 4.96v9.92m0 4.96v4.96" stroke="#333" fill="none"/><path d="M1101.88 351.13h-1v-.52h1" fill="#333"/><path d="M1101.38 1065.37v.5" stroke="#333" fill="none"/><path d="M1081.38 521.88c0-4.42 3.58-8 8-8h24c4.42 0 8 3.58 8 8v198.1c0 4.43-3.58 8-8 8h-24c-4.42 0-8-3.57-8-8z" stroke="#f2f2f2" fill="#d2d3d5"/><path d="M1006.34 207.1c0-4.4 3.58-8 8-8h174.07c4.43 0 8 3.6 8 8v135c0 4.43-3.57 8-8 8h-174.06c-4.42 0-8-3.57-8-8z" stroke="#1775e5" fill="#c1e4f7"/><use xlink:href="#k" transform="matrix(1,0,0,1,1014.3393602923303,207.11475750900644) translate(65.49376103379656 58.93540969963975)"/><use xlink:href="#l" transform="matrix(1,0,0,1,1014.3393602923303,207.11475750900644) translate(32.9304749959685 84.62918060072052)"/><path d="M1092 564.7c0-4.42 3.57-8 8-8h24c4.4 0 8 3.58 8 8v104c0 4.42-3.6 8-8 8h-24c-4.43 0-8-3.58-8-8z" stroke="#0c7cba" fill="#c1e4f7"/><path d="M1132 594c0-4.4 3.57-8 8-8h224c4.4 0 8 3.6 8 8v45.4c0 4.4-3.6 8-8 8h-224c-4.43 0-8-3.6-8-8z" stroke="#000" stroke-opacity="0" fill="#fff" fill-opacity="0"/><use xlink:href="#m" transform="matrix(1,0,0,1,1136.9852632959328,591.0045986223358) translate(0 17.129180600720513)"/><use xlink:href="#n" transform="matrix(1,0,0,1,1136.9852632959328,591.0045986223358) translate(5.947632153027956 17.129180600720513)"/><use xlink:href="#o" transform="matrix(1,0,0,1,1136.9852632959328,591.0045986223358) translate(35.685792918167735 17.129180600720513)"/><use xlink:href="#p" transform="matrix(1,0,0,1,1136.9852632959328,591.0045986223358) translate(83.20737382086111 17.129180600720513)"/><use xlink:href="#q" transform="matrix(1,0,0,1,1136.9852632959328,591.0045986223358) translate(0 42.822951501801285)"/><use xlink:href="#o" transform="matrix(1,0,0,1,1136.9852632959328,591.0045986223358) translate(5.947632153027956 42.822951501801285)"/><use xlink:href="#r" transform="matrix(1,0,0,1,1136.9852632959328,591.0045986223358) translate(53.46921305572132 42.822951501801285)"/><use xlink:href="#s" transform="matrix(1,0,0,1,1136.9852632959328,591.0045986223358) translate(74.82121248509168 42.822951501801285)"/><use xlink:href="#t" transform="matrix(1,0,0,1,1136.9852632959328,591.0045986223358) translate(110.50700540325941 42.822951501801285)"/><path d="M667.36 207.1c0-4.4 3.58-8 8-8h174.07c4.42 0 8 3.6 8 8v135c0 4.43-3.58 8-8 8H675.36c-4.42 0-8-3.57-8-8z" stroke="#1775e5" fill="#b2d6ef"/><use xlink:href="#u" transform="matrix(1,0,0,1,675.3596163000955,207.11475750900644) translate(54.222998103808585 58.93540969963975)"/><use xlink:href="#l" transform="matrix(1,0,0,1,675.3596163000955,207.11475750900644) translate(32.9304749959685 84.62918060072052)"/><path d="M750.28 736c0-4.43 3.58-8 8-8h24c4.42 0 8 3.57 8 8v104c0 4.4-3.58 8-8 8h-24c-4.42 0-8-3.6-8-8z" stroke="#0c7cba" fill="#c1e4f7"/><path d="M790.28 766c0-4.43 3.58-8 8-8h224c4.42 0 8 3.57 8 8v44c0 4.4-3.58 8-8 8h-224c-4.42 0-8-3.6-8-8z" stroke="#000" stroke-opacity="0" fill="#fff" fill-opacity="0"/><use xlink:href="#v" transform="matrix(1,0,0,1,795.281366249796,762.9901755306219) translate(0 29.629180600720513)"/><use xlink:href="#w" transform="matrix(1,0,0,1,795.281366249796,762.9901755306219) translate(5.947632153027956 29.629180600720513)"/><use xlink:href="#x" transform="matrix(1,0,0,1,795.281366249796,762.9901755306219) translate(35.685792918167735 29.629180600720513)"/><path d="M860 714.58c0-4.42 3.6-8 8-8h133.9c4.4 0 8 3.58 8 8v26.82c0 4.42-3.6 8-8 8H868c-4.4 0-8-3.58-8-8z" stroke="#000" stroke-opacity="0" fill="#fff" fill-opacity="0"/><g><use xlink:href="#y" transform="matrix(1,0,0,1,865.0140419859965,711.5786997797212) translate(23.47629960298132 19.35093831175157)"/><use xlink:href="#z" transform="matrix(1,0,0,1,865.0140419859965,711.5786997797212) translate(84.80299558086958 19.35093831175157)"/></g><path d="M517.48 873.47c0-4.42 3.58-8 8-8h133.88c4.42 0 8 3.58 8 8v26.82c0 4.4-3.58 8-8 8H525.48c-4.42 0-8-3.6-8-8z" stroke="#000" stroke-opacity="0" fill="#fff" fill-opacity="0"/><g><use xlink:href="#y" transform="matrix(1,0,0,1,522.479286043791,870.4664929143751) translate(23.47629960298132 19.35093831175157)"/><use xlink:href="#z" transform="matrix(1,0,0,1,522.479286043791,870.4664929143751) translate(84.80299558086958 19.35093831175157)"/></g><path d="M107.56 449.64H380.4M107.57 449.64h-.5" stroke="#333" fill="none"/><path d="M395.16 449.64l-14.26 4.64V445z" stroke="#333" fill="#333"/><g><use xlink:href="#A" transform="matrix(1,0,0,1,196.27812440035254,419.9472198678327) translate(0.005000000000002558 17.129180600720513)"/></g><path d="M396.28 890.74h-271.8" stroke="#333" fill="none"/><path d="M396.78 891.24h-.5v-1h.5" fill="#333"/><path d="M109.7 890.74l14.27-4.64v9.27z" stroke="#333" fill="#333"/><g><use xlink:href="#B" transform="matrix(1,0,0,1,180.04297730608755,861.0442248467945) translate(0 17.129180600720513)"/></g><path d="M173.44 907.28c0-4.42 3.58-8 8-8h133.88c4.42 0 8 3.58 8 8v39.68c0 4.42-3.58 8-8 8H181.44c-4.42 0-8-3.58-8-8z" stroke="#000" stroke-opacity="0" fill="#fff" fill-opacity="0"/><g><use xlink:href="#C" transform="matrix(1,0,0,1,178.43887908385733,904.281981537827) translate(0 15.22593831175157)"/><use xlink:href="#D" transform="matrix(1,0,0,1,178.43887908385733,904.281981537827) translate(54.45387660105595 15.22593831175157)"/><use xlink:href="#E" transform="matrix(1,0,0,1,178.43887908385733,904.281981537827) translate(0 38.06484577937893)"/><use xlink:href="#F" transform="matrix(1,0,0,1,178.43887908385733,904.281981537827) translate(34.839907456403765 38.06484577937893)"/></g><path d="M161.34 457.64c0-4.42 3.58-8 8-8h153.8c4.4 0 8 3.58 8 8v39.68c0 4.42-3.6 8-8 8h-153.8c-4.42 0-8-3.58-8-8z" stroke="#000" stroke-opacity="0" fill="#fff" fill-opacity="0"/><g><use xlink:href="#G" transform="matrix(1,0,0,1,166.33889364061895,454.64099076891347) translate(24.224427364937824 26.72593831175157)"/><use xlink:href="#H" transform="matrix(1,0,0,1,166.33889364061895,454.64099076891347) translate(80.89875330312422 26.72593831175157)"/></g><defs><path fill="#333" d="M24-231v-30h32v30H24zM24 0v-190h32V0H24" id="I"/><path fill="#333" d="M117-194c89-4 53 116 60 194h-32v-121c0-31-8-49-39-48C34-167 62-67 57 0H25l-1-190h30c1 10-1 24 2 32 11-22 29-35 61-36" id="J"/><path fill="#333" d="M108 0H70L1-190h34L89-25l56-165h34" id="K"/><path fill="#333" d="M100-194c62-1 85 37 85 99 1 63-27 99-86 99S16-35 15-95c0-66 28-99 85-99zM99-20c44 1 53-31 53-75 0-43-8-75-51-75s-53 32-53 75 10 74 51 75" id="L"/><path fill="#333" d="M143 0L79-87 56-68V0H24v-261h32v163l83-92h37l-77 82L181 0h-38" id="M"/><path fill="#333" d="M100-194c63 0 86 42 84 106H49c0 40 14 67 53 68 26 1 43-12 49-29l28 8c-11 28-37 45-77 45C44 4 14-33 15-96c1-61 26-98 85-98zm52 81c6-60-76-77-97-28-3 7-6 17-6 28h103" id="N"/><path fill="#333" d="M87 75C49 33 22-17 22-94c0-76 28-126 65-167h31c-38 41-64 92-64 168S80 34 118 75H87" id="O"/><path fill="#333" d="M96-169c-40 0-48 33-48 73s9 75 48 75c24 0 41-14 43-38l32 2c-6 37-31 61-74 61-59 0-76-41-82-99-10-93 101-131 147-64 4 7 5 14 7 22l-32 3c-4-21-16-35-41-35" id="P"/><path fill="#333" d="M59-47c-2 24 18 29 38 22v24C64 9 27 4 27-40v-127H5v-23h24l9-43h21v43h35v23H59v120" id="Q"/><path fill="#333" d="M141 0L90-78 38 0H4l68-98-65-92h35l48 74 47-74h35l-64 92 68 98h-35" id="R"/><path fill="#333" d="M68-38c1 34 0 65-14 84H32c9-13 17-26 17-46H33v-38h35" id="S"/><g id="a"><use transform="matrix(0.05947632153027956,0,0,0.05947632153027956,0,0)" xlink:href="#I"/><use transform="matrix(0.05947632153027956,0,0,0.05947632153027956,4.698629400892085,0)" xlink:href="#J"/><use transform="matrix(0.05947632153027956,0,0,0.05947632153027956,16.593893706948,0)" xlink:href="#K"/><use transform="matrix(0.05947632153027956,0,0,0.05947632153027956,27.29963158239832,0)" xlink:href="#L"/><use transform="matrix(0.05947632153027956,0,0,0.05947632153027956,39.194895888454234,0)" xlink:href="#M"/><use transform="matrix(0.05947632153027956,0,0,0.05947632153027956,49.90063376390455,0)" xlink:href="#N"/><use transform="matrix(0.05947632153027956,0,0,0.05947632153027956,61.795898069960465,0)" xlink:href="#O"/><use transform="matrix(0.05947632153027956,0,0,0.05947632153027956,68.87358033206374,0)" xlink:href="#P"/><use transform="matrix(0.05947632153027956,0,0,0.05947632153027956,79.57931820751406,0)" xlink:href="#Q"/><use transform="matrix(0.05947632153027956,0,0,0.05947632153027956,85.52695036054202,0)" xlink:href="#R"/><use transform="matrix(0.05947632153027956,0,0,0.05947632153027956,96.23268823599234,0)" xlink:href="#S"/></g><path fill="#333" d="M33-261c38 41 65 92 65 168S71 34 33 75H2C39 34 66-17 66-93S39-220 2-261h31" id="T"/><g id="b"><use transform="matrix(0.05947632153027956,0,0,0.05947632153027956,0,0)" xlink:href="#J"/><use transform="matrix(0.05947632153027956,0,0,0.05947632153027956,11.895264306055912,0)" xlink:href="#N"/><use transform="matrix(0.05947632153027956,0,0,0.05947632153027956,23.790528612111824,0)" xlink:href="#R"/><use transform="matrix(0.05947632153027956,0,0,0.05947632153027956,34.496266487562146,0)" xlink:href="#Q"/><use transform="matrix(0.05947632153027956,0,0,0.05947632153027956,40.4438986405901,0)" xlink:href="#T"/></g><g id="d"><use transform="matrix(0.06608480170031063,0,0,0.06608480170031063,0,0)" xlink:href="#P"/><use transform="matrix(0.06608480170031063,0,0,0.06608480170031063,11.895264306055912,0)" xlink:href="#Q"/><use transform="matrix(0.06608480170031063,0,0,0.06608480170031063,18.503744476086975,0)" xlink:href="#R"/></g><path fill="#333" d="M190 0L58-211 59 0H30v-248h39L202-35l-2-213h31V0h-41" id="U"/><path fill="#333" d="M114-163C36-179 61-72 57 0H25l-1-190h30c1 12-1 29 2 39 6-27 23-49 58-41v29" id="V"/><g id="e"><use transform="matrix(0.05947632153027956,0,0,0.05947632153027956,0,0)" xlink:href="#U"/><use transform="matrix(0.05947632153027956,0,0,0.05947632153027956,15.404367276342407,0)" xlink:href="#I"/><use transform="matrix(0.05947632153027956,0,0,0.05947632153027956,20.102996677234493,0)" xlink:href="#Q"/><use transform="matrix(0.05947632153027956,0,0,0.05947632153027956,26.05062883026245,0)" xlink:href="#V"/><use transform="matrix(0.05947632153027956,0,0,0.05947632153027956,33.12831109236572,0)" xlink:href="#I"/><use transform="matrix(0.05947632153027956,0,0,0.05947632153027956,37.82694049325781,0)" xlink:href="#P"/></g><path fill="#333" d="M118-107v75H92v-75H18v-26h74v-75h26v75h74v26h-74" id="W"/><use transform="matrix(0.05947632153027956,0,0,0.05947632153027956,0,0)" xlink:href="#W" id="f"/><path fill="#333" d="M63-220v92h138v28H63V0H30v-248h175v28H63" id="X"/><path fill="#333" d="M141-36C126-15 110 5 73 4 37 3 15-17 15-53c-1-64 63-63 125-63 3-35-9-54-41-54-24 1-41 7-42 31l-33-3c5-37 33-52 76-52 45 0 72 20 72 64v82c-1 20 7 32 28 27v20c-31 9-61-2-59-35zM48-53c0 20 12 33 32 33 41-3 63-29 60-74-43 2-92-5-92 41" id="Y"/><path fill="#333" d="M185-189c-5-48-123-54-124 2 14 75 158 14 163 119 3 78-121 87-175 55-17-10-28-26-33-46l33-7c5 56 141 63 141-1 0-78-155-14-162-118-5-82 145-84 179-34 5 7 8 16 11 25" id="Z"/><g id="g"><use transform="matrix(0.05947632153027956,0,0,0.05947632153027956,0,0)" xlink:href="#X"/><use transform="matrix(0.05947632153027956,0,0,0.05947632153027956,13.025314415131223,0)" xlink:href="#Y"/><use transform="matrix(0.05947632153027956,0,0,0.05947632153027956,24.920578721187134,0)" xlink:href="#Y"/><use transform="matrix(0.05947632153027956,0,0,0.05947632153027956,36.81584302724305,0)" xlink:href="#Z"/></g><path fill="#333" d="M232-93c-1 65-40 97-104 97C67 4 28-28 28-90v-158h33c8 89-33 224 67 224 102 0 64-133 71-224h33v155" id="aa"/><path fill="#333" d="M115-194c55 1 70 41 70 98S169 2 115 4C84 4 66-9 55-30l1 105H24l-1-265h31l2 30c10-21 28-34 59-34zm-8 174c40 0 45-34 45-75s-6-73-45-74c-42 0-51 32-51 76 0 43 10 73 51 73" id="ab"/><path fill="#333" d="M85-194c31 0 48 13 60 33l-1-100h32l1 261h-30c-2-10 0-23-3-31C134-8 116 4 85 4 32 4 16-35 15-94c0-66 23-100 70-100zm9 24c-40 0-46 34-46 75 0 40 6 74 45 74 42 0 51-32 51-76 0-42-9-74-50-73" id="ac"/><g id="h"><use transform="matrix(0.05947632153027956,0,0,0.05947632153027956,0,0)" xlink:href="#aa"/><use transform="matrix(0.05947632153027956,0,0,0.05947632153027956,15.404367276342407,0)" xlink:href="#ab"/><use transform="matrix(0.05947632153027956,0,0,0.05947632153027956,27.29963158239832,0)" xlink:href="#ac"/><use transform="matrix(0.05947632153027956,0,0,0.05947632153027956,39.194895888454234,0)" xlink:href="#Y"/><use transform="matrix(0.05947632153027956,0,0,0.05947632153027956,51.09016019451015,0)" xlink:href="#Q"/><use transform="matrix(0.05947632153027956,0,0,0.05947632153027956,57.0377923475381,0)" xlink:href="#N"/></g><path fill="#333" d="M197 0v-115H63V0H30v-248h33v105h134v-105h34V0h-34" id="ad"/><path fill="#333" d="M24 0v-261h32V0H24" id="ae"/><g id="i"><use transform="matrix(0.05947632153027956,0,0,0.05947632153027956,0,0)" xlink:href="#ad"/><use transform="matrix(0.05947632153027956,0,0,0.05947632153027956,15.404367276342407,0)" xlink:href="#Y"/><use transform="matrix(0.05947632153027956,0,0,0.05947632153027956,27.29963158239832,0)" xlink:href="#J"/><use transform="matrix(0.05947632153027956,0,0,0.05947632153027956,39.194895888454234,0)" xlink:href="#ac"/><use transform="matrix(0.05947632153027956,0,0,0.05947632153027956,51.09016019451015,0)" xlink:href="#ae"/><use transform="matrix(0.05947632153027956,0,0,0.05947632153027956,55.788789595402235,0)" xlink:href="#N"/><use transform="matrix(0.05947632153027956,0,0,0.05947632153027956,67.68405390145814,0)" xlink:href="#V"/></g><g id="j"><use transform="matrix(0.05947632153027956,0,0,0.05947632153027956,0,0)" xlink:href="#P"/><use transform="matrix(0.05947632153027956,0,0,0.05947632153027956,10.705737875450321,0)" xlink:href="#Q"/><use transform="matrix(0.05947632153027956,0,0,0.05947632153027956,16.653370028478278,0)" xlink:href="#R"/></g><path fill="#333" d="M205 0l-28-72H64L36 0H1l101-248h38L239 0h-34zm-38-99l-47-123c-12 45-31 82-46 123h93" id="af"/><path fill="#333" d="M84 4C-5 8 30-112 23-190h32v120c0 31 7 50 39 49 72-2 45-101 50-169h31l1 190h-30c-1-10 1-25-2-33-11 22-28 36-60 37" id="ag"/><path fill="#333" d="M106-169C34-169 62-67 57 0H25v-261h32l-1 103c12-21 28-36 61-36 89 0 53 116 60 194h-32v-121c2-32-8-49-39-48" id="ah"/><g id="k"><use transform="matrix(0.05947632153027956,0,0,0.05947632153027956,0,0)" xlink:href="#af"/><use transform="matrix(0.05947632153027956,0,0,0.05947632153027956,14.274317167267094,0)" xlink:href="#ag"/><use transform="matrix(0.05947632153027956,0,0,0.05947632153027956,26.169581473323007,0)" xlink:href="#Q"/><use transform="matrix(0.05947632153027956,0,0,0.05947632153027956,32.11721362635096,0)" xlink:href="#ah"/></g><path fill="#333" d="M240 0l2-218c-23 76-54 145-80 218h-23L58-218 59 0H30v-248h44l77 211c21-75 51-140 76-211h43V0h-30" id="ai"/><path fill="#333" d="M206 0h-36l-40-164L89 0H53L-1-190h32L70-26l43-164h34l41 164 42-164h31" id="aj"/><g id="l"><use transform="matrix(0.05947632153027956,0,0,0.05947632153027956,0,0)" xlink:href="#ai"/><use transform="matrix(0.05947632153027956,0,0,0.05947632153027956,17.783420137553588,0)" xlink:href="#I"/><use transform="matrix(0.05947632153027956,0,0,0.05947632153027956,22.482049538445672,0)" xlink:href="#ac"/><use transform="matrix(0.05947632153027956,0,0,0.05947632153027956,34.377313844501586,0)" xlink:href="#ac"/><use transform="matrix(0.05947632153027956,0,0,0.05947632153027956,46.2725781505575,0)" xlink:href="#ae"/><use transform="matrix(0.05947632153027956,0,0,0.05947632153027956,50.97120755144959,0)" xlink:href="#N"/><use transform="matrix(0.05947632153027956,0,0,0.05947632153027956,62.866471857505495,0)" xlink:href="#aj"/><use transform="matrix(0.05947632153027956,0,0,0.05947632153027956,78.27083913384791,0)" xlink:href="#Y"/><use transform="matrix(0.05947632153027956,0,0,0.05947632153027956,90.16610343990382,0)" xlink:href="#V"/><use transform="matrix(0.05947632153027956,0,0,0.05947632153027956,97.24378570200709,0)" xlink:href="#N"/></g><g id="n"><use transform="matrix(0.05947632153027956,0,0,0.05947632153027956,0,0)" xlink:href="#ac"/><use transform="matrix(0.05947632153027956,0,0,0.05947632153027956,11.895264306055912,0)" xlink:href="#L"/></g><path fill="#333" d="M135-143c-3-34-86-38-87 0 15 53 115 12 119 90S17 21 10-45l28-5c4 36 97 45 98 0-10-56-113-15-118-90-4-57 82-63 122-42 12 7 21 19 24 35" id="ak"/><g id="o"><use transform="matrix(0.05947632153027956,0,0,0.05947632153027956,0,0)" xlink:href="#ag"/><use transform="matrix(0.05947632153027956,0,0,0.05947632153027956,11.895264306055912,0)" xlink:href="#ak"/><use transform="matrix(0.05947632153027956,0,0,0.05947632153027956,22.60100218150623,0)" xlink:href="#N"/><use transform="matrix(0.05947632153027956,0,0,0.05947632153027956,34.496266487562146,0)" xlink:href="#V"/></g><path fill="#333" d="M33 0v-38h34V0H33" id="al"/><g id="p"><use transform="matrix(0.05947632153027956,0,0,0.05947632153027956,0,0)" xlink:href="#Y"/><use transform="matrix(0.05947632153027956,0,0,0.05947632153027956,11.895264306055912,0)" xlink:href="#ag"/><use transform="matrix(0.05947632153027956,0,0,0.05947632153027956,23.790528612111824,0)" xlink:href="#Q"/><use transform="matrix(0.05947632153027956,0,0,0.05947632153027956,29.73816076513978,0)" xlink:href="#ah"/><use transform="matrix(0.05947632153027956,0,0,0.05947632153027956,41.633425071195695,0)" xlink:href="#al"/></g><g id="r"><use transform="matrix(0.05947632153027956,0,0,0.05947632153027956,0,0)" xlink:href="#I"/><use transform="matrix(0.05947632153027956,0,0,0.05947632153027956,4.698629400892085,0)" xlink:href="#ak"/></g><g id="s"><use transform="matrix(0.05947632153027956,0,0,0.05947632153027956,0,0)" xlink:href="#J"/><use transform="matrix(0.05947632153027956,0,0,0.05947632153027956,11.895264306055912,0)" xlink:href="#L"/><use transform="matrix(0.05947632153027956,0,0,0.05947632153027956,23.790528612111824,0)" xlink:href="#Q"/></g><path fill="#333" d="M9 0v-24l116-142H16v-24h144v24L44-24h123V0H9" id="am"/><g id="t"><use transform="matrix(0.05947632153027956,0,0,0.05947632153027956,0,0)" xlink:href="#Y"/><use transform="matrix(0.05947632153027956,0,0,0.05947632153027956,11.895264306055912,0)" xlink:href="#ag"/><use transform="matrix(0.05947632153027956,0,0,0.05947632153027956,23.790528612111824,0)" xlink:href="#Q"/><use transform="matrix(0.05947632153027956,0,0,0.05947632153027956,29.73816076513978,0)" xlink:href="#ah"/><use transform="matrix(0.05947632153027956,0,0,0.05947632153027956,41.633425071195695,0)" xlink:href="#L"/><use transform="matrix(0.05947632153027956,0,0,0.05947632153027956,53.52868937725161,0)" xlink:href="#V"/><use transform="matrix(0.05947632153027956,0,0,0.05947632153027956,60.606371639354876,0)" xlink:href="#I"/><use transform="matrix(0.05947632153027956,0,0,0.05947632153027956,65.30500104024696,0)" xlink:href="#am"/><use transform="matrix(0.05947632153027956,0,0,0.05947632153027956,76.01073891569729,0)" xlink:href="#N"/><use transform="matrix(0.05947632153027956,0,0,0.05947632153027956,87.9060032217532,0)" xlink:href="#ac"/></g><path fill="#333" d="M30 0v-248h33v221h125V0H30" id="an"/><path fill="#333" d="M177-190C167-65 218 103 67 71c-23-6-38-20-44-43l32-5c15 47 100 32 89-28v-30C133-14 115 1 83 1 29 1 15-40 15-95c0-56 16-97 71-98 29-1 48 16 59 35 1-10 0-23 2-32h30zM94-22c36 0 50-32 50-73 0-42-14-75-50-75-39 0-46 34-46 75s6 73 46 73" id="ao"/><g id="u"><use transform="matrix(0.05947632153027956,0,0,0.05947632153027956,0,0)" xlink:href="#an"/><use transform="matrix(0.05947632153027956,0,0,0.05947632153027956,11.895264306055912,0)" xlink:href="#L"/><use transform="matrix(0.05947632153027956,0,0,0.05947632153027956,23.790528612111824,0)" xlink:href="#ao"/><use transform="matrix(0.05947632153027956,0,0,0.05947632153027956,35.685792918167735,0)" xlink:href="#ao"/><use transform="matrix(0.05947632153027956,0,0,0.05947632153027956,47.58105722422365,0)" xlink:href="#N"/><use transform="matrix(0.05947632153027956,0,0,0.05947632153027956,59.47632153027956,0)" xlink:href="#V"/></g><g id="w"><use transform="matrix(0.05947632153027956,0,0,0.05947632153027956,0,0)" xlink:href="#ac"/><use transform="matrix(0.05947632153027956,0,0,0.05947632153027956,11.895264306055912,0)" xlink:href="#L"/></g><g id="x"><use transform="matrix(0.05947632153027956,0,0,0.05947632153027956,0,0)" xlink:href="#ae"/><use transform="matrix(0.05947632153027956,0,0,0.05947632153027956,4.698629400892085,0)" xlink:href="#L"/><use transform="matrix(0.05947632153027956,0,0,0.05947632153027956,16.593893706948,0)" xlink:href="#ao"/><use transform="matrix(0.05947632153027956,0,0,0.05947632153027956,28.48915801300391,0)" xlink:href="#ao"/><use transform="matrix(0.05947632153027956,0,0,0.05947632153027956,40.38442231905982,0)" xlink:href="#I"/><use transform="matrix(0.05947632153027956,0,0,0.05947632153027956,45.08305171995191,0)" xlink:href="#J"/><use transform="matrix(0.05947632153027956,0,0,0.05947632153027956,56.978316026007825,0)" xlink:href="#ao"/></g><path fill="#333" d="M33-154v-36h34v36H33zM33 0v-36h34V0H33" id="ap"/><g id="y"><use transform="matrix(0.0528678413602485,0,0,0.0528678413602485,0,0)" xlink:href="#ak"/><use transform="matrix(0.0528678413602485,0,0,0.0528678413602485,9.51621144484473,0)" xlink:href="#Q"/><use transform="matrix(0.0528678413602485,0,0,0.0528678413602485,14.802995580869581,0)" xlink:href="#Y"/><use transform="matrix(0.0528678413602485,0,0,0.0528678413602485,25.376563852919283,0)" xlink:href="#Q"/><use transform="matrix(0.0528678413602485,0,0,0.0528678413602485,30.663347988944132,0)" xlink:href="#ag"/><use transform="matrix(0.0528678413602485,0,0,0.0528678413602485,41.23691626099383,0)" xlink:href="#ak"/><use transform="matrix(0.0528678413602485,0,0,0.0528678413602485,50.75312770583856,0)" xlink:href="#ap"/></g><path fill="#333" d="M155-56V0h-30v-56H8v-25l114-167h33v167h35v25h-35zm-30-156c-27 46-58 90-88 131h88v-131" id="aq"/><path fill="#333" d="M101-251c68 0 85 55 85 127S166 4 100 4C33 4 14-52 14-124c0-73 17-127 87-127zm-1 229c47 0 54-49 54-102s-4-102-53-102c-51 0-55 48-55 102 0 53 5 102 54 102" id="ar"/><path fill="#333" d="M27 0v-27h64v-190l-56 39v-29l58-41h29v221h61V0H27" id="as"/><g id="z"><use transform="matrix(0.0528678413602485,0,0,0.0528678413602485,0,0)" xlink:href="#aq"/><use transform="matrix(0.0528678413602485,0,0,0.0528678413602485,10.5735682720497,0)" xlink:href="#ar"/><use transform="matrix(0.0528678413602485,0,0,0.0528678413602485,21.1471365440994,0)" xlink:href="#as"/></g><path fill="#333" d="M233-177c-1 41-23 64-60 70L243 0h-38l-65-103H63V0H30v-248c88 3 205-21 203 71zM63-129c60-2 137 13 137-47 0-61-80-42-137-45v92" id="at"/><path fill="#333" d="M145-31C134-9 116 4 85 4 32 4 16-35 15-94c0-59 17-99 70-100 32-1 48 14 60 33 0-11-1-24 2-32h30l-1 268h-32zM93-21c41 0 51-33 51-76s-8-73-50-73c-40 0-46 35-46 75s5 74 45 74" id="au"/><g id="A"><use transform="matrix(0.05947632153027956,0,0,0.05947632153027956,0,0)" xlink:href="#at"/><use transform="matrix(0.05947632153027956,0,0,0.05947632153027956,15.404367276342407,0)" xlink:href="#N"/><use transform="matrix(0.05947632153027956,0,0,0.05947632153027956,27.29963158239832,0)" xlink:href="#au"/><use transform="matrix(0.05947632153027956,0,0,0.05947632153027956,39.194895888454234,0)" xlink:href="#ag"/><use transform="matrix(0.05947632153027956,0,0,0.05947632153027956,51.09016019451015,0)" xlink:href="#N"/><use transform="matrix(0.05947632153027956,0,0,0.05947632153027956,62.985424500566054,0)" xlink:href="#ak"/><use transform="matrix(0.05947632153027956,0,0,0.05947632153027956,73.69116237601638,0)" xlink:href="#Q"/></g><g id="B"><use transform="matrix(0.05947632153027956,0,0,0.05947632153027956,0,0)" xlink:href="#at"/><use transform="matrix(0.05947632153027956,0,0,0.05947632153027956,15.404367276342407,0)" xlink:href="#N"/><use transform="matrix(0.05947632153027956,0,0,0.05947632153027956,27.29963158239832,0)" xlink:href="#ak"/><use transform="matrix(0.05947632153027956,0,0,0.05947632153027956,38.005369457848644,0)" xlink:href="#ab"/><use transform="matrix(0.05947632153027956,0,0,0.05947632153027956,49.90063376390456,0)" xlink:href="#L"/><use transform="matrix(0.05947632153027956,0,0,0.05947632153027956,61.79589806996048,0)" xlink:href="#J"/><use transform="matrix(0.05947632153027956,0,0,0.05947632153027956,73.69116237601638,0)" xlink:href="#ak"/><use transform="matrix(0.05947632153027956,0,0,0.05947632153027956,84.3969002514667,0)" xlink:href="#N"/></g><path fill="#333" d="M127-220V0H93v-220H8v-28h204v28h-85" id="av"/><path fill="#333" d="M30-248c87 1 191-15 191 75 0 78-77 80-158 76V0H30v-248zm33 125c57 0 124 11 124-50 0-59-68-47-124-48v98" id="aw"/><g id="C"><use transform="matrix(0.0528678413602485,0,0,0.0528678413602485,0,0)" xlink:href="#ad"/><use transform="matrix(0.0528678413602485,0,0,0.0528678413602485,13.692770912304363,0)" xlink:href="#av"/><use transform="matrix(0.0528678413602485,0,0,0.0528678413602485,25.270828170198783,0)" xlink:href="#av"/><use transform="matrix(0.0528678413602485,0,0,0.0528678413602485,36.848885428093205,0)" xlink:href="#aw"/></g><g id="D"><use transform="matrix(0.0528678413602485,0,0,0.0528678413602485,0,0)" xlink:href="#aq"/><use transform="matrix(0.0528678413602485,0,0,0.0528678413602485,10.5735682720497,0)" xlink:href="#ar"/><use transform="matrix(0.0528678413602485,0,0,0.0528678413602485,21.1471365440994,0)" xlink:href="#as"/></g><g id="E"><use transform="matrix(0.0528678413602485,0,0,0.0528678413602485,0,0)" xlink:href="#U"/><use transform="matrix(0.0528678413602485,0,0,0.0528678413602485,13.692770912304363,0)" xlink:href="#L"/><use transform="matrix(0.0528678413602485,0,0,0.0528678413602485,24.266339184354063,0)" xlink:href="#Q"/></g><g id="F"><use transform="matrix(0.0528678413602485,0,0,0.0528678413602485,0,0)" xlink:href="#af"/><use transform="matrix(0.0528678413602485,0,0,0.0528678413602485,12.688281926459641,0)" xlink:href="#ag"/><use transform="matrix(0.0528678413602485,0,0,0.0528678413602485,23.261850198509343,0)" xlink:href="#Q"/><use transform="matrix(0.0528678413602485,0,0,0.0528678413602485,28.548634334534192,0)" xlink:href="#ah"/><use transform="matrix(0.0528678413602485,0,0,0.0528678413602485,39.12220260658389,0)" xlink:href="#L"/><use transform="matrix(0.0528678413602485,0,0,0.0528678413602485,49.69577087863359,0)" xlink:href="#V"/><use transform="matrix(0.0528678413602485,0,0,0.0528678413602485,55.98704400050317,0)" xlink:href="#I"/><use transform="matrix(0.0528678413602485,0,0,0.0528678413602485,60.163603467962794,0)" xlink:href="#am"/><use transform="matrix(0.0528678413602485,0,0,0.0528678413602485,69.67981491280753,0)" xlink:href="#N"/><use transform="matrix(0.0528678413602485,0,0,0.0528678413602485,80.25338318485723,0)" xlink:href="#ac"/></g><path fill="#333" d="M140-251c81 0 123 46 123 126C263-46 219 4 140 4 59 4 17-45 17-125s42-126 123-126zm0 227c63 0 89-41 89-101s-29-99-89-99c-61 0-89 39-89 99S79-25 140-24" id="ax"/><g id="G"><use transform="matrix(0.0528678413602485,0,0,0.0528678413602485,0,0)" xlink:href="#aw"/><use transform="matrix(0.0528678413602485,0,0,0.0528678413602485,12.688281926459641,0)" xlink:href="#ax"/><use transform="matrix(0.0528678413602485,0,0,0.0528678413602485,27.491277507329222,0)" xlink:href="#Z"/><use transform="matrix(0.0528678413602485,0,0,0.0528678413602485,40.17955943378887,0)" xlink:href="#av"/></g><path fill="#333" d="M0 4l72-265h28L28 4H0" id="ay"/><g id="H"><use transform="matrix(0.0528678413602485,0,0,0.0528678413602485,0,0)" xlink:href="#ay"/><use transform="matrix(0.0528678413602485,0,0,0.0528678413602485,5.28678413602485,0)" xlink:href="#L"/><use transform="matrix(0.0528678413602485,0,0,0.0528678413602485,15.86035240807455,0)" xlink:href="#V"/><use transform="matrix(0.0528678413602485,0,0,0.0528678413602485,22.151625529944123,0)" xlink:href="#ac"/><use transform="matrix(0.0528678413602485,0,0,0.0528678413602485,32.725193801993825,0)" xlink:href="#N"/><use transform="matrix(0.0528678413602485,0,0,0.0528678413602485,43.29876207404352,0)" xlink:href="#V"/><use transform="matrix(0.0528678413602485,0,0,0.0528678413602485,49.590035195913096,0)" xlink:href="#ay"/></g></defs></g></svg>