<?xml version="1.0" encoding="UTF-8"?>
<svg width="149px" height="35px" viewBox="0 0 149 35" version="1.1" xmlns="http://www.w3.org/2000/svg" xmlns:xlink="http://www.w3.org/1999/xlink">
    <title>6B68DC9A-394D-4AB9-BEB6-02B153B3694B</title>
    <defs>
        <linearGradient x1="67.5514271%" y1="-0.0608700762%" x2="8.46529612%" y2="99.7601804%" id="linearGradient-1">
            <stop stop-color="#B96723" offset="0%"></stop>
            <stop stop-color="#F7892E" offset="100%"></stop>
        </linearGradient>
        <linearGradient x1="49.9999962%" y1="0%" x2="49.9999962%" y2="100%" id="linearGradient-2">
            <stop stop-color="#F7892E" offset="0%"></stop>
            <stop stop-color="#FAC231" offset="100%"></stop>
        </linearGradient>
    </defs>
    <g id="Page-1" stroke="none" stroke-width="1" fill="none" fill-rule="evenodd">
        <g id="Nitric-V3.2-Copy" transform="translate(-260.000000, -65.000000)">
            <g id="image-copy" transform="translate(260.000000, 65.000000)">
                <path d="M66.7983691,34.8726 L64.0159691,34.8726 L64.0159691,20.1008 C64.0159691,17.9623 63.1664691,15.9114 61.6542691,14.3993 C60.1421691,12.8871 58.0912691,12.0376 55.9527691,12.0376 C53.8142691,12.0376 51.7633691,12.8871 50.2512691,14.3993 C48.7390691,15.9114 47.8895691,17.9623 47.8895691,20.1008 L47.8895691,34.8726 L45.1071691,34.8726 L45.1071691,20.1008 C45.0904691,18.6655 45.3587691,17.2411 45.8965691,15.9101 C46.4342691,14.5792 47.2307691,13.3682 48.2398691,12.3473 C49.2489691,11.3264 50.4506691,10.5159 51.7752691,9.96276 C53.0997691,9.40959 54.5209691,9.12476 55.9564691,9.12476 C57.3918691,9.12476 58.8130691,9.40959 60.1376691,9.96276 C61.4622691,10.5159 62.6638691,11.3264 63.6729691,12.3473 C64.6820691,13.3682 65.4785691,14.5792 66.0163691,15.9101 C66.5540691,17.2411 66.8223691,18.6655 66.8056691,20.1008 L66.7983691,34.8726 Z" id="Path" fill="#474138" fill-rule="nonzero"></path>
                <polygon id="Path" fill="#474138" fill-rule="nonzero" points="74.9406691 12.9061 72.1537691 12.9061 72.1537691 34.8726 74.9406691 34.8726"></polygon>
                <path d="M76.5866691,5.3291 C76.5866691,5.93734 76.4063691,6.53192 76.0683691,7.03765 C75.7304691,7.54338 75.2501691,7.93755 74.6882691,8.17032 C74.1262691,8.40308 73.5079691,8.46398 72.9113691,8.34532 C72.3148691,8.22666 71.7668691,7.93376 71.3367691,7.50367 C70.9066691,7.07358 70.6137691,6.52561 70.4951691,5.92906 C70.3764691,5.33251 70.4373691,4.71417 70.6701691,4.15223 C70.9028691,3.59029 71.2970691,3.10999 71.8027691,2.77207 C72.3085691,2.43415 72.9030691,2.25378 73.5113691,2.25378 C74.3269691,2.25378 75.1091691,2.57779 75.6859691,3.15452 C76.2626691,3.73126 76.5866691,4.51347 76.5866691,5.3291 Z" id="Path" fill="#474138"></path>
                <polygon id="Path" fill="#474138" fill-rule="nonzero" points="89.2775691 0 86.4907691 0 86.4907691 34.8726 89.2775691 34.8726"></polygon>
                <polygon id="Path" fill="#474138" fill-rule="nonzero" points="93.9504691 9.80585 81.8176691 9.80585 81.8176691 12.5927 93.9504691 12.5927"></polygon>
                <path d="M101.750469,34.8726 L98.9677691,34.8726 L98.9677691,20.1008 C98.9689691,18.3609 99.3883691,16.6467 100.190469,15.1027 C100.992469,13.5587 102.154469,12.2301 103.577469,11.2288 C105.000469,10.2276 106.643469,9.58298 108.367469,9.34936 C110.091469,9.11573 111.846469,9.29992 113.484469,9.8864 L112.543469,12.5092 C111.325469,12.0737 110.021469,11.9372 108.740469,12.111 C107.458469,12.2848 106.238469,12.764 105.180469,13.5081 C104.123469,14.2522 103.260469,15.2394 102.663469,16.3867 C102.067469,17.5341 101.755469,18.8078 101.754469,20.1008 L101.750469,34.8726 Z" id="Path" fill="#474138" fill-rule="nonzero"></path>
                <polygon id="Path" fill="#474138" fill-rule="nonzero" points="122.681469 12.9061 119.894469 12.9061 119.894469 34.8726 122.681469 34.8726"></polygon>
                <path d="M124.337469,5.3291 C124.337469,5.93734 124.157469,6.53192 123.819469,7.03765 C123.481469,7.54338 123.001469,7.93755 122.439469,8.17032 C121.877469,8.40308 121.258469,8.46398 120.662469,8.34532 C120.065469,8.22666 119.517469,7.93376 119.087469,7.50367 C118.657469,7.07358 118.364469,6.52561 118.246469,5.92906 C118.127469,5.33251 118.188469,4.71417 118.421469,4.15223 C118.653469,3.59029 119.048469,3.10999 119.553469,2.77207 C120.059469,2.43415 120.654469,2.25378 121.262469,2.25378 C122.077469,2.25378 122.860469,2.57779 123.436469,3.15452 C124.013469,3.73126 124.337469,4.51347 124.337469,5.3291 Z" id="Path" fill="#474138"></path>
                <path d="M140.840469,34.8726651 C137.441469,34.8726651 134.182469,33.5226 131.779469,31.1195 C129.376469,28.7165 128.026469,25.4572 128.026469,22.0588 C128.026469,18.6604 129.376469,15.4011 131.779469,12.9981 C134.182469,10.595 137.441469,9.24492952 140.840469,9.24492952 C143.669469,9.23626 146.419469,10.1728 148.655469,11.9059 L147.045469,13.9986 C145.270469,12.6232 143.087469,11.8804 140.843469,11.8883 C139.497469,11.8722 138.162469,12.1232 136.914469,12.627 C135.666469,13.1308 134.531469,13.8772 133.573469,14.823 C132.616469,15.7688 131.856469,16.8952 131.337469,18.1369 C130.819469,19.3786 130.552469,20.7109 130.552469,22.0566 C130.552469,23.4023 130.819469,24.7346 131.337469,25.9763 C131.856469,27.218 132.616469,28.3444 133.573469,29.2902 C134.531469,30.236 135.666469,30.9825 136.914469,31.4862 C138.162469,31.99 139.497469,32.2411 140.843469,32.2249 C143.070469,32.232 145.237469,31.5007 147.005469,30.1454 L148.616469,32.2454 C146.386469,33.9576 143.651469,34.8816 140.840469,34.8726651 Z" id="Path" fill="#474138" fill-rule="nonzero"></path>
                <path d="M1.4976991,20.9764 L4.5930491,24.0744 L21.9304691,6.73036 L15.2173691,0.0146484 L1.4991591,13.7454 C1.0240391,14.2198 0.647087103,14.7834 0.389849103,15.4037 C0.132611103,16.024 0,16.689 0,17.3606 C0,18.0322 0.132071103,18.6972 0.389059103,19.3177 C0.646047103,19.9381 1.0227791,20.5018 1.4976991,20.9764 Z" id="Path" fill="url(#linearGradient-1)"></path>
                <path d="M29.0595691,20.8614 C29.0209691,20.9027 28.9814691,20.9435 28.9413691,20.9837 L25.8902691,24.036 L25.8722691,24.0539 L15.2231691,34.7071 L12.1263691,31.6106 C11.6515691,31.136 11.2748691,30.5725 11.0178691,29.9523 C10.7609691,29.332 10.6286691,28.6672 10.6286691,27.9958 C10.6286691,27.3244 10.7609691,26.6595 11.0178691,26.0393 C11.2748691,25.419 11.6515691,24.8555 12.1263691,24.381 L19.1628691,17.3455 L12.1467691,10.3305 C11.6724691,9.85603 11.2961691,9.29271 11.0394691,8.67273 C10.7826691,8.05274 10.6505691,7.38825 10.6505691,6.71718 C10.6505691,6.04611 10.7826691,5.38161 11.0394691,4.76163 C11.2961691,4.14164 11.6724691,3.57832 12.1467691,3.10383 L15.2435691,0 L28.9617691,13.7307 C29.9201691,14.6882 30.4591691,15.9872 30.4602706,17.3421 C30.4612691,18.653 29.9587691,19.9124 29.0595691,20.8614 Z" id="Path" fill="url(#linearGradient-2)"></path>
            </g>
        </g>
    </g>
</svg>