<svg xmlns="http://www.w3.org/2000/svg" xmlns:xlink="http://www.w3.org/1999/xlink" xmlns:lucid="lucid" width="934.05" height="134.05"><g transform="translate(-72.9727079689234 -272.9727079689234)" lucid:page-tab-id="YqDtIL1sUIuL"><path d="M0 0h1323.2v1870.4H0z" fill="#fff"/><g filter="url(#a)"><path d="M438.46 300h203.08v80H438.46z" stroke="#000" stroke-opacity="0" stroke-width="3" fill="#fff"/><use xlink:href="#b" transform="matrix(1,0,0,1,443.46153846153845,305) translate(66.51497395833334 43.14539930555556)"/></g><g filter="url(#c)"><path d="M100 300h203.08v80H100z" stroke="#000" stroke-opacity="0" stroke-width="3" fill="url(#d)"/><use xlink:href="#e" transform="matrix(1,0,0,1,105.00000000000004,305) translate(51.5138888888889 42.80164930555556)"/></g><path d="M337.8 341H304.1v-2h33.73zm98.84 0h-55.47v-2h55.47zM304.1 341h-1.02v-2h1.02z" fill="#5e5e5e"/><path d="M438.46 340l-18.67 11.04-1.03-1.72 15.76-9.32-15.76-9.32 1.02-1.72z" fill="#5e5e5e"/><use xlink:href="#f" transform="matrix(1,0,0,1,337.80816709662867,329.3333333333333) translate(0.004999999999999005 14.222222222222223)"/><path d="M675.68 341h-32.32v-2h32.32zm100.24 0H742.8v-2h33.12z" fill="#5e5e5e"/><path d="M661.23 330.68L645.47 340l15.76 9.32-1.02 1.72L641.55 340l18.67-11.04zM776.92 341h-1.02v-2h1.02z" fill="#5e5e5e"/><use xlink:href="#g" transform="matrix(1,0,0,1,675.6752136367521,329.3333333333333) translate(0.005000000000002558 14.222222222222223)"/><g filter="url(#c)"><path d="M776.92 300H980v80H776.92z" stroke="#000" stroke-opacity="0" stroke-width="3" fill="url(#h)"/><use xlink:href="#i" transform="matrix(1,0,0,1,781.9230769230769,305) translate(47.3146701388889 42.80164930555556)"/></g><defs><path fill="#333" d="M201-496c-5 191 137 352 324 352 67 0 125-17 175-51L564-341l127-108c26 29 65 73 118 131 27-53 40-113 40-178v-367c4-191-136-352-324-352-187 0-324 162-324 352v367zm324-884c275 0 490 253 490 533v335c0 108-42 259-93 315l93 100V21H897c-30-33-57-63-87-95-87 63-182 95-285 95C250 21 36-232 36-512v-335c-8-279 214-533 489-533" id="j"/><path fill="#333" d="M470-144c172 0 264-158 264-340v-486h165V0H734v-96C656-18 568 21 470 21 202 21 46-186 46-463v-507h165v507c-4 167 99 319 259 319" id="k"/><path fill="#333" d="M816-616c-46-109-154-210-294-210-133 0-258 109-301 210h595zM31-484c0-260 230-507 491-507 282 0 495 254 487 541H196c10 148 163 311 326 306 147-5 277-104 326-215l166 28C947-150 753 16 522 21 260 27 31-223 31-484" id="l"/><g id="b"><use transform="matrix(0.010850694444444444,0,0,0.010850694444444444,0,0)" xlink:href="#j"/><use transform="matrix(0.010850694444444444,0,0,0.010850694444444444,12.684461805555555,0)" xlink:href="#k"/><use transform="matrix(0.010850694444444444,0,0,0.010850694444444444,24.29470486111111,0)" xlink:href="#l"/><use transform="matrix(0.010850694444444444,0,0,0.010850694444444444,36.82725694444444,0)" xlink:href="#k"/><use transform="matrix(0.010850694444444444,0,0,0.010850694444444444,48.4375,0)" xlink:href="#l"/></g><filter id="a" filterUnits="objectBoundingBox" x="-.06" y="-.17" width="1.16" height="1.4"><feOffset result="offOut" in="SourceAlpha" dx="3.03" dy="2.61"/><feGaussianBlur result="blurOut" in="offOut" stdDeviation="8"/><feColorMatrix result="colorOut" in="blurOut" values="0 0 0 0 0 0 0 0 0 0 0 0 0 0 0 0 0 0 0.28627450980392155 0"/><feBlend in="SourceGraphic" in2="colorOut"/></filter><linearGradient gradientUnits="userSpaceOnUse" id="d" x1="100" y1="300" x2="303.08" y2="371.11"><stop offset="0%" stop-color="#f9b92c"/><stop offset="100%" stop-color="#f7892e"/></linearGradient><path fill="#333" d="M812-932c0-173-180-260-368-260H218v524h226c185 4 368-93 368-264zm166 0c0 250-274 437-534 429H218V0H51v-1357h393c258-7 534 177 534 425" id="m"/><path fill="#333" d="M535-805c-177 0-317 145-317 321V0H51v-970h167v134c85-89 189-134 310-134h218v218c-83-35-153-53-211-53" id="n"/><path fill="#333" d="M838-484c0-173-151-342-322-342-177 0-319 167-319 342 0 176 146 340 319 340 171 0 322-167 322-340zm-807 0c0-265 224-507 485-507 260 0 487 246 487 507 0 260-229 505-487 505C255 21 31-224 31-484" id="o"/><path fill="#333" d="M860-484c0-175-137-342-310-342-172 0-345 169-345 342s167 340 340 340c172 0 315-166 315-340zm-820 0c0-260 250-507 510-507 131 0 236 50 315 149v-515h167V0H865v-128C782-29 675 21 545 21 285 21 40-224 40-484" id="p"/><path fill="#333" d="M30-484c0-265 224-507 485-507 196 0 345 102 446 305H770c-63-93-148-140-255-140-177 0-319 167-319 342 0 176 146 340 319 340 93 0 176-43 249-128h193C846-77 699 21 515 21 254 21 30-224 30-484" id="q"/><g id="e"><use transform="matrix(0.010850694444444444,0,0,0.010850694444444444,0,0)" xlink:href="#m"/><use transform="matrix(0.010850694444444444,0,0,0.010850694444444444,11.827256944444445,0)" xlink:href="#n"/><use transform="matrix(0.010850694444444444,0,0,0.010850694444444444,20.23654513888889,0)" xlink:href="#o"/><use transform="matrix(0.010850694444444444,0,0,0.010850694444444444,32.76909722222222,0)" xlink:href="#p"/><use transform="matrix(0.010850694444444444,0,0,0.010850694444444444,45.83333333333333,0)" xlink:href="#k"/><use transform="matrix(0.010850694444444444,0,0,0.010850694444444444,57.443576388888886,0)" xlink:href="#q"/><use transform="matrix(0.010850694444444444,0,0,0.010850694444444444,68.81510416666666,0)" xlink:href="#l"/><use transform="matrix(0.010850694444444444,0,0,0.010850694444444444,81.34765624999999,0)" xlink:href="#n"/></g><filter id="c" filterUnits="objectBoundingBox" x="-.06" y="-.17" width="1.16" height="1.4"><feOffset result="offOut" in="SourceAlpha" dx="3.03" dy="2.61"/><feGaussianBlur result="blurOut" in="offOut" stdDeviation="8"/><feColorMatrix result="colorOut" in="blurOut" values="0 0 0 0 0 0 0 0 0 0 0 0 0 0 0 0 0 0 0.28627450980392155 0"/><feBlend in="SourceGraphic" in2="colorOut"/></filter><path fill="#333" d="M169-182c-1-43-94-46-97-3 18 66 151 10 154 114 3 95-165 93-204 36-6-8-10-19-12-30l50-8c3 46 112 56 116 5-17-69-150-10-154-114-4-87 153-88 188-35 5 8 8 18 10 28" id="r"/><path fill="#333" d="M185-48c-13 30-37 53-82 52C43 2 14-33 14-96s30-98 90-98c62 0 83 45 84 108H66c0 31 8 55 39 56 18 0 30-7 34-22zm-45-69c5-46-57-63-70-21-2 6-4 13-4 21h74" id="s"/><path fill="#333" d="M135-194c87-1 58 113 63 194h-50c-7-57 23-157-34-157-59 0-34 97-39 157H25l-1-190h47c2 12-1 28 3 38 12-26 28-41 61-42" id="t"/><path fill="#333" d="M88-194c31-1 46 15 58 34l-1-101h50l1 261h-48c-2-10 0-23-3-31C134-8 116 4 84 4 32 4 16-41 15-95c0-56 19-97 73-99zm17 164c33 0 40-30 41-66 1-37-9-64-41-64s-38 30-39 65c0 43 13 65 39 65" id="u"/><g id="f"><use transform="matrix(0.04938271604938272,0,0,0.04938271604938272,0,0)" xlink:href="#r"/><use transform="matrix(0.04938271604938272,0,0,0.04938271604938272,11.851851851851853,0)" xlink:href="#s"/><use transform="matrix(0.04938271604938272,0,0,0.04938271604938272,21.7283950617284,0)" xlink:href="#t"/><use transform="matrix(0.04938271604938272,0,0,0.04938271604938272,32.543209876543216,0)" xlink:href="#u"/></g><path fill="#333" d="M240-174c0 40-23 61-54 70L253 0h-59l-57-94H76V0H24v-248c93 4 217-23 216 74zM76-134c48-2 112 12 112-38 0-48-66-32-112-35v73" id="v"/><path fill="#333" d="M190-63c-7 42-38 67-86 67-59 0-84-38-90-98-12-110 154-137 174-36l-49 2c-2-19-15-32-35-32-30 0-35 28-38 64-6 74 65 87 74 30" id="w"/><path fill="#333" d="M25-224v-37h50v37H25zM25 0v-190h50V0H25" id="x"/><path fill="#333" d="M128 0H69L1-190h53L99-40l48-150h52" id="y"/><g id="g"><use transform="matrix(0.04938271604938272,0,0,0.04938271604938272,0,0)" xlink:href="#v"/><use transform="matrix(0.04938271604938272,0,0,0.04938271604938272,12.790123456790125,0)" xlink:href="#s"/><use transform="matrix(0.04938271604938272,0,0,0.04938271604938272,22.66666666666667,0)" xlink:href="#w"/><use transform="matrix(0.04938271604938272,0,0,0.04938271604938272,32.543209876543216,0)" xlink:href="#s"/><use transform="matrix(0.04938271604938272,0,0,0.04938271604938272,42.41975308641976,0)" xlink:href="#x"/><use transform="matrix(0.04938271604938272,0,0,0.04938271604938272,47.35802469135803,0)" xlink:href="#y"/><use transform="matrix(0.04938271604938272,0,0,0.04938271604938272,57.23456790123457,0)" xlink:href="#s"/></g><linearGradient gradientUnits="userSpaceOnUse" id="h" x1="776.92" y1="300" x2="980" y2="371.11"><stop offset="0%" stop-color="#f9b92c"/><stop offset="100%" stop-color="#f7892e"/></linearGradient><path fill="#333" d="M525 21C250 26 36-232 36-512v-335c-8-279 214-533 489-533 269 0 443 204 484 450H844c-26-159-149-285-319-285-187 0-324 162-324 352v367c-5 191 137 352 324 352 171 0 294-127 319-285h165C968-183 794 16 525 21" id="z"/><path fill="#333" d="M530-826c-179 0-312 160-312 342V0H53v-970h165v127c78-99 182-148 312-148 289 0 456 203 456 499V0H819v-484c2-203-95-342-289-342" id="A"/><path fill="#333" d="M68-580C-45-823 215-987 454-987c229 0 422 106 446 301l-161 34c-17-73-62-125-139-149-121-38-274-36-352 29-25 21-38 44-38 71 0 66 59 112 178 131 86 13 176 12 261 32 115 27 244 96 244 266 0 81-40 141-102 191C645 38 359 49 192-49 101-102 48-180 33-282l163-35c5 118 149 172 287 172 93 0 238-46 238-127 0-45-37-74-103-103-48-21-337-53-386-71-61-22-144-92-164-134" id="B"/><path fill="#333" d="M1018-991c257 0 359 224 359 507V0h-166v-484c0-228-64-342-193-342-155-1-215 166-215 342V0H637l-1-484c0-228-64-342-193-342-159-1-225 164-225 342V0H53v-970h165v68c59-59 134-89 225-89 133 0 229 56 286 168 46-112 142-168 289-168" id="C"/><g id="i"><use transform="matrix(0.010850694444444444,0,0,0.010850694444444444,0,0)" xlink:href="#z"/><use transform="matrix(0.010850694444444444,0,0,0.010850694444444444,12.3046875,0)" xlink:href="#o"/><use transform="matrix(0.010850694444444444,0,0,0.010850694444444444,24.837239583333332,0)" xlink:href="#A"/><use transform="matrix(0.010850694444444444,0,0,0.010850694444444444,37.28298611111111,0)" xlink:href="#B"/><use transform="matrix(0.010850694444444444,0,0,0.010850694444444444,48.49175347222221,0)" xlink:href="#k"/><use transform="matrix(0.010850694444444444,0,0,0.010850694444444444,60.10199652777778,0)" xlink:href="#C"/><use transform="matrix(0.010850694444444444,0,0,0.010850694444444444,77.21354166666666,0)" xlink:href="#l"/><use transform="matrix(0.010850694444444444,0,0,0.010850694444444444,89.74609374999997,0)" xlink:href="#n"/></g></defs></g></svg>