<svg xmlns="http://www.w3.org/2000/svg" xmlns:xlink="http://www.w3.org/1999/xlink" xmlns:lucid="lucid" width="934.05" height="334.05"><g transform="translate(-72.9727079689234 -172.97270796892337)" lucid:page-tab-id="peZtPqOMhD~q"><path d="M0 0h1323.2v1870.4H0z" fill="#fff"/><g filter="url(#a)"><path d="M438.46 300h203.08v80H438.46z" stroke="#000" stroke-opacity="0" stroke-width="3" fill="#fff"/><use xlink:href="#b" transform="matrix(1,0,0,1,443.46153846153845,305) translate(70.60026041666667 43.14539930555556)"/></g><g filter="url(#c)"><path d="M100 300h203.08v80H100z" stroke="#000" stroke-opacity="0" stroke-width="3" fill="url(#d)"/><use xlink:href="#e" transform="matrix(1,0,0,1,105.00000000000004,305) translate(51.644097222222214 42.80164930555556)"/></g><path d="M332.13 341h-28.05v-2h28.05zm104.5 0h-49.78v-2h49.8z" fill="#5e5e5e"/><path d="M304.1 341h-1.02v-2h1.02zM438.46 340l-18.67 11.04-1.03-1.72 15.76-9.32-15.76-9.32 1.02-1.72z" fill="#5e5e5e"/><use xlink:href="#f" transform="matrix(1,0,0,1,332.1260683311966,330.74652777777777) translate(0.004999999999999005 14.991319444444445)"/><path d="M669.67 341h-27.13v-2h27.13zm105.43 0h-26.3v-2h26.3z" fill="#5e5e5e"/><path d="M642.56 341h-1.02v-2h1.02zM776.92 340l-18.67 11.04-1.02-1.72L773 340l-15.77-9.32 1.02-1.72z" fill="#5e5e5e"/><use xlink:href="#g" transform="matrix(1,0,0,1,669.673477525641,330.74652777777777) translate(0.005000000000002558 14.991319444444445)"/><g filter="url(#c)"><path d="M776.92 300H980v80H776.92z" stroke="#000" stroke-opacity="0" stroke-width="3" fill="url(#h)"/><use xlink:href="#i" transform="matrix(1,0,0,1,781.9230769230769,305) translate(42.74110243055556 42.80164930555556)"/></g><g filter="url(#c)"><path d="M776.92 200H980v80H776.92z" stroke="#000" stroke-opacity="0" stroke-width="3" fill="url(#j)"/><use xlink:href="#i" transform="matrix(1,0,0,1,781.9230769230769,205) translate(42.74110243055556 42.80164930555556)"/></g><g filter="url(#c)"><path d="M776.92 400H980v80H776.92z" stroke="#000" stroke-opacity="0" stroke-width="3" fill="url(#k)"/><use xlink:href="#i" transform="matrix(1,0,0,1,781.9230769230769,405) translate(42.74110243055556 42.80164930555556)"/></g><path d="M642.94 340.2l-1.2-1.6 53.28-39.35h3.37zm133.1-98.32l-52.6 38.87h-3.36l54.8-40.47z" fill="#5e5e5e"/><path d="M642.96 340.2l-.83.6-1.2-1.6.84-.6zM768.47 259.97l-1.85-.78 7.14-16.87-18.2 1.87-.2-2 21.56-2.2z" fill="#5e5e5e"/><use xlink:href="#g" transform="matrix(1,0,0,1,669.673477525641,280.74652777777777) translate(0.005000000000002558 14.991319444444445)"/><path d="M776.05 438.12l-1.18 1.6-54.8-40.47h3.37zm-77.66-57.37H695l-53.27-39.35 1.2-1.6z" fill="#5e5e5e"/><path d="M642.96 339.8l-1.2 1.6-.22-.16v-2.48zM776.92 440l-21.57-2.2.2-2 18.2 1.87-7.13-16.86 1.85-.77z" fill="#5e5e5e"/><use xlink:href="#g" transform="matrix(1,0,0,1,669.673477525641,380.74652777777777) translate(0.005000000000002558 14.991319444444445)"/><defs><path fill="#333" d="M562-1192V0H397v-1192H1v-165h967v165H562" id="l"/><path fill="#333" d="M838-484c0-173-151-342-322-342-177 0-319 167-319 342 0 176 146 340 319 340 171 0 322-167 322-340zm-807 0c0-265 224-507 485-507 260 0 487 246 487 507 0 260-229 505-487 505C255 21 31-224 31-484" id="m"/><path fill="#333" d="M223-484c0 174 142 340 313 340 169 0 319-168 319-340 0-174-147-342-319-342-173 0-313 166-313 342zm798 0c0 261-225 505-485 505-129 0-235-50-318-149v516H53V-970h165v128c83-99 189-149 318-149 260 0 485 246 485 507" id="n"/><path fill="#333" d="M233-1172c-50 0-96-44-96-94 0-49 46-93 96-93s96 43 96 93c0 52-44 94-96 94zM26-970h289V0H150v-805H26v-165" id="o"/><path fill="#333" d="M30-484c0-265 224-507 485-507 196 0 345 102 446 305H770c-63-93-148-140-255-140-177 0-319 167-319 342 0 176 146 340 319 340 93 0 176-43 249-128h193C846-77 699 21 515 21 254 21 30-224 30-484" id="p"/><g id="b"><use transform="matrix(0.010850694444444444,0,0,0.010850694444444444,0,0)" xlink:href="#l"/><use transform="matrix(0.010850694444444444,0,0,0.010850694444444444,11.827256944444445,0)" xlink:href="#m"/><use transform="matrix(0.010850694444444444,0,0,0.010850694444444444,24.35980902777778,0)" xlink:href="#n"/><use transform="matrix(0.010850694444444444,0,0,0.010850694444444444,36.76215277777778,0)" xlink:href="#o"/><use transform="matrix(0.010850694444444444,0,0,0.010850694444444444,41.427951388888886,0)" xlink:href="#p"/></g><filter id="a" filterUnits="objectBoundingBox" x="-.06" y="-.17" width="1.16" height="1.4"><feOffset result="offOut" in="SourceAlpha" dx="3.03" dy="2.61"/><feGaussianBlur result="blurOut" in="offOut" stdDeviation="8"/><feColorMatrix result="colorOut" in="blurOut" values="0 0 0 0 0 0 0 0 0 0 0 0 0 0 0 0 0 0 0.28627450980392155 0"/><feBlend in="SourceGraphic" in2="colorOut"/></filter><linearGradient gradientUnits="userSpaceOnUse" id="d" x1="100" y1="300" x2="303.08" y2="371.11"><stop offset="0%" stop-color="#f9b92c"/><stop offset="100%" stop-color="#f7892e"/></linearGradient><path fill="#333" d="M812-932c0-173-180-260-368-260H218v524h226c185 4 368-93 368-264zm166 0c0 250-274 437-534 429H218V0H51v-1357h393c258-7 534 177 534 425" id="q"/><path fill="#333" d="M470-144c172 0 264-158 264-340v-486h165V0H734v-96C656-18 568 21 470 21 202 21 46-186 46-463v-507h165v507c-4 167 99 319 259 319" id="r"/><path fill="#333" d="M878-484c0-170-176-342-346-342-173 0-309 165-309 342 0 174 142 340 314 340 171 0 341-169 341-340zm165 0c0 259-247 505-506 505-129 0-236-50-319-149V0H51v-1357h167v515c79-99 183-149 314-149 260 0 511 247 511 507" id="s"/><path fill="#333" d="M125-1357h167V0H125v-1357" id="t"/><path fill="#333" d="M68-580C-45-823 215-987 454-987c229 0 422 106 446 301l-161 34c-17-73-62-125-139-149-121-38-274-36-352 29-25 21-38 44-38 71 0 66 59 112 178 131 86 13 176 12 261 32 115 27 244 96 244 266 0 81-40 141-102 191C645 38 359 49 192-49 101-102 48-180 33-282l163-35c5 118 149 172 287 172 93 0 238-46 238-127 0-45-37-74-103-103-48-21-337-53-386-71-61-22-144-92-164-134" id="u"/><path fill="#333" d="M528-826c-169 0-310 170-310 342V0H53v-1357h165v515c80-99 183-149 310-149 256 0 429 236 429 499V0H792v-484c3-179-95-342-264-342" id="v"/><path fill="#333" d="M816-616c-46-109-154-210-294-210-133 0-258 109-301 210h595zM31-484c0-260 230-507 491-507 282 0 495 254 487 541H196c10 148 163 311 326 306 147-5 277-104 326-215l166 28C947-150 753 16 522 21 260 27 31-223 31-484" id="w"/><path fill="#333" d="M535-805c-177 0-317 145-317 321V0H51v-970h167v134c85-89 189-134 310-134h218v218c-83-35-153-53-211-53" id="x"/><g id="e"><use transform="matrix(0.010850694444444444,0,0,0.010850694444444444,0,0)" xlink:href="#q"/><use transform="matrix(0.010850694444444444,0,0,0.010850694444444444,11.827256944444445,0)" xlink:href="#r"/><use transform="matrix(0.010850694444444444,0,0,0.010850694444444444,23.4375,0)" xlink:href="#s"/><use transform="matrix(0.010850694444444444,0,0,0.010850694444444444,36.111111111111114,0)" xlink:href="#t"/><use transform="matrix(0.010850694444444444,0,0,0.010850694444444444,40.798611111111114,0)" xlink:href="#o"/><use transform="matrix(0.010850694444444444,0,0,0.010850694444444444,45.46440972222223,0)" xlink:href="#u"/><use transform="matrix(0.010850694444444444,0,0,0.010850694444444444,56.67317708333334,0)" xlink:href="#v"/><use transform="matrix(0.010850694444444444,0,0,0.010850694444444444,68.55468750000001,0)" xlink:href="#w"/><use transform="matrix(0.010850694444444444,0,0,0.010850694444444444,81.08723958333334,0)" xlink:href="#x"/></g><filter id="c" filterUnits="objectBoundingBox" x="-.06" y="-.17" width="1.16" height="1.4"><feOffset result="offOut" in="SourceAlpha" dx="3.03" dy="2.61"/><feGaussianBlur result="blurOut" in="offOut" stdDeviation="8"/><feColorMatrix result="colorOut" in="blurOut" values="0 0 0 0 0 0 0 0 0 0 0 0 0 0 0 0 0 0 0.28627450980392155 0"/><feBlend in="SourceGraphic" in2="colorOut"/></filter><g id="f"><use transform="matrix(0.008680555555555556,0,0,0.008680555555555556,0,0)" xlink:href="#q"/><use transform="matrix(0.008680555555555556,0,0,0.008680555555555556,9.461805555555555,0)" xlink:href="#r"/><use transform="matrix(0.008680555555555556,0,0,0.008680555555555556,18.75,0)" xlink:href="#s"/><use transform="matrix(0.008680555555555556,0,0,0.008680555555555556,28.88888888888889,0)" xlink:href="#t"/><use transform="matrix(0.008680555555555556,0,0,0.008680555555555556,32.638888888888886,0)" xlink:href="#o"/><use transform="matrix(0.008680555555555556,0,0,0.008680555555555556,36.37152777777777,0)" xlink:href="#u"/><use transform="matrix(0.008680555555555556,0,0,0.008680555555555556,45.338541666666664,0)" xlink:href="#v"/></g><path fill="#333" d="M32-990c0-232 243-390 485-390 230 0 384 80 460 242 25 53 37 112 37 177H848c0-169-110-254-331-254-175 0-321 66-320 224 0 68 25 124 82 157 72 43 313 83 425 114 184 50 303 136 310 344 8 234-251 397-495 397C251 21 32-142 31-398h166c5 169 112 254 321 254 161 0 330-78 330-223 0-98-70-169-211-207-131-36-266-59-393-103C99-727 32-841 32-990" id="y"/><g id="g"><use transform="matrix(0.008680555555555556,0,0,0.008680555555555556,0,0)" xlink:href="#y"/><use transform="matrix(0.008680555555555556,0,0,0.008680555555555556,10.026041666666668,0)" xlink:href="#r"/><use transform="matrix(0.008680555555555556,0,0,0.008680555555555556,19.314236111111114,0)" xlink:href="#s"/><use transform="matrix(0.008680555555555556,0,0,0.008680555555555556,29.453125000000004,0)" xlink:href="#u"/><use transform="matrix(0.008680555555555556,0,0,0.008680555555555556,38.42013888888889,0)" xlink:href="#p"/><use transform="matrix(0.008680555555555556,0,0,0.008680555555555556,47.517361111111114,0)" xlink:href="#x"/><use transform="matrix(0.008680555555555556,0,0,0.008680555555555556,55.21701388888889,0)" xlink:href="#o"/><use transform="matrix(0.008680555555555556,0,0,0.008680555555555556,58.94965277777778,0)" xlink:href="#s"/><use transform="matrix(0.008680555555555556,0,0,0.008680555555555556,69.08854166666667,0)" xlink:href="#w"/></g><linearGradient gradientUnits="userSpaceOnUse" id="h" x1="776.92" y1="300" x2="980" y2="371.11"><stop offset="0%" stop-color="#f9b92c"/><stop offset="100%" stop-color="#f7892e"/></linearGradient><g id="i"><use transform="matrix(0.010850694444444444,0,0,0.010850694444444444,0,0)" xlink:href="#y"/><use transform="matrix(0.010850694444444444,0,0,0.010850694444444444,12.532552083333332,0)" xlink:href="#r"/><use transform="matrix(0.010850694444444444,0,0,0.010850694444444444,24.14279513888889,0)" xlink:href="#s"/><use transform="matrix(0.010850694444444444,0,0,0.010850694444444444,36.81640625,0)" xlink:href="#u"/><use transform="matrix(0.010850694444444444,0,0,0.010850694444444444,48.02517361111111,0)" xlink:href="#p"/><use transform="matrix(0.010850694444444444,0,0,0.010850694444444444,59.3967013888889,0)" xlink:href="#x"/><use transform="matrix(0.010850694444444444,0,0,0.010850694444444444,69.02126736111111,0)" xlink:href="#o"/><use transform="matrix(0.010850694444444444,0,0,0.010850694444444444,73.68706597222223,0)" xlink:href="#s"/><use transform="matrix(0.010850694444444444,0,0,0.010850694444444444,86.36067708333334,0)" xlink:href="#w"/><use transform="matrix(0.010850694444444444,0,0,0.010850694444444444,98.89322916666666,0)" xlink:href="#x"/></g><linearGradient gradientUnits="userSpaceOnUse" id="j" x1="776.92" y1="200" x2="980" y2="271.11"><stop offset="0%" stop-color="#f9b92c"/><stop offset="100%" stop-color="#f7892e"/></linearGradient><linearGradient gradientUnits="userSpaceOnUse" id="k" x1="776.92" y1="400" x2="980" y2="471.11"><stop offset="0%" stop-color="#f9b92c"/><stop offset="100%" stop-color="#f7892e"/></linearGradient></defs></g></svg>